<svg version="1.2" xmlns="http://www.w3.org/2000/svg" viewBox="0 0 900 500" width="900" height="500"><style>.a{fill:#f55308}.b{fill:#f8781f}.c{fill:#fcd148}.d{fill:#faa032}.e{fill:#fdfdfd}.f{fill:#fbb45e}</style><path class="a" d="m551.7 261.8q0 0 0 0 0 0 0 0z"/><path class="a" d="m629.8 318.5z"/><path fill-rule="evenodd" class="a" d="m543.9 254.5"/><path class="a" d="m543.9 254.5q0 0 0 0 0 0 0 0 0 0 0 0z"/><path fill-rule="evenodd" class="a" d="m546.1 254.9"/><path class="a" d="m546.1 254.9q0 0 0 0 0 0 0 0 0 0 0 0z"/><path class="a" d="m544.9 254.5q0 0 0.1 0 0 0 0 0-0.1 0-0.1 0z"/><path class="a" d="m630.6 295.2q0.6-1.8 1.5-3.5 0.6-1.2 1.3-2.2-0.1 0-0.2 0.1c-1.2 0.7-2.2 1.5-3.3 2.4-1 0.9-2.1 2-3.1 3.4-0.9 1.1-1.7 2.3-2.4 3.7-0.6 1.1-1.2 2.4-1.8 4.1-0.8 2.1-1.2 4.2-1.7 6.3-0.4 2.3-0.9 4.6-1.8 6.9q-0.6 1.4-1.4 2.4-0.7 0.8-1.3 1.3-0.6 0.4-1.3 0.8-0.4 0.1-0.7 0.2c-0.4 0.2-0.9 0.2-1.3 0.3q-0.7 0.1-1.5 0.1-0.8 0-1.5-0.1-0.9-0.1-1.7-0.4-0.6-0.3-1.1-0.7-0.5-0.4-0.9-0.8-0.4-0.6-0.7-1.2-0.4-1.1-0.6-2.3c-0.1-1.4-0.1-2.9 0.1-4.6 0.5-2.9 1.3-6 2.7-9.2q0.8-1.9 1.7-3.5c0.5-1 1.2-2 2-3.1 1.8-2.3 3.9-4.4 5.6-6.2l0.8-0.7c1.6-1.6 3.5-3.5 5.1-5.4q1.3-1.6 2.4-3.2 1.2-1.7 2.1-3.8c0.5-1.3 0.9-2.6 1.2-4q0.2-0.9 0.4-1.9v-0.2c0.1-0.7 0.1-1.6 0.2-2.6 0-1.1-0.1-2.3-0.3-3.6q-0.3-2.1-0.9-4.1c-0.3-1.1-0.7-2.3-1.4-3.6-0.5-1.1-1.2-2.2-2.2-3.4-0.7-0.9-1.5-1.6-2.6-2.4-0.5-0.4-1.1-0.7-1.6-0.9q-1-0.4-2.1-0.7c-0.7-0.2-1.4-0.2-1.9-0.3q-0.2 0-0.3 0c-0.6 0-1.2 0.1-1.7 0.2-0.7 0.2-1.4 0.4-1.9 0.7h-0.1q-0.8 0.3-1.5 0.6l-0.7 0.3q-0.5 0.2-1.1 0.4c-0.4 0.2-0.9 0.3-1.4 0.4q-0.3 0-0.6 0-0.2 0-0.4 0-0.3-0.1-0.6-0.2h-0.2q-0.3-0.2-0.6-0.4-0.3-0.3-0.6-0.6-0.3-0.4-0.5-0.8c-0.2-0.5-0.3-1-0.4-1.5-0.1-1-0.1-2.1 0.1-3.3 0.2-1.8 0.7-3.7 1.5-6 0.7-2.2 1.6-4.4 2.4-6.2q0.6-1.3 1.1-2.5c1.5-3.4 3-6.9 4.1-10.6 0.6-2.1 1.1-4.3 1.4-6.8 0.1-1 0.1-2.1 0.1-3.6 0-1.2-0.2-2.5-0.4-3.6-0.6-4.8-2.8-9.3-4.7-12.7q-1-1.8-2-3.5l-0.6-1-0.5-1c-1.2-2-2.1-3.8-2.8-5.4q-0.7-1.7-1.2-3.2c-0.3-1-0.5-2.1-0.7-3.4q-0.2-1.6-0.2-3.3c0-1 0.1-2.1 0.2-3.4q0.2-1.6 0.6-3.1c0.3-1.1 0.6-2.3 0.9-3.2 0.7-2.1 1.5-4.2 2.3-6.2l0.2-0.6 0.4-0.9 0.1-0.2c0.7-1.8 1.4-3.6 2-5.5q1.1-3.3 1.5-6.7c0.3-2.1 0.2-4.2 0-6.2q-0.2-1.2-0.5-2.3 0 0 0 0c-0.5-2.4-1.1-4.9-2-7.2-0.8-2.2-1.7-4.4-2.5-6.6q-0.6-1.8-1-3.5-0.5-1.7-0.8-3.4-0.2-1.8-0.2-3.6 0-0.8 0.1-1.6 0-0.2 0.1-0.4 0 0 0 0-0.7 1.1-1.2 2.6c-0.4 1-0.6 2-0.8 3-0.3 2.2-0.4 4.5-0.4 6.4 0 1.4 0 2.8 0.1 4.2v0.5c0.1 3.2 0.2 6.4-0.2 9.6q0-0.1 0-0.1-0.2 1.6-0.6 3c-0.3 1-0.6 2-1.1 3.2-0.7 1.6-1.5 3.1-2.5 4.6-0.9 1.5-1.9 2.8-2.8 4.1q-1 1.2-1.9 2.4c-2 2.5-3.9 5-5.6 7.6-1.4 2.1-2.4 4.4-3.1 6.6-0.7 2-1 4.2-1 6.6-0.1 1.9 0.2 3.9 0.7 6.4 0.4 2.2 1 4.2 1.7 6.4q0.4 1.2 0.8 2.4 0.7 2.1 1.4 4.2 0.3 1.2 0.6 2.4c-0.8-0.9-1.7-1.7-2.7-2.7l-0.1-0.1-0.6-0.6c-2.1-1.9-4.2-3.8-5.9-6.1q-0.6-0.7-1.1-1.6c-0.4-0.6-0.7-1.2-1-1.8q-0.3-0.9-0.6-1.9c-0.2-0.6-0.3-1.3-0.4-2.1-0.1-0.9-0.2-1.6-0.2-2.3 0-0.9 0.1-1.8 0.2-2.6 0.5-3.4 1.7-6.6 2.7-9q0.5-1.3 1.1-2.7c0.8-1.7 1.5-3.4 2.1-5q0.3-0.7 0.5-1.4 0 0 0.1 0 0.1-0.3 0.2-0.6 0 0 0 0 0.9-3 2.1-6 0.9-1.6 1.7-3.3 0.3-0.5 0.6-1c1.6-2.3 3.1-4.9 4.7-7.7 2.8-5 5.4-10 6.4-15.4q0.5-3.3 0.3-6.6c-0.2-2.3-0.6-4.7-1.4-7.2-0.4-1.1-0.9-2.3-1.4-3.5q-0.4-0.9-0.8-1.7-1.6-2.8-3.1-5.7-0.5-1.1-1-2.2-0.4-1-0.8-2.1-0.9-2.1-1.4-4.4-0.5-2.2-0.8-4.4-0.3-2.3-0.4-4.6-0.1-1.2-0.1-2.3 0-0.9 0-1.9 0-1.9 0.1-3.9 0-1.6 0.3-3.2c-1.1 3.4-2.5 7.3-4.1 11.2q-0.8 1.7-1.5 3.4c-0.7 1.6-1.4 3.2-2.1 4.9-1.2 3-2.1 5.6-2.6 8.1-0.7 2.9-0.8 5.8-0.6 8.5q0.2 2.3 0.8 4.6c0.3 1.1 0.7 2.3 1.4 3.8 0.9 2.2 2.1 4.3 3.2 6.3 1.2 2.1 2.4 4.1 3.3 6.3v0.1q1.2 3 1.6 5.7v-0.1c0.2 1.7 0.2 3.5-0.1 5.6-0.4 2.9-1.2 5.7-1.9 7.8q-0.2 0.6-0.4 1.2l-0.2 0.2-0.1 0.2-0.6 1.1q-0.7 1.1-1.4 2.3l-0.3 0.5c-0.9 1.1-2 2.2-3.2 3.4-1.2 1.1-2.4 2.2-3.4 2.9q-1.5 1.1-2.9 2.2c-2.7 2-5.4 4-7.8 6.4-1.6 1.6-3 3.5-4.2 5.5-0.5 1-0.9 2.1-1.2 2.9-0.4 1.1-0.8 2.2-1 3.7-0.2 1-0.3 2-0.4 3.2-0.2 1.4-0.2 2.7-0.1 3.8 0 2.4 0.3 4.8 0.5 7.2v0.2l0.1 0.9c0.2 2.2 0.4 4.4 0.6 6.5 0.2 2.9 0.1 5.4-0.2 7.8-0.3 2-0.7 3.5-1.2 4.9-0.5 1-1.1 2-1.9 3.1-1.6 2-3.5 3.8-5.1 5.4q-1.2 1.2-2.4 2.3l-0.2 0.2q-1.8 1.7-3.5 3.4c-2.3 2.3-4 4.2-5.3 6.1q-1 1.4-1.7 2.9-0.8 1.6-1 3.2-0.2 0.8-0.2 1.6c0 0.5 0.1 1 0.2 1.4 0.1 0.6 0.3 1.1 0.4 1.5q0.4 1 0.9 1.8c0.3 0.5 0.6 0.9 1.1 1.4 0.4 0.5 0.9 1 1.4 1.4 0.6 0.5 1.2 1 1.7 1.4 0.6 0.4 1.2 0.8 2 1.2 1.1 0.5 2.3 1 3.7 1.4 1.1 0.4 2.4 0.6 4.1 0.9 1.9 0.3 3.9 0.4 5.8 0.6q1.2 0.1 2.3 0.2 1.1 0.1 2.3 0.2c2 0.3 3.7 0.7 5.1 1.3q1.4 0.6 2.5 1.4 0.9 0.8 1.7 1.7c0.7 1 1.2 2 1.8 3.1q0.9 2.5 1.3 4.8c0.1 1.4 0.1 2.8-0.1 4.3q-0.2 1.4-0.5 2.7c-0.2 0.8-0.5 1.6-0.9 2.6q-1 2.1-2.3 3.9-0.9 1.3-2.1 2.2-0.9 0.7-1.8 1.1-0.7 0.2-1.4 0.4-0.4 0-0.8 0-0.3 0-0.6 0-0.7-0.1-1.4-0.4 0 0-0.1 0 0-0.1 0-0.1-0.9-0.3-1.6-0.7c-0.9-0.6-1.8-1.3-2.5-2.2q-1-1.2-1.7-2.7c-0.9-2-1.5-4.2-2.1-6.3-0.2-1.1-0.5-2.2-0.8-3.2q-0.3-1.2-0.8-2.3 0 0 0 0 0 0 0-0.1c-0.6-1.5-1.4-3-2.5-4.3q-0.8-1-1.8-1.9-0.6-0.4-1.3-0.7 0 0 0 0 0 0 0 0 0 0 0-0.1 0 0.1 0 0.1 0-0.1 0-0.1 0 0 0 0-0.6-0.2-1.1-0.3-0.5 0-1 0 0 0 0 0 0 0 0 0h-0.1q0 0 0 0-0.3 0.1-0.5 0.2-0.3 0-0.6 0.2-0.4 0.1-0.7 0.3-0.2 0.1-0.3 0.2 0 0.1 0 0.1 0.7 0.3 1.3 0.6c0.5 0.3 1 0.6 1.5 1q0.4 0.3 0.8 0.7c0.3 0.2 0.5 0.5 0.7 0.8q0.5 0.6 0.9 1.4 0.1 0.5 0.3 0.9c0.1 0.4 0.2 0.9 0.2 1.2q0.1 0.6 0.1 1.1c0 0.5 0 0.9-0.1 1.4-0.2 1.3-0.6 2.7-1.2 4.3q-0.5 0.9-0.9 1.8c-0.4 0.8-0.8 1.4-1.3 2.1-0.7 1.1-1.4 2.1-2.3 3.3l-0.5 0.6c-0.8 1.2-1.8 2.5-2.7 4-0.8 1.2-1.4 2.5-2 4.1-0.6 1.3-0.9 2.8-1.1 4.8-0.1 1.4 0 3 0.4 5 0.3 1.7 1 3.4 1.5 4.9 0.5 1.1 1 2.3 1.5 3.4v0.2l0.6 1.2c0.7 1.7 1.3 3.2 1.7 4.7 0.6 1.6 1 3.5 1.3 5.5 0.2 1.6 0.3 3.2 0.3 4.8 0 1.6-0.1 3.3-0.4 5.3-0.3 2.1-0.7 4.2-1.3 6.4-0.6 2.5-1.5 5-2.2 7-0.8 2.2-1.7 4.5-2.6 6.5l-0.6 1.5v0.1c-0.6 1.5-1.3 3.1-1.8 4.6-2.6 7.1-4 14.2-4.2 21.1-0.1 3.2 0.2 6.5 0.8 9.9 0.3 1.4 0.6 2.9 1.1 4.5 0.4 1.4 1 2.9 1.7 4.7 1.2 2.8 2.9 5.7 4.9 8.4 2 2.6 4.4 5.1 7.1 7.4 5.3 4.5 11.8 8 19.8 10.8 7.2 2.6 14.7 3.9 22.2 4h0.7c3.4 0 6.9-0.3 10.5-1 1.6-0.3 3.3-0.7 5.2-1.2 1.6-0.5 3.3-1.2 5.3-2.1 1.5-0.6 3.1-1.5 4.7-2.5 1.5-0.9 3.1-2 4.8-3.4 3.2-2.6 5.9-5.7 8.1-9.2 1-1.6 1.8-3.4 2.7-5.6 0.6-1.8 1.1-3.7 1.5-5.9q0.4-2.9 0.4-6.1c0-2-0.3-4.2-0.7-6.8-0.4-1.9-1-4-1.8-6.4-0.6-2-1.4-3.9-2.2-5.8l-0.3-0.7c-0.8-1.9-1.6-4-2.4-6.1-0.8-2.3-1.3-4.5-1.7-6.6q-0.1-1.4-0.1-2.8c-0.1-1 0-2 0.1-2.9q0.3-1.3 0.6-2.6c0.2-0.8 0.5-1.8 0.8-2.5 0.4-1.4 0.9-2.7 1.6-4.4q0.5-1 0.9-2l0.1-0.3 0.1-0.3q0.8-1.8 1.6-3.6 0.7-1.7 1.2-3.4c0.3-1.1 0.6-2.3 0.8-3.7q0.1-0.7 0.1-1.6 0.1-1.7-0.1-3.5v0.1q0-0.1 0-0.1 0-1.1-0.2-2.2-0.1-1-0.2-2-0.2-1.9-0.3-3.8c-0.2-2.6-0.2-5.3 0-7.8 0.3-2.6 0.7-5.1 1.5-7.5z"/><path class="a" d="m563.3 126.2q0 1 0.2 2c0.2 1.2 0.7 2.4 1.5 3.6 0.6 1 1.4 1.9 2.1 2.8 0.9 1.1 1.8 2.2 2.5 3.5q0.5 1 0.8 2.2 0.3 1.1 0.3 2.2 0 0.1 0 0.2-0.1 0.3-0.1 0.7 0.5-0.8 1-1.7 0.4-0.7 0.8-1.5 0.3-0.7 0.6-1.5 0 0 0 0 0 0 0 0 0 0 0 0 0 0 0 0 0.2-0.7 0.3-1.4 0.2-0.7 0.2-1.4 0-0.7 0-1.4-0.1-0.6-0.2-1.2 0 0 0 0 0 0 0 0 0 0 0 0 0 0 0 0-0.1-0.5-0.3-0.9-0.1-0.4-0.3-0.8 0 0 0 0 0 0 0 0-0.2-0.4-0.5-0.7-0.2-0.4-0.5-0.7-0.3-0.4-0.8-0.7-0.4-0.4-0.9-0.7 0 0 0 0c-0.7-0.5-1.5-0.9-2.3-1.3-0.7-0.4-1.4-0.8-2.1-1.3q-0.5-0.3-1-0.8-0.4-0.4-0.7-0.9-0.2-0.2-0.3-0.4-0.2 1.1-0.3 2.1z"/><path class="a" d="m644.7 243.8q-0.3 0.5-0.5 1 0 0 0 0-0.5 1-0.7 2.1-0.2 1-0.4 2.1 0-0.1 0-0.1c-0.2 1.6-0.3 3.3-0.4 4.9q-0.1 0.7-0.2 1.3 0 0.6-0.2 1.1-0.1 0.6-0.3 1.2-0.2 0.5-0.4 1c-0.6 1.5-1.4 2.8-2.2 4.1-0.5 0.8-0.9 1.5-1.3 2.3q-0.6 1-1.1 2.1h0.1q-0.6 1.2-0.9 2.5-0.4 1.4-0.6 2.7 0 0 0 0-0.2 1.8-0.1 3.6c0.1 1.3 0.2 2.6 0.3 3.8 0.2 1.3 0.3 2.7 0.2 4q0 0.4 0 0.8c0.2-1.2 0.5-2.4 1-3.6q0.5-1.2 1.4-2.3 0.6-0.9 1.4-1.6c0.6-0.5 1.1-1 1.6-1.3l0.9-0.7q0.8-0.6 1.6-1.2 1.4-1.1 2.3-2.2 1.1-1.3 1.8-2.8 0.3-0.8 0.6-1.6c0.2-0.6 0.3-1.2 0.3-1.8 0.2-1 0.2-2.2 0.1-3.5-0.2-1.1-0.4-2.2-0.7-3.6-0.4-1.6-0.9-3.1-1.3-4.7q-0.5-1.2-0.8-2.5c-0.6-2.1-1-3.6-1.2-5.1-0.1-0.9-0.1-1.6-0.1-2.2q0-0.1-0.1-0.2 0 0.2-0.1 0.4z"/><path class="a" d="m533 200.4q-0.5 0.5-1 1.1-1 1.1-1.7 2.5c-0.8 1.6-1.3 3.6-1.3 5.7-0.1 2 0.3 4 1.1 5.9 0.6 1.7 1.6 3.2 2.8 4.5q-0.1-0.9-0.1-1.8 0.1-1.3 0.4-2.5c0.4-1.8 1-3.5 1.5-5.2q0.4-1.3 0.7-2.7 0.2-1.3 0.3-2.5v-0.1q0 0 0 0 0-0.6 0-1.2-0.1-0.4-0.2-0.9 0 0 0 0-0.2-1.1-0.7-2.1-0.4-0.7-0.7-1.5-0.6 0.4-1.1 0.8z"/><path class="a" d="m535.7 205.3q0 0 0 0 0 0 0 0z"/><path class="a" d="m535.7 205.3v0.1z"/><path class="a" d="m633.7 241.7q-0.5 0-0.9 0.3-0.3 0.1-0.6 0.5-0.2 0.3-0.3 0.7-0.1 0.4 0 1c0 0.8 0.3 1.5 0.5 2.2 0.2 0.6 0.5 1.3 0.9 2.1q0.8 1.2 1.7 2.4 0 0 0 0 0 0 0 0 0 0 0 0 0 0.1 0 0.1 0 0 0-0.1 0 0 0 0 0 0 0 0 0 0 0 0.1 0 0 0 0 0.7 0.8 1.4 1.6 0-0.1 0-0.1c0.3-0.6 0.4-1.2 0.5-1.7q0.2-1.1 0.3-2.4 0.1-1.3 0-2.5c0-1-0.2-1.7-0.5-2.3q-0.2-0.5-0.4-0.9-0.3-0.4-0.7-0.7-0.3-0.2-0.8-0.3-0.3-0.1-0.6-0.1-0.3 0-0.5 0.1z"/><path class="a" d="m635 250.9q0 0 0 0 0 0 0 0z"/><path class="b" d="m553.3 286.3q0 0 0 0 0 0 0 0 0 0 0 0z"/><path class="b" d="m626 392q0-0.9-0.1-1.8c-0.2-1.3-0.5-2.4-0.7-3.3q-0.4-1.7-0.8-3c-0.4-1.2-0.7-2.3-1.2-3.4q-0.5-1.4-1.1-2.9c-1.1-2.4-2.2-4.8-3-6.4l-0.8-1.6-0.1-0.3-0.2-0.5q-0.9-1.7-1.7-3.5c-0.5-1.1-1-2.1-1.4-3.3-0.5-1.3-0.9-2.5-1.2-3.6-0.3-1.3-0.6-2.4-0.7-3.4-0.2-0.7-0.3-1.7-0.4-2.6-0.1-1.3-0.2-2.4-0.2-3.4q0-1.8 0.1-3.3 0.2-3 0.7-5.8c0.6-3.8 1.5-7.6 2.4-11.2l0.1-0.3 0.4-1.5c-0.9 0.4-1.7 0.7-2.4 1-1 0.4-1.9 0.7-2.8 0.9-0.9 0.3-1.6 0.4-2.3 0.4q-0.6 0.1-1.3 0.1-0.5 0-1.1-0.1c-0.7-0.1-1.3-0.2-1.9-0.3q-1-0.4-1.7-0.7-0.9-0.5-1.5-1-0.9-0.7-1.5-1.4-0.9-1.2-1.5-2.4-0.7-1.2-1.1-2.5c-0.2-0.7-0.3-1.2-0.4-1.7q-0.2-0.8-0.3-1.6-0.2-1.4-0.2-3.1c0-1.3 0.1-2.5 0.2-3.6q0.2-1.8 0.6-3.3c0.3-1.3 0.7-2.5 1.1-3.7 0.3-0.9 0.7-1.8 1.2-2.8 1.1-2.1 2.5-4 3.6-5.5q1.6-2.2 3.2-4.3l0.5-0.6 1.1-1.4c1.6-2.1 3.3-4.4 4.8-6.7 0.9-1.4 1.6-2.5 2.2-3.6q0.4-0.8 0.8-1.6 0.4-0.8 0.8-1.6c0.4-1.1 0.7-1.9 0.9-2.7q0.2-0.7 0.4-1.3 0.1-0.7 0.2-1.4 0.1-1 0.1-1.7 0-0.4 0-0.8-0.1-0.4-0.1-0.8c-0.1-0.4-0.2-0.9-0.3-1.4q-0.1-0.4-0.3-0.8-0.1-0.2-0.1-0.4-0.4-0.8-0.8-1.4-0.2-0.5-0.4-0.8-0.2-0.2-0.4-0.4-0.2-0.3-0.4-0.6-0.3-0.3-0.6-0.6-0.3-0.3-0.6-0.5l-0.3-0.3c-0.3-0.2-0.8-0.5-1.2-0.8q-0.4-0.1-0.7-0.3h-0.1l-0.2-0.1c-0.5-0.2-0.9-0.3-1.3-0.4q-0.6-0.2-1.3-0.4-0.6-0.1-1.1-0.1l-0.4-0.1h-0.1l-0.3-0.1-0.9-0.1-0.2-0.1q-0.6-0.1-1.2-0.2-0.7-0.2-1.4-0.4-0.6-0.2-1.2-0.4c-0.4-0.2-0.9-0.5-1.4-0.7q-0.3-0.2-0.6-0.5-0.4-0.2-0.7-0.4l-0.3-0.3q-0.3-0.2-0.5-0.5-0.3-0.2-0.5-0.5-0.3-0.2-0.5-0.5l-0.2-0.3q-0.2-0.3-0.4-0.5c-0.2-0.4-0.4-0.8-0.6-1.2-0.2-0.3-0.3-0.6-0.4-0.9-0.1-0.4-0.2-0.8-0.3-1.3q-0.1-0.5-0.2-1-0.1-0.7-0.1-1.3 0-0.7 0-1.4 0.1-1.4 0.3-2.5 0.2-1.6 0.5-2.8c0.3-1.3 0.6-2.2 0.8-3.1 0.6-1.9 1.3-3.9 2.2-6.2q1-2.2 1.9-4.5l0.6-1.2c0.5-1.2 1-2.5 1.5-3.8 0.3-0.9 0.8-2.1 1.2-3.4 0.4-1.3 0.8-2.4 1-3.5q0.3-1 0.4-1.9 0.2-0.8 0.3-1.6c0.1-1.1 0.2-2.3 0.2-3.5q0-0.9 0-1.7-0.1-0.4-0.1-0.8 0-0.4-0.1-0.7c-0.1-1.2-0.3-2.2-0.6-3q-0.3-1.4-0.7-2.5-0.4-1.2-0.8-2.4-0.5-1.2-1-2.4c-1-2.4-2.1-4.8-3.5-7.6l-0.5-0.9c-0.9-1.9-2-4.1-3-6.2-0.4-0.9-1-2.3-1.5-3.6-0.5-1.4-0.9-2.5-1.2-3.5-0.5-1.6-0.9-2.9-1.1-4.1q-0.2-1-0.4-2.1v-0.4c0 0-0.1 0-0.1 0q0 0 0 0c-0.3 0.9-0.5 1.5-0.7 2.1q-0.1 0.6-0.3 1.3-0.1 0.6-0.2 1.2-0.1 0.9-0.1 1.6-0.1 0.8 0 1.6 0 0.8 0.1 1.6 0 0.6 0.1 1.2c0.2 1.2 0.4 2.6 0.8 3.8 0.3 1.1 0.6 2.3 1 3.5l0.5 1.8q0.4 1.1 0.7 2.1v0.2c0.3 1 0.7 2.2 1 3.4 0.4 1.3 0.7 2.6 0.9 4.1 0.2 1.1 0.3 2.2 0.4 3.5 0.3 2.9 0.4 5.5 0.3 8-0.1 2.8-0.3 5.3-0.6 7.7-0.4 2.8-1 5.4-1.7 7.8-0.8 2.6-1.7 5-2.8 7.3-0.6 1.4-1.2 2.5-1.7 3.5q-0.6 1-1.2 2-0.4 0.8-0.9 1.6-0.1 0.1-0.2 0.1c-0.2-0.1-0.2-0.2-0.2-0.3 0.1-1.7 0.1-3.4 0.1-5.2q0-1.1-0.1-2.2-0.1-1-0.2-2-0.2-1.6-0.6-2.8-0.2-0.8-0.5-1.6-0.2-0.6-0.4-1.2c-0.5-1.2-1.1-2.2-1.7-3.1q-0.5-0.9-1-1.7-0.6-0.9-1.3-1.8c-1.8-2.4-3.1-4.5-4.2-6.5q-0.4-0.8-0.8-1.7-0.4-0.8-0.8-1.7-0.6-1.4-1.1-2.8c-0.4-1.3-0.8-2.5-1.1-3.8q-0.3-1.2-0.5-2.3c-0.3 2.1-0.4 4.4-0.5 6.2q0 1.6-0.1 3-0.1 1.4-0.2 2.8-0.1 1.4-0.3 2.8c-0.1 0.9-0.2 1.7-0.4 2.4-0.2 1-0.4 1.8-0.6 2.6-0.2 0.6-0.5 1.4-0.8 2.1-0.3 0.7-0.7 1.5-1.3 2.3q-0.5 0.9-1.1 1.6-0.7 0.9-1.4 1.7-0.9 1-1.8 1.9l-0.4 0.4-0.9 1c-0.9 0.9-2 2-2.9 3.2-0.4 0.5-0.7 0.9-0.9 1.3-0.2 0.3-0.3 0.5-0.4 0.7q-0.2 0.3-0.3 0.7-0.2 0.4-0.3 0.8-0.1 0.3-0.1 0.7c0 0.2 0 0.4 0 0.6q0 0.1 0 0.3 0 0.2 0.1 0.4 0.1 0.2 0.1 0.4 0.2 0.4 0.3 0.6 0.2 0.3 0.3 0.5l0.1 0.1 0.1 0.1c0.1 0.1 0.3 0.4 0.5 0.5q0.2 0.3 0.5 0.5l0.2 0.1q0.9 0.7 1.8 1.2 0.6 0.3 1.2 0.6 0.4 0.2 0.8 0.3l0.1 0.1h0.1l0.2 0.1q0.3 0.1 0.7 0.3c1.2 0.4 2.6 0.9 4.1 1.3l0.8 0.2 0.1 0.1h0.2q1.2 0.4 2.5 0.8 1 0.4 1.9 0.7 0.7 0.3 1.4 0.6 1.6 0.8 2.7 1.8c0.7 0.5 1.2 1 1.6 1.4 0.5 0.6 0.8 1 1.1 1.4 0.5 0.7 0.9 1.3 1.2 1.9l0.1 0.1 0.1 0.2q0.2 0.4 0.4 0.8 0.3 0.6 0.6 1.2 0.3 0.6 0.5 1.2 0.2 0.7 0.4 1.3c0.3 1 0.5 1.8 0.6 2.5 0.1 0.5 0.3 1.3 0.3 2.2 0.1 1.1 0.2 1.9 0.2 2.6 0 1.2 0 2.2-0.1 3.1q-0.1 1.1-0.2 2.2-0.5 2.8-1.2 5.2c-0.5 1.7-1.1 3.4-1.7 4.9-0.3 0.6-0.7 1.5-1.1 2.3-0.5 0.8-0.9 1.5-1.3 2.1-0.5 0.8-1 1.4-1.4 2-0.4 0.5-0.9 1.1-1.5 1.7-0.9 0.9-1.9 2-3.1 3q-0.8 0.7-1.6 1.4l-0.3 0.3-0.5 0.4q-0.7 0.7-1.4 1.3-0.9 0.8-1.8 1.7-0.5 0.5-0.9 0.9-0.3 0.4-0.6 0.7l-0.2 0.3c-0.5 0.6-0.8 1.1-1.1 1.7-0.4 0.6-0.8 1.2-1 1.7q-0.5 0.9-0.9 1.8-0.7 1-1.5 2-0.5 0.5-1.1 0.9-0.4 0.2-0.7 0.4-0.3 0.1-0.7 0.1-0.4 0-0.7-0.1-0.5-0.1-1-0.3-0.5-0.3-0.9-0.7-0.5-0.5-0.9-1-0.3-0.7-0.6-1.3-0.1-0.6-0.2-1.3-0.2-0.7-0.3-1.4 0-1.1 0-2.4v-0.7q0-0.7 0-1.4 0-1-0.1-2 0 0 0 0.1c-0.1-1.4-0.3-2.8-0.8-4.1q-0.2-0.5-0.5-1-0.2-0.5-0.5-0.9-0.5-0.6-1-1.1-0.5-0.5-1-0.9-0.5-0.5-1.1-0.9 0.2 1 0.3 2.1 0.2 0.9 0.3 1.8 0 0.1 0 0.1 0.2 1.5 0.3 2.8 0 1.5-0.1 3c-0.1 0.8-0.3 1.5-0.4 2.2l-0.2 0.8q-0.2 1.3-0.5 2.9-0.4 2.9-0.4 5.7 0 1.5 0.2 3c0.1 1 0.2 2 0.3 2.9v0.2q0.2 1.4 0.4 2.8 0.3 1.8 0.6 3.7c0.6 4.9 1.1 10.2 0.5 15.5-0.2 1.5-0.5 3-0.9 4.5-0.3 1.1-0.7 2.4-1.2 3.8-0.9 2.7-1.9 5.3-2.9 7.6l0.1-0.3q-0.8 2-1.7 3.9c-1.8 4.2-3.7 8.6-5.1 13-0.7 2.4-1.3 4.8-1.7 7.2q-0.3 1-0.5 2-0.1 0.7-0.3 1.5-0.1 0.7-0.2 1.5c-0.2 1.8-0.3 3.5-0.3 5.1 0 0.9 0.1 1.7 0.1 2.4q0.1 1.2 0.3 2.4 0.4 2.8 1.1 5.5c0.3 1 0.6 1.9 0.8 2.7q0.5 1.3 1.1 2.6c0.7 1.9 1.6 3.6 2.5 5.1 0.6 1 1 1.8 1.5 2.4q0.5 0.5 1 0.9c5.3 4.5 11.8 8.1 19.9 10.9 7.2 2.5 14.7 3.9 22.2 4h0.7c3.4 0 6.9-0.4 10.5-1 1.6-0.3 3.3-0.7 5.2-1.3 1.6-0.5 3.3-1.1 5.3-2 1.5-0.7 3.1-1.5 4.8-2.5 1.4-0.9 3-2 4.7-3.4q2.5-2 4.6-4.4l0.1-0.2v-0.2q0.5-0.9 0.9-1.7c0.5-1.3 0.9-2.4 1.1-3.4q0.2-0.7 0.4-1.5 0.1-0.5 0.2-0.9 0-0.3 0.1-0.6v-0.3c0.2-1.5 0.3-2.8 0.2-4q0-1.1-0.1-2.2z"/><path class="b" d="m554.2 286.9q0-0.1 0-0.1 0 0 0 0 0 0 0.1 0.1-0.1 0-0.1 0z"/><path fill-rule="evenodd" class="c" d="m576.4 307.7"/><path class="d" d="m593.1 263q-0.1 0-0.1 0-0.1 0.3-0.3 0.6-0.4 1.1-0.7 2.1-0.1 0.5-0.2 1.1-0.1 0.5-0.1 1-0.2 1.5-0.3 3.1 0 1.4 0.1 2.9 0 1.1 0.1 2.1c0.1 1.4 0.1 2.6 0.1 3.9 0.1 0.8 0.1 1.8 0 2.9-0.1 1-0.2 1.8-0.3 2.6q-0.3 1.4-0.7 2.7-0.4 1.3-0.9 2.4-1.2 2.4-2.8 4.7c-0.9 1.3-2 2.7-3.3 4.2q-1.5 1.7-3 3.5l-0.6 0.7q-1 1-1.9 2-0.9 1.1-1.8 2.2-1.4 1.9-2.5 3.8-0.5 1-1 2-0.4 0.9-0.8 1.7-0.7 1.8-1.5 4.1-0.4 1-0.7 2.1l-0.3 0.6q-0.2 0.7-0.5 1.4c-0.6 1.7-1.1 3-1.6 4.2q-0.3 0.8-0.6 1.5-0.2 0.5-0.4 1c-0.4 0.8-0.9 1.7-1.4 2.5q-0.3 0.6-0.7 1.1-0.4 0.5-0.8 0.8c-0.2 0.2-0.5 0.4-0.8 0.6q-0.1 0-0.2 0-0.2 0.1-0.3 0.1-0.1 0-0.3 0h-0.1q-0.2 0-0.4-0.1c-0.2-0.1-0.3-0.1-0.5-0.2q-0.2-0.1-0.4-0.3l-0.1-0.2q-0.2 0.3-0.3 0.5-0.1 0.2-0.2 0.5-0.4 1.1-0.7 2.1-0.1 0.6-0.2 1.1v0.1l-0.1 0.7q-0.2 1.5-0.2 3 0 1.3 0 2.7v0.3c0 2 0 3.9-0.3 5.7q-0.4 2.5-1.3 4.8-0.8 2.2-1.9 4.3c-0.7 1.4-1.5 2.7-2.5 4.3q-0.6 0.9-1.3 1.9l-0.4 0.6-1 1.6c-0.8 1.2-1.7 2.6-2.5 4.2-0.9 1.4-1.6 2.8-2.1 4.2q-0.7 1.7-1.1 3.1-0.3 1-0.5 1.8-0.1 0.8-0.2 1.6c-0.2 1.5-0.3 2.9-0.3 4.2q0 0.9 0.1 1.9 0.1 1 0.2 1.9 0.3 2.2 0.9 4.2c0.2 0.8 0.4 1.4 0.6 2q0.4 0.9 0.7 1.8 1 2.3 2.2 4.3 1.2 2 2.7 3.9 2 2.6 4.2 4.7 1 1 2 1.8c2.5 1.3 5.2 2.4 8.1 3.4 7.2 2.5 14.7 3.9 22.2 4h0.7c3.4 0 6.9-0.4 10.5-1 1.7-0.3 3.4-0.7 5.2-1.3 1.5-0.5 3.2-1.1 5.3-2 1.5-0.7 3-1.5 4.8-2.5 1.2-0.8 2.4-1.6 3.8-2.7q0.7-1 1.2-1.9 0.4-0.6 0.7-1.2 0.3-0.6 0.5-1.2 0.5-1.2 0.8-2.3 0.2-0.6 0.3-1.2 0.2-0.7 0.3-1.4c0.1-1.1 0.2-2.3 0.1-3.5 0-1.2-0.1-2.5-0.3-3.8q-0.4-2.9-1.1-5.5-0.3-1.4-0.7-2.5-0.4-1.2-0.9-2.4-0.5-1-0.8-1.7-0.5-0.8-1-1.6c-0.5-1-1.2-1.9-2-3-1.2-1.5-2.3-2.8-3.6-4.3l-0.4-0.4-0.2-0.2c-1-1.2-2.1-2.4-3.1-3.6-1.3-1.7-2.3-3-3.1-4.3-1-1.8-1.7-3.4-2.1-4.9-0.2-0.7-0.4-1.2-0.4-1.7q-0.2-0.9-0.4-1.8-0.2-1.5-0.2-3.2 0-0.8 0.1-1.7 0.1-0.8 0.2-1.6 0.2-1.5 0.5-3.1c0.5-1.9 1.1-3.9 2-6.4q0.6-1.6 1.3-3.2v-0.2q0.5-1.2 1-2.4-0.1-0.1-0.2-0.1-0.1 0-0.1 0c0 0-0.2-0.1-0.2-0.1q-0.1 0-0.2-0.1-0.1 0-0.2 0c-0.2 0-0.3 0-0.3 0q-0.3 0.1-0.5 0.2-0.3 0.1-0.6 0.2c-0.9 0.4-1.7 0.8-2.4 1.3l-0.1 0.1q-0.5 0.3-1.1 0.6c-0.3 0.1-0.5 0.3-0.8 0.4-0.1 0.1-0.2 0.1-0.3 0.1q-0.2 0.1-0.4 0.1-0.7 0.1-1.3 0.1-0.2 0-0.3 0c-0.6 0-1.1-0.1-1.5-0.2q-0.7-0.2-1.2-0.4-0.7-0.4-1.3-0.8-0.6-0.4-1-0.8-1-1-2-2.5c-0.4-0.5-0.8-1.1-1.1-1.7q-0.4-0.8-0.8-1.6-0.3-0.7-0.5-1.5c-0.2-0.6-0.4-1.1-0.5-1.6q-0.6-3-0.5-6 0.2-3.1 0.9-6.2 0.7-3.1 1.9-6.1 1.1-2.9 2.4-5.6v-0.1q0.5-1 1.1-2.1 0.5-0.9 1.1-1.8 0.8-1.3 1.6-2.6l0.3-0.3 0.8-1.3c2-3.1 4-6.2 5.4-9.6q0.6-1.3 0.9-2.4 0.2-0.7 0.3-1.4 0.2-0.5 0.2-1.1 0.1-0.9 0.1-1.6 0-0.7-0.1-1.4c0-0.3-0.1-0.7-0.2-1q-0.1-0.5-0.3-1-0.3-0.6-0.6-1.2-0.4-0.6-0.8-1.2-0.6-0.7-1.2-1.4-0.6-0.6-1.3-1.2-0.4-0.4-0.9-0.8-0.9-0.8-1.8-1.6c-0.3-0.3-0.8-0.8-1.2-1.3-0.5-0.6-0.8-1-1.1-1.4q-0.2-0.4-0.5-0.9-0.2-0.4-0.4-0.8-0.2-0.6-0.4-1.2 0 0 0 0z"/><path class="d" d="m614.7 268.8q-0.2-0.9-0.7-2-0.3-0.8-0.7-1.6-0.5-0.8-1.2-1.6-1.1-1.4-2.8-2.4c-0.8-0.4-1.7-0.7-2.5-1q-1.5-0.4-2.9-0.6c-0.6-0.1-1.2-0.2-1.8-0.2q-0.5 0-1 0.1-0.5 0.1-0.9 0.4-0.3 0.2-0.5 0.6c-0.3 0.6-0.3 1.1-0.2 1.5 0.2 0.6 0.6 1.2 0.9 1.6 0.5 0.6 1.1 1.2 1.5 1.6 0.8 0.8 1.7 1.5 2.6 2.2q0.7 0.5 1.4 1.1 0.7 0.5 1.3 1.1c0.4 0.4 0.8 0.8 1 1.1 0.2 0.5 0.3 0.9 0.3 1.2q0.1 0.3 0.1 0.7l0.1 0.7c0 0.5 0.1 1 0.3 1.5q0.1 0.3 0.2 0.6 0.1 0.2 0.4 0.4c0.4 0.4 0.9 0.6 1.4 0.6q0.1 0 0.2 0 0.8-0.1 1.5-0.7 0.6-0.5 1.2-1.3 0.5-0.7 0.7-1.7 0.3-0.8 0.3-2c0-0.5-0.1-1.2-0.2-1.9z"/><path class="d" d="m569.3 225.6c-0.1-0.1-0.2-0.2-0.3-0.3q-0.2-0.1-0.5-0.1-0.1 0-0.1 0-0.4 0-0.7 0.1c-0.4 0.1-0.7 0.3-1 0.5q-0.5 0.3-1 0.7-0.5 0.4-1 0.9-1 0.9-1.7 1.8-0.2 0.4-0.4 0.7-0.3 0.7-0.3 1.7 0 0.4 0 0.8 0.1 0.3 0.2 0.6 0 0 0 0.1 0.2 0.4 0.3 0.8 0.2 0.3 0.5 0.7 0.1 0.2 0.3 0.3 0.2 0.2 0.4 0.4 0 0 0 0 0 0.1 0.1 0.1 0.4 0.6 1.1 1 0.6 0.4 1.4 0.7 0.5 0.1 1 0.1 0.4 0 0.7-0.1 0.2 0 0.3-0.1c0.1-0.1 0.1-0.2 0.1-0.3q-0.3-0.7-0.7-1.5l-0.1-0.2q-0.3-0.5-0.5-1-0.2-0.4-0.3-0.8 0-0.4 0-0.8 0.1-0.6 0.4-1.3 0.2-0.4 0.5-0.8l0.2-0.4q0.3-0.5 0.6-1c0.3-0.4 0.5-0.8 0.7-1.2 0.1-0.3 0.3-0.8 0.2-1.2q0-0.5-0.4-0.9z"/><path class="e" d="m602.5 410.3q0 0 0 0 0 0 0 0z"/><path class="f" d="m581.6 335q-0.1 0-0.1 0-0.1 0.4-0.3 0.7-1.1 2.7-1.7 5.7c-0.4 1.6-0.7 3.3-1 5.6q-0.2 1.7-0.4 3.4l-0.1 0.6q-0.1 1-0.3 2.1v0.2 0.2q-0.1 0.7-0.3 1.5-0.3 1.8-0.9 3.4-0.6 1.5-1.3 2.8c-0.8 1.6-1.8 3-2.7 4.4l-0.8 1.2c-0.7 1.1-1.3 2-1.8 2.8q-0.9 1.5-1.5 3c-0.1 0.4-0.3 0.9-0.3 1.2q-0.2 1-0.4 1.9l-0.2 1.4v0.3q-0.2 1.4-0.5 2.8c-0.1 0.9-0.3 1.6-0.5 2.2-0.1 0.7-0.3 1.3-0.5 1.8-0.2 0.4-0.4 0.9-0.8 1.3q-0.4 0.5-0.9 0.5-0.2 0.1-0.4 0.1-0.6 0-1.2-0.4-0.7-0.3-1.3-1.2-0.5-0.7-0.9-1.8-0.5-1.1-0.8-2.4c-0.4-1.5-0.6-3-0.9-4.9q-0.1-1.1-0.2-2.1c-0.7 2.5-1.3 5.3-1.8 8.8-0.4 3.2-0.7 6.7-0.9 10.7q-0.1 2.6-0.2 5.3v0.6 0.6q0 0.5 0 1.1 0 0.9 0.1 1.9 0.3 1.5 0.7 3 0.4 1.5 1 2.9 0.7 1.5 1.4 2.9 0.8 1.3 1.8 2.6 1 1.2 2 2.2 0.7 0.8 1.4 1.4l0.3 0.1q0.3 0.1 0.6 0.2c7.3 2.5 14.8 3.9 22.3 4h0.7c3.4 0 6.9-0.3 10.5-1 1.7-0.3 3.4-0.7 5.2-1.3 1.5-0.4 3.2-1.1 5.3-2 1.5-0.6 3-1.5 4.8-2.5q0.4-0.2 0.7-0.5 0.6-0.9 0.9-1.7c0.3-0.6 0.5-1.3 0.6-1.8q0.2-0.9 0.4-1.9 0.1-1.1 0.1-2.3 0-1.1-0.2-2.3c-0.2-1.8-0.7-3.6-1.1-5.2l-0.2-0.7c-0.3-1.2-0.7-2.6-1-4q-0.4 0.4-0.7 0.7-0.5 0.5-0.9 1c-0.8 1.1-1.5 2.3-2.3 3.8q-0.4 0.9-0.8 1.8-0.5 1-1.1 2.1-0.5 1-1.1 1.9-0.6 1.1-1.2 1.9-0.7 0.9-1.5 1.7-0.9 0.9-1.9 1.6 0 0-0.1 0-0.1 0-0.2 0c0-0.1 0-0.2 0-0.3q0.6-1 1-1.7 0.4-0.8 0.7-1.6 0.6-1.3 0.9-2.5 0.3-1 0.5-2.3 0.1-1.3 0.1-2.5 0-1.2-0.2-2.5-0.2-1.9-0.8-3.9c-0.4-1.2-0.9-2.5-1.5-3.8-0.9-2.2-2-4.4-3-6.4l-0.4-0.9-0.7-1.3c-1-2.2-2.2-4.7-3.1-7.3q-0.2 2-0.6 3.8c-0.4 1.5-0.9 3-1.6 4.6-0.6 1.4-1.3 2.7-2 4l-0.2 0.3c-0.7 1.4-1.5 3-2.1 4.5-0.4 0.8-0.6 1.5-0.9 2.2q-0.4 1.2-0.7 2.4c0 0.1-0.1 0.1-0.2 0.1-0.1 0-0.2 0-0.2-0.1q-0.8-2.7-0.7-5.7c0-1.7 0.2-3.6 0.6-5.8q0.4-2.4 1-5c0.5-2.2 1-4.6 1.3-6.9 0.2-1.3 0.2-2.5 0.3-3.6q0-1.8-0.2-3.5-0.2-1.4-0.5-2.4-0.3-1-0.8-2.2-0.5-1.3-1.5-3-0.4-0.8-0.8-1.6l-0.8-1.2c-0.5-0.9-1.1-2-1.6-3.1-0.5-1.1-0.8-2.1-1.1-3.2q-0.5-1.8-0.7-3.6c-0.1-1.1-0.2-2.3-0.2-3.5q0-1.5 0-3.1v-0.3l0.1-0.5q0-1.2 0-2.5 0 0 0 0z"/><path class="a" d="m491.6 188.3q-1.2 1.8-2.1 4.1c-1.1 2.6-1.9 5.7-2.4 9.6-0.4 3.3-0.5 6.6-0.6 9.9-0.1 3.4-0.2 6.9-0.7 10.4-0.3 1.9-0.7 4.4-1.7 6.8q-0.7 1.6-1.7 3c-0.9 1.1-1.9 2.1-3.1 3.1-2.8 2.1-6.1 3.6-9.2 5.1q-1.7 0.8-3.3 1.7c-1.1 0.6-2.1 1.1-3.1 1.7-1 0.6-2 1.3-3.1 2.1-0.9 0.7-1.8 1.6-2.7 2.7-1.1 1.1-2.1 2.1-3.2 2.9-0.8 0.6-1.4 1-2.1 1.3q-0.5 0.2-1 0.3-0.1 0-0.3 0-0.2 0-0.3 0-0.2 0-0.5-0.1-0.2-0.1-0.4-0.2-0.2-0.2-0.4-0.5 0-0.1-0.1-0.2-0.3-0.4-0.6-0.9-0.1-0.2-0.2-0.4-0.2-0.5-0.4-0.9-0.3-0.7-0.4-1.3-0.2-0.5-0.3-0.9c-0.3-1.6-0.4-3.2-0.2-4.8q0.1-1.6 0.5-3.2 0.1-0.7 0.3-1.3 0.5-1.9 1.1-3.7 0.1-0.4 0.3-0.8-0.1 0-0.2 0.1c-1.1 0.9-2.1 1.8-3.1 2.9-0.9 1-1.8 2.2-2.7 3.5-1.9 2.7-3.2 5.7-4.2 8.2-1.1 2.6-2.1 5.4-3 8l-0.3 0.9c-1 2.7-2 5.8-3.3 8.7 0 0 0 0.1 0 0.1 0 0 0 0 0 0l-0.1 0.1c-1.1 2.6-2.2 4.7-3.4 6.5-0.8 1.3-1.6 2.5-2.4 3.5q-1.2 1.7-2.5 3.4l0.1-0.1q-1.4 1.7-2.8 3.4c-2.4 3.2-4.9 6.4-7.2 9.7-1.5 2.2-2.8 4.5-3.8 6.8-1.1 2.4-1.9 4.8-2.4 7.3-0.5 2.7-0.6 5.5-0.3 8.4 0.1 1.4 0.3 2.8 0.6 4.4q0.5 2.6 1.4 4.9 0.7 1.8 1.7 3.7c0.7 1.3 1.6 2.6 2.3 3.5 1.4 1.7 3 3.4 5.4 5.4 1.2 1 2.6 2 3.8 3q1.6 1.2 3.1 2.4c2.6 2.1 4.6 4.1 6.3 6.2q0.8 1.1 1.4 2.1c0.5 0.7 0.8 1.5 1.3 2.4q0.7 1.8 1 3.4 0.1 1 0 1.9-0.2 1.2-0.8 2.6-0.1 0.2-0.2 0.4-0.5-0.4-0.9-0.8-0.7-0.8-1.4-1.6c-0.5-0.5-1.1-0.9-1.7-1.4-0.6-0.4-1.3-0.9-1.9-1.3-1-0.6-2.1-1.3-3.1-1.9q-1.4-0.8-2.8-1.7-1.5-0.8-2.9-1.7c-1.3-0.9-2.5-1.8-3.4-3q-0.4-0.5-0.7-1-0.2-0.4-0.4-0.9 0 0-0.1 0 0.1 1.7 0.4 3.6c0.3 1.6 0.8 3.2 1.2 4.6l0.3 1q0.6 1.8 1.1 3.6c0.5 1.5 0.8 3 1 4.5 0.3 2.3 0.3 4.8-0.1 7.5-0.2 1.7-0.5 3.3-0.8 4.7q-0.6 2.6-1.1 5.2-0.4 2.4-0.5 4.8-0.2 2.7 0.2 5.3c0.3 2.4 0.9 4.9 2 7.4q1.2 3.2 3.1 6.1c1.2 1.8 2.6 3.5 4.2 5.1 1.4 1.5 3.1 2.9 5 4.3 3.4 2.3 7.4 4.3 12 5.8 4.1 1.3 8.7 2.2 13.6 2.5q2 0.1 4 0.1c3.2 0 6.5-0.2 9.8-0.7 4.5-0.7 8.8-1.9 12.9-3.5q3.1-1.3 5.9-2.8c2.2-1.3 4.3-2.8 6.4-4.6 1.8-1.6 3.5-3.4 5.1-5.5 1.5-1.9 2.8-4 3.9-6.2q1.6-3.2 2.6-6.8c0.6-2.2 1.1-4.5 1.4-7.3 0.6-4.7 0.3-9.6-0.8-14.7-0.5-2.3-1.2-4.7-2.2-7.1-0.9-2.4-2-4.7-3.3-6.9-1.2-1.9-2.6-3.9-4.3-5.9q-1.1-1.3-2.5-2.7c-0.8-0.8-1.7-1.4-2.6-2-0.9-0.6-2-1.1-3-1.7q-1.7-0.8-3.3-1.6c-2.1-1-4.2-2-6.1-3.4-0.9-0.7-1.6-1.4-2.2-2.1q-0.6-0.8-1-1.7-0.3-0.8-0.5-1.9-0.1-1.1 0-2.3 0.3-1.6 0.9-3.1c0.6-1.3 1.3-2.5 2.2-3.7q0.8-1 1.6-1.8c0.4-0.5 0.9-1 1.6-1.5q0.5-0.4 1-0.7 0.6-0.4 1.2-0.6l0.2-0.1q0 0 0-0.1-0.3 0-0.6 0-0.6-0.1-1.3-0.1 0.1 0 0.1 0-0.7 0-1.5 0.1-0.7 0.2-1.4 0.4 0 0 0 0-1.1 0.3-2.1 0.8-0.9 0.5-1.7 1-1.5 1-2.8 2.2c-2 1.8-3.9 3.9-5.6 6.1q-1 1.2-1.9 2.3-1 1.2-2 2.3c-0.7 0.8-1.4 1.5-2.3 2.2q-0.6 0.5-1.2 0.9-0.6 0.3-1.2 0.6c-0.8 0.3-1.7 0.5-2.6 0.3q-0.5 0-0.9-0.2-0.5-0.1-0.9-0.3-0.5-0.2-1-0.6-0.6-0.5-1.1-1-0.5-0.8-1-1.8-0.6-1.5-0.8-3.3-0.3-2.5 0-5.3 0.5-3.1 1.6-5.9c0.6-1.5 1.4-2.7 2.2-3.9q1-1.3 2.2-2.2 0.9-0.7 1.9-1.1 0.4-0.2 0.8-0.3c0.5-0.2 1-0.2 1.4-0.3q1.1-0.1 2.4-0.1c1.4 0 2.8 0.1 4.5 0.3l0.7 0.1c1.8 0.1 3.6 0.3 5.4 0.3q0.8 0 1.5 0 1.7-0.1 3.4-0.6c0.6-0.2 1.1-0.4 1.7-0.7 0.7-0.3 1.2-0.6 1.7-1q1.4-0.9 2.6-2.3 1.1-1.2 1.8-2.7c0.9-1.7 1.4-3.7 1.6-6 0-1 0-2.1-0.1-3.3q-0.2-1.6-0.7-3.3c-0.6-2.5-1.7-4.7-2.6-6.4q-0.5-1.1-1.1-2.1c-0.8-1.4-1.6-2.9-2.2-4.5q-0.4-0.9-0.7-1.8-0.3-1.1-0.6-2.5-0.2-2.3 0-4.7 0.2-1.1 0.5-2.2 0.3-1.1 0.8-2.4c1.3-3 3.2-5.6 4.7-7.5l-0.1 0.1q1.1-1.4 2.2-2.7 0.7-1 1.5-1.9c1.4-1.8 2.6-3.5 3.7-5.2 2.1-3.4 3.5-6.9 4.3-10.3q0.5-2.5 0.6-5.3c0.1-1.5 0-3.3-0.3-5.3-0.6-4.3-2.1-8.3-3.5-11.6v0.1q-1.4-3.5-2.4-6.8-0.3-1-0.6-2-0.3-1-0.6-2.1c-0.6-2.6-0.9-5.1-1-7.7 0-2.6 0.2-5.2 0.7-7.8q0.3-1.8 0.9-3.7 0.2-0.6 0.4-1.2-1.3 1.3-2.4 2.9zm-69.5 98.6h0.1q-0.2 0.2-0.4 0.5 0.1-0.2 0.3-0.4v-0.1q0 0 0 0 0 0 0 0z"/><path fill-rule="evenodd" class="a" d="m481.9 319.7"/><path class="a" d="m456.5 175c-0.2 2.1-0.6 4.3-0.7 6.4q-0.3 3.2-0.3 6.4 0.1 3.1 0.5 6.2 0 0 0 0 0 0 0 0.1 0 0 0-0.1 0 0.1 0 0.1 0.3 2.5 0.9 5 0.5 2.1 1.3 4 0 0 0 0 0.5 1 1 2 0.6 1 1.2 1.8 0.6 0.8 1.3 1.5 0.8 0.8 1.7 1.4-0.1 0-0.1 0c1.2 0.9 2.4 1.7 3.7 2.4 1.2 0.7 2.5 1.4 3.7 2.2 0.9 0.6 1.8 1.3 2.6 2 0.7 0.7 1.4 1.5 2 2.4q0.9 1.2 1.3 2.7 0.5 1.6 0.5 3.3 0 1-0.1 1.9-0.1 1-0.4 1.9-0.2 0.6-0.4 1.2 1.9-2.5 3.3-5.7 0.8-1.8 1.3-3.6 0.4-1.7 0.7-3.7 0.1-1.8 0-3.6-0.2-1.9-0.7-3.5-0.3-0.8-0.7-1.7c-0.4-0.6-0.8-1.2-1.2-1.7-0.5-0.6-1.2-1.2-1.8-1.8q-0.4-0.4-0.8-0.8-0.6-0.5-1-1-0.5-0.7-0.8-1.5-0.4-0.9-0.6-2.1c-0.1-1.1-0.1-2.1-0.1-3.1 0-0.9 0-1.7-0.1-2.5q-0.1-1.6-0.5-2.8-0.5-1.4-1.4-2.6c-0.9-1.1-2-2-3.7-3q-0.6-0.3-1.2-0.6c-1-0.6-2.1-1.2-3-1.9l0.1 0.1q-1.8-1.4-3.2-3.2l0.1 0.1q-1.4-1.9-2.4-4.1c-0.7-1.7-1.2-3.4-1.6-5.4 0 1.6-0.2 3.3-0.4 4.9z"/><path class="a" d="m494.7 269.3l-0.4 0.3c-0.6 0.6-1.3 1.3-2 2.1q-1 1.2-1.6 2.4c-0.4 0.8-0.7 1.8-0.8 2.8q-0.1 0.6-0.1 1.3c0 0.5 0.1 1 0.1 1.5 0.2 0.9 0.5 1.9 0.7 2.7q0.2 0.7 0.5 1.4 0.2 0.6 0.4 1.3 0.5 1.6 0.7 3l0.1 0.4q0 0.1 0 0.1 0.9-0.8 1.8-1.8 0.4-0.5 0.8-1 0.3-0.5 0.5-1.1 0.3-0.6 0.5-1.1 0.2-0.6 0.3-1.2 0.1-1 0.1-2 0-1.1-0.1-2.1 0 0 0 0c-0.1-1.1-0.3-2.1-0.4-3.2-0.1-1-0.3-2-0.3-2.9 0-1 0-2.1 0.2-3q0.1-0.7 0.3-1.3-0.7 0.7-1.3 1.4zm1.5 9q0 0 0 0 0 0 0 0z"/><path class="a" d="m494.1 286.8q0 0 0 0 0 0 0 0z"/><path class="a" d="m450.7 220.3c-0.3 0.3-0.4 0.6-0.5 0.9-0.1 0.6 0 1.1 0.1 1.6 0.2 0.9 0.5 1.7 0.8 2.4q0.4 0.9 0.8 1.8 0.5 0.7 0.9 1.5 0.3 0.3 0.5 0.6 0 0 0.1 0 0.1 0.1 0.2 0.1 0.1 0 0.1-0.1c0.2 0 0.3-0.1 0.3-0.2q0.6-0.8 0.9-1.7 0.3-0.8 0.3-1.8c-0.1-1-0.4-2.1-0.9-3-0.5-0.9-1.1-1.5-1.8-2q-0.2-0.1-0.5-0.2-0.2-0.1-0.5-0.1-0.1 0-0.1 0-0.4 0-0.7 0.2z"/><path class="a" d="m501.9 320.8c-0.6 0.2-1 0.6-1.4 1-0.7 0.6-1.2 1.3-1.6 1.8q-0.5 0.8-1 1.8-0.2 0.3-0.4 0.7-0.4 0.9-0.7 1.8 0 0 0 0-0.1 0.6-0.3 1.2 0 0.5-0.1 1.1c1-0.7 2-1.3 3-2q0 0-0.1 0 1.2-0.8 2.3-1.7 0.5-0.5 1.1-1c0.5-0.4 1-1 1.4-1.7q0.2-0.4 0.3-0.7 0-0.2 0-0.4 0-0.2-0.1-0.4-0.4-1-1-1.4-0.3-0.2-0.8-0.2-0.3 0-0.6 0.1z"/><path class="a" d="m473.7 156.4v-0.1q0 0 0 0 0 0.1 0 0.1z"/><path class="a" d="m473.4 158.6q-0.3 1.3-0.5 2.5 0 0 0 0 0 0 0 0-0.1 0.8-0.1 1.6 0 0.8 0.1 1.5 0 0 0 0 0.1 0.8 0.3 1.6 0.3 0.9 0.6 1.8v-0.1q0.5 1.2 1.2 2.3l0.1 0.2q0 0 0.1-0.1 0.5-1 0.8-1.9 0.2-0.8 0.4-1.7 0.1-0.8 0-1.6 0-0.7-0.2-1.5c-0.1-0.9-0.4-1.7-0.7-2.5l-0.1-0.3q-0.3-0.8-0.6-1.6-0.2-0.5-0.3-1-0.1-0.2-0.1-0.4l-0.1-0.3q-0.1-0.2-0.1-0.4 0 0-0.1-0.1-0.4 1-0.7 2z"/><path class="a" d="m473.7 156.4v-0.1q0 0 0 0 0 0.1 0 0.1z"/><path class="b" d="m483.9 241.8c-0.7 1.1-1.4 2.1-2.2 3.1-0.8 1.1-1.6 2.1-2.6 3q-0.6 0.7-1.4 1.4-0.6 0.6-1.3 1.1-1.7 1.3-3.5 2.3-1.6 1-3.3 1.9-1.7 0.9-3.3 1.9-0.8 0.5-1.6 1.1-0.8 0.5-1.5 1.1-0.4 0.3-0.8 0.6-0.3 0.3-0.5 0.5-0.5 0.6-1.1 1.2-1.4 1.7-2.8 3.4c-1 1.3-2.1 2.5-3.3 3.8q-0.8 0.8-1.6 1.7-0.8 0.7-1.7 1.4-0.7 0.7-1.6 1.2c-0.5 0.3-0.9 0.6-1.4 0.8q-0.4 0.1-0.8 0.2-0.2 0-0.5 0-0.3 0.1-0.7 0-0.2-0.1-0.4-0.1-0.1-0.1-0.2-0.1-0.2-0.1-0.4-0.3-0.1-0.1-0.3-0.2 0-0.1-0.1-0.1c-0.2-0.2-0.3-0.5-0.4-0.8q-0.1-0.2-0.2-0.5 0-0.3-0.1-0.6 0-0.4 0-0.9c0-0.9 0-1.7 0.1-2.6q0-0.6 0-1.3 0-0.3 0-0.6-0.1 0.1-0.2 0.2-1.1 0.9-2.1 1.9-0.4 0.4-0.8 0.9-0.4 0.5-0.8 0.9-1.1 1.5-2 3.1-0.5 0.9-0.9 1.8-0.4 0.8-0.7 1.6 0 0 0 0c-1.2 2.8-2.1 5.7-2.9 8.6q-0.6 2.2-1.3 4.5-0.6 2.1-1.2 4.2-0.7 2-1.6 4-0.4 1-0.9 2-0.3 0.4-0.5 0.8-0.2 0.3-0.3 0.5-0.2 0.2-0.3 0.4-0.4 0.5-0.8 0.9-0.3 0.3-0.7 0.6-0.7 0.6-1.5 1.1c-1.1 0.8-2.3 1.4-3.4 2.2q0 0 0 0v0.1q0 0 0-0.1 0 0.1 0 0.1 0 0 0 0-0.4 0.3-0.8 0.7-0.3 0.2-0.5 0.5-0.2 0.1-0.3 0.3 0 0 0 0 0 0 0 0 0 0 0 0 0 0 0 0 0 0 0 0 0 0 0 0-0.3 0.4-0.5 0.8-0.2 0.4-0.4 0.8-0.2 0.7-0.4 1.3-0.2 0.6-0.2 1.2 0 0 0 0-0.2 1-0.1 2 0 0.5 0 1 0 0.5 0.1 1 0 0 0 0 0.3 1.9 0.8 3.7 0.3 0.9 0.6 1.8 0.3 0.8 0.6 1.6 0-0.1 0-0.1c1 2.4 2.3 4.7 3.9 6.8 1.4 1.8 2.9 3.4 4.5 5 1.6 1.5 3.3 3 4.9 4.5 1.6 1.4 3.2 2.9 4.8 4.5 1.4 1.4 2.8 3 4 4.6q0.9 1.2 1.6 2.4 0.3 0.6 0.6 1.2 0.3 0.6 0.5 1.2c0.7 1.6 1.2 3.3 1.4 5.1q0.2 1.6 0.2 3.2-0.1 1.4-0.3 2.9-0.2 1.2-0.5 2.4-0.3 1.2-0.7 2.4-0.4 1.4-1 2.8c-0.4 0.8-0.8 1.6-1.3 2.4q-0.3 0.6-0.8 1.1-0.3 0.5-0.8 0.9-0.3 0.3-0.7 0.5-0.4 0.3-0.9 0.4-0.4 0.1-0.8 0.2-0.3 0-0.6 0-0.6 0-1.2-0.1-0.5-0.2-1.1-0.5-0.6-0.3-1.1-0.7-0.6-0.4-1.1-0.9-0.6-0.5-1.1-1c-0.7-0.6-1.3-1.2-2.1-1.8q-0.1-0.1-0.2-0.2 0.2 0.7 0.4 1.4 0.2 0.5 0.3 1.1 0.1 0.3 0.1 0.6 0 0.2 0 0.5 0 0.2 0 0.4 0 0.5-0.1 1-0.1 0.9-0.2 1.8c-0.3 2.6-0.6 5.3-1 7.9-0.3 2.8-0.7 5.6-0.8 8.5q-0.1 2.1-0.1 4.3 0.1 1 0.1 2 0.1 0.9 0.2 1.8 0 0.1 0 0.1 0 0 0-0.1 0 0 0 0 0.2 1.6 0.6 3.2 0.2 0.7 0.5 1.5 0.2 0.7 0.5 1.4 0.5 1.1 1.1 2.1 0.5 0.8 1.1 1.6 1 1.3 2.1 2.4 1.2 1.1 2.5 2.1 3 1.4 6.3 2.5c4.1 1.3 8.7 2.2 13.6 2.5q2 0.2 4 0.2c3.2 0 6.5-0.3 9.8-0.8 4.5-0.7 8.8-1.8 12.9-3.5q3.2-1.2 5.9-2.8c2.2-1.2 4.3-2.8 6.4-4.6q1.1-0.9 2.1-2 1-1.3 1.8-2.7 0.5-0.9 0.9-1.7 0.3-0.7 0.6-1.5v0.1q0.8-2 1.4-4 0.3-1.1 0.5-2.1 0.1-0.9 0.2-1.8 0.3-2.4 0.3-4.7 0-1.3-0.1-2.5-0.1-1-0.2-2-0.4-2.5-1-5-0.4-1.2-0.8-2.3-0.4-1.1-0.8-2.3v0.1q-0.9-2.1-2.1-4.1-0.6-1-1.2-2-0.6-0.9-1.3-1.7 0 0 0 0 0 0 0-0.1 0 0.1 0 0.1 0 0 0-0.1 0 0 0 0-1.2-1.5-2.6-2.9-1.3-1.4-2.9-2.7c-1-0.7-2.1-1.4-3.2-2q-1.8-0.9-3.6-1.7c-1.3-0.6-2.5-1.1-3.7-1.8-1.1-0.5-2.2-1.1-3.2-1.9q-0.7-0.5-1.3-1.1-0.7-0.6-1.3-1.3-0.6-0.7-1-1.4c-0.2-0.4-0.4-0.8-0.5-1.2q-0.2-0.8-0.3-1.6-0.1-0.9-0.1-1.8c0-1.1 0-2.2-0.1-3.3q0 0-0.1 0 0-0.3-0.1-0.7-0.1-0.2-0.2-0.4 0-0.2-0.1-0.3-0.1-0.1-0.1-0.2 0 0 0 0 0-0.1-0.1-0.1h0.1q-0.1 0-0.1 0 0 0 0 0 0-0.1-0.1-0.2-0.1 0-0.1 0-0.1-0.1-0.3-0.2 0 0-0.1 0-0.1-0.1-0.3-0.1 0 0-0.1 0-0.2-0.1-0.3-0.1-0.2 0-0.3 0-0.3 0.1-0.5 0.2-0.2 0-0.3 0.1-0.5 0.1-0.9 0.4-0.3 0.2-0.7 0.5-0.1 0.1-0.3 0.2c-0.8 0.7-1.5 1.4-2.2 2.1q-0.6 0.4-1.1 0.9-0.4 0.4-0.9 0.7-0.5 0.3-1 0.6-0.3 0.1-0.5 0.1-0.3 0.1-0.6 0.2-1.1 0.1-2.2 0.1-1.1 0-2.2-0.3-1-0.2-1.9-0.6-1-0.5-2-1.2-0.9-0.5-1.6-1.3-1.7-1.6-3-3.5-1.5-2.2-2.5-4.6-1-2.3-1.6-4.8-0.6-2.4-0.9-4.9c-0.2-1.6-0.3-3.2-0.2-4.7q0-1.1 0.2-2.2 0.1-0.9 0.4-1.8 0.2-0.8 0.6-1.6 0.2-0.7 0.5-1.3 0.7-1.4 1.7-2.7 0.9-1.2 2-2.2 1-1 2.1-1.7 1.4-0.9 2.8-1.6 1.3-0.6 2.6-1.1c2-0.8 4.1-1.3 6.2-1.8q1.6-0.4 3.3-0.7 1.6-0.4 3.2-0.7c1.7-0.5 3.5-1 5.2-1.7h-0.1q0.8-0.3 1.6-0.7 0.7-0.4 1.3-0.9 0 0 0 0 0 0 0 0 0 0 0 0.1 0.3-0.3 0.7-0.7 0.2-0.3 0.5-0.6 0.2-0.3 0.4-0.6 0.1-0.2 0.3-0.5 0.1-0.3 0.2-0.7 0.1-0.4 0.2-0.8 0 0 0 0.1 0-0.6 0-1.1 0-0.7-0.1-1.3 0 0.1 0 0.1c-0.2-2-0.9-3.8-1.7-5.7q0 0 0 0 0 0 0 0-0.6-1.3-1.2-2.7-0.4-0.8-0.8-1.6-0.5-0.9-0.9-1.9-0.3-0.8-0.6-1.6-0.3-0.9-0.6-1.8-0.5-1.8-0.7-3.6-0.3-1.7-0.3-3.3 0-1.7 0.2-3.5 0.1-1.5 0.5-3.1 0.3-1.6 0.8-3.1 1-3.2 2.5-6.3 1.5-3.2 3.4-6.3c1.8-3.1 3.7-6.2 5.7-9.2q-1 1.3-2 2.6zm-39.7 23.8q0 0 0 0.1 0-0.1 0-0.1zm-25.8 49.7q0 0 0 0 0 0 0 0z"/><path fill-rule="evenodd" class="b" d="m421.5 305.6"/><path fill-rule="evenodd" class="b" d="m472.6 342.1v-0.1z"/><path fill-rule="evenodd" class="b" d="m472.6 342.1"/><path class="b" d="m473.1 343.7q0.1 0 0.1 0 0 0-0.1 0z"/><path fill-rule="evenodd" class="b" d="m473.2 343.7z"/><path fill-rule="evenodd" class="b" d="m464.3 345.7z"/><path class="a" d="m473.7 156.4v-0.1q0 0 0 0 0 0.1 0 0.1z"/><path fill-rule="evenodd" class="b" d="m472.6 342.1v-0.1z"/><path fill-rule="evenodd" class="b" d="m464.3 345.7z"/><path class="d" d="m463.7 274.3q0 0-0.1 0.1c-0.8 1.7-1.9 3.7-3.1 5.7-1.5 2.4-3.1 4.3-4.9 6q-1.3 1.3-2.8 2.5-1.3 1-2.7 2-0.9 0.7-1.8 1.3c-1.3 0.9-2.6 1.9-3.9 2.8-1.3 1-2.2 1.8-3.1 2.6q-0.8 0.8-1.5 1.6-0.6 0.6-1.1 1.4-0.1 0-0.1 0c-0.2 0.3-0.4 0.5-0.5 0.8q-0.2 0.3-0.4 0.7-0.4 0.9-0.8 1.8-0.4 1-0.9 2-0.5 1.4-1.1 2.8c-0.4 0.8-0.8 1.7-1.2 2.5-0.5 0.9-0.8 1.5-1.2 2.1-0.4 0.5-0.9 1.2-1.4 1.6q-0.4 0.3-0.8 0.6-0.4 0.2-0.7 0.3-0.4 0.1-0.8 0.1c-0.4 0-0.6 0-0.8 0q-0.5-0.2-0.9-0.4-0.3-0.1-0.5-0.3-0.1 0.3-0.2 0.6-0.1 0.5-0.2 1-0.1 0.9-0.1 1.7 0.1 0.4 0.1 0.7 0 0.4 0.1 0.7 0.1 1 0.4 1.9v0.1q0.1 0.5 0.3 0.9 0.2 0.4 0.3 0.9 0.7 1.6 1.7 3.1c0.5 0.9 1.2 1.9 1.9 2.9 0.8 1 1.6 1.9 2.4 2.8q1.2 1.3 2.4 2.6 0.9 1 1.8 1.9 1.5 1.6 2.9 3.2c1.7 1.8 2.9 3.2 4 4.5 1.3 1.7 2.5 3.2 3.5 4.6 1.2 1.8 2.2 3.4 3 5.1q1.5 2.8 2.4 5.5 0.2 0.6 0.4 1.3 0.2 1.7 0 3.3 0 0 0 0.1c-0.2 1.4-0.6 2.8-1.2 4.3-0.6 1.4-1.4 2.8-2.4 4.4l-0.3 0.4q-0.2 0.4-0.5 0.8-0.3 0.6-0.7 1.1c-1.1 1.9-2.2 3.8-3.6 5.7l-0.1 0.1c-0.9 1.1-1.7 1.9-2.5 2.6q-0.6 0.4-1.2 0.7-0.3 0.1-0.7 0.2-0.1 0-0.3 0-0.2 0-0.3 0-0.3-0.1-0.5-0.2-0.2-0.1-0.4-0.2-0.2-0.2-0.4-0.4-0.3-0.3-0.5-0.8-0.3-0.8-0.5-1.9 0-0.3 0-0.4-0.1-0.3-0.3-0.4c0 0-0.1 0-0.1 0-0.2 0-0.4 0.1-0.4 0.3q-0.1 0.5-0.2 1l-0.1 0.3q-0.2 0.8-0.3 1.6-0.3 1.5-0.6 3.1c-0.4 2.4-0.7 4.5-0.9 6.6-0.4 5.1-0.2 9.5 0.8 13.3q0.8 3.2 2.5 5.7 0.9 1.4 2 2.6 0.1 0.2 0.3 0.3 0.7 0.9 1.5 1.6 1.1 1.1 2.4 2.1 0 0 0 0c0.8 0.6 1.6 1.2 2.4 1.7 3.4 0.9 7.2 1.5 11.1 1.7q2.1 0.2 4 0.2c3.1 0 6.5-0.3 9.8-0.8 4.5-0.6 8.8-1.8 12.9-3.5 2.1-0.8 4.1-1.7 5.9-2.8 0.7-0.7 1.4-1.4 1.9-2.2q1.2-1.5 2.1-3.1 0.9-1.5 1.6-3.2c0.5-1.3 1-2.6 1.3-3.9q0.5-1.9 0.8-3.9c0.3-2.6 0.3-5.2 0-7.7-0.2-1.1-0.4-2.3-0.7-3.4q-0.5-1.5-1.2-3.2c-0.5-1.2-1.1-2.6-2-4.2q-0.4-0.8-0.9-1.7-0.6-1.1-1.2-2.2c-0.8-1.6-1.5-2.9-2-4.1-0.3-0.9-0.5-1.5-0.8-2.2q-0.2-0.8-0.5-1.7-0.3 0.4-0.5 0.8-0.3 0.6-0.5 1.2c-0.3 0.5-0.5 1.1-0.6 1.8q-0.2 0.8-0.4 1.7c-0.1 1.4-0.2 2.9-0.3 4.4v0.4q0 1.3-0.1 2.5c-0.1 0.9-0.2 1.6-0.3 2.2q-0.3 1.4-0.7 2.4-0.4 1.1-1 2-0.8 1.1-1.7 1.9-0.5 0.5-1 0.9-0.6 0.4-1.2 0.8 0 0-0.1 0-0.1 0-0.2 0c0-0.1-0.1-0.2 0-0.3 0.4-1 0.6-1.8 0.8-2.6q0.3-1.2 0.5-2.3c0.1-1 0.2-1.7 0.2-2.5q0-0.6-0.1-1.3 0-0.5-0.1-1-0.2-1.4-0.5-2.6-0.4-1.2-0.9-2.4c-0.4-1-0.9-2-1.4-2.9q-0.9-1.3-1.8-2.5-1.1-1.5-2.4-2.8-0.7-0.7-1.4-1.4l-0.1-0.1q-0.7-0.6-1.3-1.3c-0.9-0.9-1.5-1.8-2-2.6q-0.8-1.4-1.1-2.7-0.4-1.3-0.4-2.7 0-1.4 0.1-3c0.2-1.4 0.4-2.7 0.6-4.1q0.2-0.9 0.3-1.8l-0.3 0.1q-0.1 0-0.1 0-0.8 0.4-1.5 0.8-0.7 0.4-1.3 0.8-0.7 0.6-1.4 1.2l-0.4 0.4q-0.3 0.3-0.7 0.7c-0.3 0.3-0.7 0.6-1.1 0.8-0.2 0.2-0.6 0.4-1 0.5q-0.3 0.1-0.6 0.1-0.1 0-0.2 0-0.3 0-0.5-0.1-0.7 0-1.4-0.3-1-0.5-2-1.2-1.1-0.8-2.1-1.7-2.3-2-4.2-4.3-1.9-2.1-3.6-4.5-1.7-2.4-3.3-5.1-0.8-1.2-1.5-2.4c-0.5-0.9-1-1.7-1.4-2.7-1.1-2.1-1.8-4.1-2.2-6q-0.7-3.2-0.5-6.1 0.2-1.7 0.5-3 0.4-1.7 0.9-3c0.4-1.1 0.9-2.1 1.4-3q0.9-1.5 1.8-2.7 0.9-1.3 1.8-2.4 0.9-1 2-2c1.4-1.5 3-2.9 4.4-4l0.6-0.5c1.3-1.1 2.6-2.3 3.8-3.4 0.9-0.9 1.6-1.6 2.2-2.2q0.9-1 1.8-2.2 0.7-0.8 1.2-1.7 0.4-0.8 0.8-1.7c1.3-3.1 1.8-6.4 2.2-8.8 0.1-1.4 0.3-2.8 0.5-4.7q0-0.1 0-0.1z"/><path class="a" d="m473.7 156.4v-0.1q0 0 0 0 0 0.1 0 0.1z"/><path fill-rule="evenodd" class="b" d="m472.6 342.1v-0.1z"/><path fill-rule="evenodd" class="b" d="m464.3 345.7z"/><path class="f" d="m456.9 376.1q-0.6 2.1-1.5 4.1-0.4 1.1-0.9 2.1-0.2 0.6-0.5 1.2-0.3 0.6-0.6 1.2l0.1-0.1q-0.7 1.6-1.1 3.3-0.4 1.6-0.6 3.2 0 0 0 0c-0.3 2.1-0.4 4.3-0.5 6.4q-0.1 1.6-0.3 3.2-0.1 1.6-0.4 3.2c0 0-0.1 0.1-0.1 0.1-0.1 0.1-0.2 0-0.3 0-0.5-0.7-1.1-1.4-1.8-1.9q-0.4-0.3-0.8-0.5-0.2-0.1-0.4-0.1-0.2-0.1-0.4 0-0.1 0-0.2 0-0.1 0.1-0.3 0.2 0 0 0 0 0 0 0 0 0 0 0 0 0 0 0 0-0.1 0.1-0.2 0.2-0.3 0.3-0.4 0.7 0 0 0-0.1c-0.2 0.6-0.3 1.2-0.4 1.7q0 0 0 0-0.2 1.2-0.1 2.4 0 1.2 0.2 2.5 0-0.1 0-0.1 0.1 1.2 0.4 2.3 0.2 1 0.6 2 0 0 0 0 0.3 0.5 0.6 1 0.5 0.8 1 1.5 0.8 1 1.6 1.8 0.9 0.8 1.8 1.6 1.2 0.9 2.4 1.6 1.2 0.7 2.5 1.2h-0.1q0.3 0.1 0.5 0.2 0.5 0 1 0.1 2.2 0.1 4 0.1c3.1 0 6.4-0.2 9.8-0.8 4.2-0.6 8.3-1.7 12.2-3.1q1.2-1.3 2.2-2.7 1.1-1.4 2.1-3 0.8-1.4 1.5-2.9 0 0 0 0 0 0 0 0 0-0.1 0-0.1 0 0 0 0 0.6-1.5 1.1-3.2 0.4-1.7 0.7-3.4 0 0.1-0.1 0.1 0.3-2.2 0.3-4.5 0-2.4-0.3-4.7 0-0.1-0.1-0.1 0 0 0.1 0-0.3-1.8-0.7-3.7-0.7 1-1.3 2.1-0.7 1.1-1.3 2.2c-0.7 1.3-1.3 2.5-2.2 3.7q-0.7 0.8-1.6 1.6-0.9 0.7-2 1.3-1.4 0.8-2.9 1.3c-0.9 0.4-1.9 0.7-2.8 0.9-0.8 0.2-1.6 0.3-2.3 0.2-0.5-0.1-1.1-0.3-1.5-0.6-0.3-0.3-0.6-0.8-0.7-1.3-0.1-0.6-0.2-1.2-0.2-1.8q0.1-1.1 0.2-2.3 0.1-1.3 0.3-2.6 0.1-1.5 0.1-2.9 0-1.5-0.1-3 0 0 0-0.1 0 0 0 0 0 0 0 0 0 0 0 0 0 0 0 0-0.1 0-0.2 0.1 0 0 0 0 0 0 0 0-0.6 0.5-1.1 1-0.6 0.6-1 1.2-0.9 1.1-1.6 2.4-0.7 1.2-1.4 2.5c-0.5 0.8-0.9 1.6-1.5 2.4q-0.7 1.1-1.6 2.1-0.1 0.1-0.2 0-0.2 0-0.2-0.1-0.1-0.3-0.2-0.5c-0.6-1.8-0.8-3.7-0.9-5.5 0-2.1 0.1-4.2 0.2-6.3 0.2-2.2 0.4-4.4 0.5-6.6 0.1-2 0.1-4.1-0.2-6.2q0 0 0 0 0 0 0 0-0.1-1.1-0.4-2.2-0.3-1-0.7-2-0.3-0.7-0.7-1.4-0.3-0.6-0.8-1.1 0 0 0.1 0 0 0 0 0 0 0 0 0-0.1-0.1-0.1-0.1 0 0 0 0 0 0 0 0 0 0 0 0 0 0 0 0-0.4-0.5-0.9-1-0.3-0.3-0.6-0.6c-0.4 3-0.9 6.1-1.8 9z"/><path class="f" d="m460.2 368.7v0.1q0-0.1 0-0.1 0 0 0 0z"/><path class="f" d="m472 389.1q0 0 0 0 0 0 0 0 0 0 0 0z"/><path fill-rule="evenodd" class="f" d="m472 389.1"/><path class="f" d="m472 389.1q0 0 0 0 0 0 0 0 0 0 0 0z"/><path class="f" d="m491.2 394.1q0 0 0-0.1 0 0.1 0 0.1z"/><path fill-rule="evenodd" class="f" d="m446.3 401.7"/><path fill-rule="evenodd" class="f" d="m446.3 401.7"/><path fill-rule="evenodd" class="f" d="m446.3 401.7"/><path class="f" d=""/><path class="f" d="m446.3 401.7q0 0 0 0 0 0 0 0 0 0 0 0z"/><path class="a" d="m313.8 282.1c-0.2 1.5-0.4 3-0.4 4.2q-0.1 1.3-0.2 2.6c-0.1 1.9-0.2 3.9-0.4 5.9q-0.5 3.3-1.6 6-0.4 1.1-0.9 2-0.4 0.7-0.8 1.3l-0.3 0.4-0.8 1.3q-0.5 0.9-1.1 1.9c-1.2 2-2.2 3.7-2.8 5.6q-0.4 1.3-0.6 2.8-0.1 1.4 0.2 3c0.2 1 0.6 2.1 1.1 3.3 0.6 1.2 1.3 2.4 2.3 3.8q0.1 0.1 0.2 0.1 0 0 0 0.1-0.3-1.2-0.4-2.4-0.1-1.6 0.2-3.1c0.5-2.2 1.5-4.2 2.7-6 1.2-2 2.7-3.8 4-5.6q1-1.3 1.9-2.7 0.5-0.7 0.9-1.4 0.5-0.9 0.9-1.9 0 0 0 0 0.2-0.5 0.4-1 0.1-0.2 0.1-0.3 0.3-1.2 0.5-2.5-0.1-1.3-0.2-2.5c-0.3-1.8-0.7-3.5-1.2-5.2-0.4-1.7-1-3.4-1.4-5.1-0.5-1.7-0.9-3.4-1.2-5.2q-0.2-1.2-0.2-2.4-0.1-0.4-0.1-0.7c-0.3 1.2-0.6 2.4-0.8 3.7z"/><path class="a" d="m346.7 219.2c-2.5 2.8-4.4 5.8-5.7 8.8q-1 2.3-1.5 4.6c-0.2 0.9-0.3 1.8-0.4 2.6q-0.2 1.5-0.3 2.9-0.1 1.7-0.2 3.3c-0.2 2.2-0.3 4.4-0.6 6.5-0.2 1.4-0.4 2.7-0.7 3.9-0.3 1.2-0.8 2.4-1.4 3.8v0.1 0.1q-0.3 0.6-0.7 1.4-0.2 0.5-0.4 0.9-0.3 0.5-0.6 1.1-0.8 1.7-1.4 3.8c-0.7 2.2-1 4.6-1 7.4 0 2.6 0.3 5.1 0.6 7.5q0.2 1.8 0.5 3.7 0.3 1.7 0.5 3.4v0.1c0.3 1.8 0.4 3.4 0.5 4.9q0.1 2.7-0.2 5.3c-0.3 2-0.8 3.9-1.5 5.6q-0.4 0.9-0.9 1.7c-0.2 0.6-0.6 1.1-1.1 1.8l-0.1 0.1c-0.4 0.5-0.9 1.1-1.5 1.7-0.6 0.6-1.3 1.1-1.9 1.6l-0.1 0.1q-1.1 0.8-2.1 1.5-0.9 0.7-1.8 1.3-1 0.8-1.9 1.6-1.1 0.9-2.2 2-1.7 1.9-3.1 4.2-1.2 2-2.1 4.7c-0.4 1.3-0.7 2.8-0.9 4.7-0.2 1.6-0.3 3.3-0.2 5.3 0.1 1.9 0.3 3.7 0.6 5.4q0.2 1.4 0.4 2.7 0.3 1.8 0.5 3.5c0.2 1.8 0.4 3.3 0.4 4.7q0.1 2.5-0.2 5-0.3 2.3-1 4.6c-0.4 1.2-0.8 2.4-1.4 3.8l-0.1 0.2v0.1l-0.7 1.5c-1 2.2-1.9 4.5-2.7 6.8-0.6 2.1-1.1 4.5-1.2 7.3-0.2 2.3-0.1 4.6 0.2 7.2 0.3 2.4 0.8 4.9 1.5 7.3 0.7 2.3 1.6 4.6 2.8 7 1 2.2 2.3 4.2 3.8 6.2 1.5 2 3.2 3.8 5 5.2q2.2 2 5.1 3.5c1.5 0.8 3.1 1.6 5.2 2.4 1.8 0.7 3.7 1.3 5.8 1.8 4 1.1 8.4 1.8 12.9 2q1.9 0.2 3.8 0.2c3.1 0 6.3-0.3 9.5-0.8 4.3-0.6 8.3-1.8 12-3.5 3.7-1.7 6.9-4 9.2-6.8 1.3-1.4 2.5-3.2 3.6-5.3 1.1-2.1 2-4.4 2.9-7 0.7-2.4 1.3-5 1.7-7.8 0.3-2.6 0.4-5.2 0.2-7.7-0.2-2.5-0.8-4.9-1.6-7q-0.7-1.5-1.5-2.9c-0.6-0.8-1.2-1.7-2.1-2.7-1.6-1.7-3.4-3.2-5.2-4.7-2.1-1.7-4.2-3.4-6-5.6q-1-1.4-1.7-2.9-0.6-1.4-0.8-2.9-0.3-2.3 0-4.7c0.3-2.2 1-4.4 2-6.7 1.2-2.9 2.8-5.7 4.3-8.4 0.9-1.6 1.8-3.2 2.7-4.9 1.3-2.5 2.2-4.8 2.9-7 0.3-1.1 0.6-2.3 0.8-3.7q0.3-2.2 0.4-4.6c0-2.7-0.3-5.7-1.1-8.8-0.6-2.6-1.6-5.3-3.1-8.2-1.2-2.7-2.8-5.2-4.6-7.5-0.8-1-1.6-1.8-2.4-2.7-0.9-0.9-1.9-1.9-2.8-3q-0.1-0.1-0.2-0.2l-0.1-0.1c-0.6-0.8-1-1.5-1.3-2.2q-0.2-0.3-0.3-0.6c-0.1-0.4-0.2-0.8-0.2-1.1q-0.1-1 0-2.2c0.2-1.4 0.7-2.7 1.1-4.1l0.1-0.2c0.4-1.4 0.9-2.8 1.1-4.3 0.1-1.2 0.1-2.5-0.1-3.9q-0.2-1.5-0.9-3.3c-0.5-1-1-1.9-1.5-2.8q-0.3-0.3-0.5-0.6 0 0 0 0c-0.9-1.2-1.9-2.4-2.8-3.7-1-1.3-1.9-2.7-2.6-4.1-0.7-1.3-1.2-2.8-1.3-4.2q-0.1-0.6 0-1.1-0.3 0.5-0.5 1.1c-0.3 1-0.5 2-0.7 2.9-0.2 1.2-0.4 2.5-0.5 3.7q-0.1 0.9-0.2 1.8c-0.1 0.7-0.2 1.4-0.4 2.1-0.1 0.7-0.3 1.5-0.6 2.5-0.4 1.1-0.8 2.2-1.3 3.3l-0.3 0.8c-0.6 1.5-1 2.7-1.2 3.9q-0.4 1.4-0.3 3.1 0 0 0 0c-0.2-0.7-0.3-1.4-0.4-2-0.2-1.6-0.3-3.3-0.2-5.2 0.1-1.8 0.4-3.6 0.6-5.3l0.1-0.4c0.4-3.5 0.9-7 0.5-10.6q-0.2-2.6-1.1-5.1-0.4-1.1-0.8-2.2-0.8-1.7-1.5-3.3c-0.6-1.4-1.2-2.8-1.6-4.3-0.5-1.4-0.9-2.8-1.1-4.3-0.3-1.4-0.4-2.9-0.3-4.3q0-1.2 0.2-2.4 0-0.6 0.1-1.3c0.2-1 0.4-2.1 0.7-3.2q0.2-0.8 0.6-1.7 0.2-0.7 0.6-1.3 0.3-0.5 0.6-0.9c-2.7 2.1-5.1 4.3-7.1 6.7z"/><path class="a" d="m367.1 215.2q-0.4 0.1-0.9 0.3-0.3 0.2-0.7 0.6-0.3 0.3-0.6 0.9c-0.5 0.8-0.7 1.6-0.9 2.3q-0.4 1.1-0.6 2.5-0.2 1.2-0.3 2.3 0 0.3 0 0.6 0 0.2 0.1 0.4v-0.1q0 0.6 0.2 1.2 0.1 0.3 0.2 0.6 0.3 0.7 0.6 1.3 0.4 0.6 0.9 1.2 0.4 0.6 0.9 1 0.5 0.5 1.1 0.7 0.6 0.3 1.2 0.3 0.1 0.1 0.2 0.1 0.5-0.1 1.1-0.3 0.6-0.3 1.2-0.9c0.3-0.2 0.4-0.4 0.6-0.6 0.1-0.2 0.2-0.5 0.3-0.7q0.2-0.4 0.2-0.7 0-0.4 0-0.7c-0.1-1.1-0.6-2.1-1.1-2.9q-0.2-0.5-0.5-0.9c-0.3-0.5-0.7-1.1-1-1.7q-0.1-0.4-0.2-0.8 0-0.4-0.1-0.9v-0.6c0-0.9 0-1.8-0.2-2.6q-0.1-0.5-0.3-1-0.2-0.4-0.6-0.7-0.3-0.2-0.7-0.2z"/><path class="a" d="m356.4 190.6q-0.3 0.1-0.4 0.2-0.2 0.1-0.4 0.2-0.3 0.3-0.5 0.8c-0.2 0.5-0.2 1.2-0.1 1.8 0.1 0.7 0.4 1.5 0.6 2q0.1 0.3 0.3 0.6 0.7 1.1 1.3 2.1 0.9 1.6 1.7 3.2h0.1q0.1 0 0.2-0.2c0.7-1.3 1-2.9 1.2-4q0.1-1.3 0-2.6 0-0.6-0.1-1.2-0.2-0.5-0.4-1.1c-0.3-0.7-0.8-1.2-1.4-1.5q-0.6-0.3-1.3-0.4-0.4 0-0.8 0.1z"/><path class="b" d="m346.4 245.2c-0.4 0.6-0.7 1.2-1 1.9q0 0 0-0.1-0.5 1.3-0.9 2.6-0.4 1.5-0.8 2.9-0.8 3.4-1.4 6.8-0.7 3.2-1.2 6.4-0.3 1.3-0.5 2.6-0.1 0.5-0.2 1-0.3 1.1-0.4 2.2-0.2 1.3-0.2 2.6-0.1 1.3-0.1 2.6 0.1 1.3 0.2 2.6 0.1 1.3 0.3 2.6 0.4 2.7 0.9 5.4c0.3 1.9 0.7 3.7 0.9 5.6q0.3 2.2 0.5 4.3 0.1 1.4 0.2 2.8 0.1 2.5 0.1 5-0.1 2.8-0.4 5.5c-0.2 1.8-0.4 3.5-0.8 5.3-0.4 1.6-0.9 3.2-1.6 4.8q-0.6 1.2-1.3 2.2-0.5 0.9-1.2 1.7-0.8 0.9-1.7 1.5-0.4 0.3-0.9 0.6-0.6 0.3-1.2 0.6c-1.1 0.5-2.5 0.8-3.8 0.7q-0.7-0.1-1.5-0.2-0.6-0.2-1.3-0.3-0.4-0.1-0.8 0-0.2 0-0.5 0.1-0.3 0.1-0.5 0.3-0.2 0.2-0.3 0.3-0.2 0.2-0.4 0.4c-0.7 0.9-1.2 2-1.6 3.1v-0.1c-0.3 0.7-0.6 1.4-0.8 2.1q-0.1 0.5-0.2 1-0.1 0.5-0.2 1 0 0 0 0 0 0 0 0-0.1 1.4-0.1 2.8 0 0.8 0.1 1.6 0.1 0.7 0.1 1.4 0 0 0-0.1 0.4 2.4 0.9 4.7c0.3 1.4 0.6 2.9 0.9 4.4 0.3 1.5 0.6 3 0.8 4.5 0.1 1.4 0.2 2.8 0.1 4.3q-0.1 1.1-0.3 2.2-0.3 1.1-0.6 2.2-0.8 2.2-1.8 4.3c-0.7 1.4-1.5 2.8-2.2 4.3-0.8 1.4-1.5 2.8-2.1 4.3q-0.5 1.2-1 2.5-0.3 1.2-0.7 2.4-0.3 1.1-0.5 2.3-0.2 1.1-0.4 2.2 0 0 0 0 0 0 0 0-0.3 2.1-0.3 4.3 0 1 0.1 2 0.1 0.9 0.2 1.7 0.2 1.9 0.7 3.7 0.2 0.9 0.6 1.8 0.2 0.8 0.6 1.6 0-0.1-0.1-0.1 0.8 1.8 1.8 3.4 0.9 1.5 2 3 0 0 0-0.1 1.4 1.9 3.1 3.6 1.8 1.7 3.7 3.2 0 0 0 0 0 0 0.1 0.1 0 0 0 0 3.1 2.3 6.4 4.2 0.9 0.5 1.8 1 0.3 0.1 0.6 0.2c4 1 8.4 1.7 12.9 2q1.9 0.1 3.8 0.1c3.1 0 6.3-0.3 9.5-0.7q1.7-0.3 3.4-0.7h0.1q1.1-0.7 2.2-1.5 0.7-0.5 1.5-1.1 2-1.5 3.8-3.3 0.8-0.8 1.6-1.7 0.7-0.9 1.4-1.8 1.3-1.6 2.3-3.4 0.5-0.8 1-1.7 0.4-0.8 0.7-1.7 0 0.1 0 0.1 0.7-1.8 1.2-3.6 0.3-1 0.5-2 0.2-0.9 0.3-1.7 0.3-2 0.2-4 0-0.9 0-1.9-0.1-0.9-0.2-1.9 0 0 0 0 0 0 0 0-0.2-1.5-0.6-3-0.3-0.8-0.5-1.5-0.3-0.7-0.6-1.4 0.1 0.1 0.1 0.1-0.7-1.5-1.4-2.9-0.8-1.4-1.7-2.7c-1-1.8-2.2-3.5-3.3-5.2-1-1.8-2.1-3.6-2.9-5.5q-0.6-1.5-1-3-0.2-0.8-0.4-1.5 0-0.3-0.1-0.6-0.1 0.2-0.2 0.5-0.2 0.5-0.5 1.1v-0.1q-0.6 1.5-1 3-0.5 1.3-0.8 2.7c-0.5 1.9-1 3.9-1.5 5.8 0 0.1-0.1 0.2-0.2 0.2q-0.1 0-0.2-0.1 0-0.1 0-0.1-0.2-0.4-0.4-0.9-0.7-1.9-1.1-3.8-0.4-1.8-0.6-3.5-0.5-3.9-0.3-7.9 0-1 0.1-2.1 0.1-0.8 0.2-1.7 0.2-1.6 0.6-3.1 0.8-3.5 1.9-6.9 1.2-3.5 2.6-6.8c0.9-2.3 1.9-4.5 2.7-6.8 0.9-2.2 1.7-4.5 2.4-6.8q0.5-1.7 0.9-3.6 0.4-1.6 0.7-3.3 0.2-2.1 0.3-4.2 0-0.9-0.1-1.8 0-0.8-0.1-1.6 0 0 0 0.1-0.2-1.7-0.7-3.3-0.4-1.4-1-2.8v0.1q-0.8-1.9-1.7-3.6-1-1.7-2.1-3.4c-1.4-2.1-2.9-4.3-4.2-6.5-1.3-2.2-2.4-4.6-3.1-7.1q-0.5-2-0.7-4-0.1-1.1-0.1-2.2 0-0.5 0-1-0.8 1.9-1.2 3.8-0.3 1.1-0.5 2.3-0.2 0.9-0.3 1.9 0 0 0 0c-0.3 2.2-0.5 4.5-0.6 6.8-0.1 2.3-0.3 4.6-0.5 6.9q-0.2 1.5-0.5 3.1-0.3 1.7-0.7 3.3-0.5 1.5-1.1 2.9-0.3 0.8-0.7 1.5-0.4 0.8-0.9 1.5c-0.1 0.1-0.2 0.1-0.3 0.1q-0.1 0-0.1-0.1-0.1-0.1-0.1-0.1c-0.4-4.6-0.8-9.2-1.4-13.7q-0.4-3.2-1.1-6.3-0.6-3.3-1.5-6.5-0.3-1-0.6-1.9-0.3-0.9-0.5-1.7-0.5-1.6-0.9-3.2-0.7-3.1-1.1-6.3-0.4-3.4-0.5-6.8-0.1-3.2-0.1-6.5 0-3.4 0-6.9-0.1-2.7-0.2-5.3 0 0.1-0.1 0.1zm-6.2 36.6q0 0.1 0 0.1 0-0.1 0-0.1zm12.8 14.7q0 0 0 0.1 0-0.1 0-0.1zm29.5 100.2q0 0 0 0.1 0-0.1 0-0.1z"/><path class="b" d="m326.3 327.4q0 0 0 0 0 0 0 0z"/><path class="b" d="m327.5 414.1q0 0 0 0 0 0 0 0-0.1-0.1-0.1-0.1 0 0 0.1 0.1z"/><path fill-rule="evenodd" class="b" d="m327.5 414.1"/><path class="d" d="m348.5 306.2c0.1 3.1 0.1 6.3 0 9.4 0 2.8-0.2 5.7-0.5 8.5-0.2 2.7-0.6 5.5-1.3 8.1q-0.4 2-1.1 3.8-0.6 1.8-1.4 3.5-0.9 1.6-1.9 3.1-0.6 0.7-1.1 1.4-0.6 0.6-1.2 1.2-0.1 0.1-0.3 0.1c0 0-0.1-0.1-0.1-0.1q-0.3-0.7-0.5-1.4-0.2-0.7-0.4-1.4-0.2-1.6-0.2-3.1c0-1.8 0.1-3.7 0-5.6q-0.4 0.7-0.7 1.3-0.5 1-1 2 0 0 0 0-0.8 2.1-1.4 4.3-0.5 2-0.7 4.1c-0.8 5.5-0.6 11-1.5 16.4q-0.2 1.1-0.4 2.2-0.2 1.1-0.5 2.2-0.5 2.1-1 4.1c-0.6 2.5-1.1 5-1.4 7.5q0 0 0 0 0 0 0 0-0.3 2.6-0.5 5.2-0.1 2.9-0.1 5.8c0 0.1 0 0.2-0.1 0.3q-0.2 0-0.3-0.2-0.3-0.4-0.6-0.8-0.3-0.7-0.7-1.3c-0.5-0.9-1-1.8-1.6-2.6q0 0 0 0 0 0 0 0 0-0.1 0-0.1-0.1 0-0.1 0 0 0 0 0 0 0 0 0 0 0 0 0-0.4-0.6-1-1.1-0.2-0.1-0.5-0.3-0.2 0-0.3-0.1-0.2 0-0.3 0-0.1 0.1-0.2 0.1-0.1 0.1-0.2 0.1-0.1 0.1-0.2 0.3-0.2 0.2-0.3 0.5c-0.2 0.5-0.3 1-0.4 1.5q0 0 0 0c-0.1 1.1-0.1 2.4-0.1 3.5q0.1 1.9 0.4 3.8 0 0 0 0 0.3 2 0.7 4.1 0.2 0.9 0.4 1.7 0.6 1.8 1.3 3.5 0 0 0 0 1 2.5 2.4 4.9 1.4 2.4 3.1 4.5 1.8 2.4 3.9 4.4 2 2 4.2 3.8 0 0 0 0 0.1 0 0.1 0 0 0 0 0 0 0 0 0 0 0 0 0 0.7 0.6 1.5 1.1 4.2 0.8 8.8 1.1 1.9 0.1 3.8 0.1c2.9 0 6-0.2 9-0.6q1.6-1.3 3-2.7 1.5-1.5 2.8-3.2 0 0 0 0 0 0 0 0 0 0 0 0 0 0 0.1 0 0 0 0 0-0.1 0-0.1 0 0 0 0.1 0 0 0 0 0 1-1.4 1.9-2.9 0.9-1.5 1.6-3.1 0 0 0 0 0 0 0 0 0.7-1.8 1.2-3.6 0.5-1.8 0.7-3.7v0.1q0.3-2.5 0.3-5 0-2.6-0.3-5.1c-0.2-1.6-0.5-3.1-1.1-4.5q-0.2-0.4-0.4-0.9-0.2-0.3-0.5-0.7-0.1-0.2-0.3-0.3-0.1-0.2-0.3-0.3-0.5-0.4-0.9-0.8-0.5-0.4-1-0.6-0.2-0.1-0.3-0.1-0.2 0-0.3 0 0 0-0.1 0-0.1 0.1-0.1 0.1-0.1 0.1-0.2 0.2c-0.2 0.2-0.3 0.5-0.4 0.8-0.2 0.3-0.3 0.7-0.5 1-0.2 0.2-0.5 0.5-0.7 0.7q-0.3 0.1-0.5 0.2-0.3 0.1-0.5 0.1-0.6 0.1-1.2 0-0.4 0-0.8-0.2-0.4-0.1-0.8-0.4-0.4-0.2-0.7-0.4-0.7-0.7-1.3-1.5-0.7-0.9-1.2-1.9-0.6-1.1-1-2.3c-0.7-1.9-1.2-3.8-1.6-5.7q-0.6-3.2-1-6.5-0.4-3.3-0.7-6.7-0.2-3.2-0.2-6.4-0.1-2.6-0.1-5.3 0.1-1.9 0.2-3.8 0.1-0.9 0.2-1.9 0.1-1.4 0.3-2.7 0.5-2.9 1.1-5.8 1.4-5.9 3.4-11.5 0.2-0.7 0.5-1.4 0.2-0.5 0.5-1 0.5-1.2 1-2.3c0.8-1.6 1.7-3.2 2.4-4.9q0 0.1 0 0.1 0.5-1.2 0.8-2.4 0.2-0.6 0.3-1.2 0.1-0.5 0.2-1 0-0.3 0.1-0.7 0-0.2 0-0.4-0.7 0.3-1.3 0.6-0.5 0.4-0.9 0.7 0 0-0.1 0 0 0 0 0 0 0 0 0 0 0 0 0 0 0 0 0.1 0-0.1 0-0.1-0.6 0.5-1.1 1-0.4 0.5-0.8 1-1.2 1.5-2 3.2c-0.6 1.2-1.1 2.4-1.6 3.5-0.6 1.2-1.1 2.3-1.8 3.4-0.5 1-1.2 2-2 2.8q-0.1 0.1-0.2 0.1-0.1-0.1-0.2-0.2-0.9-1.2-1.6-2.6-0.7-1.5-1.2-3.1c-0.8-2.3-1.2-4.6-1.6-7-0.3-2.3-0.5-4.7-0.7-7zm-23.3 95.5q0 0 0 0 0 0 0 0zm48.1 0q0 0.1 0 0.1 0 0 0-0.1zm-34.5 17.5q0 0 0 0 0.1 0 0.1 0 0 0 0 0.1 0-0.1 0-0.1 0 0 0 0 0 0-0.1 0 0 0 0 0z"/><path fill-rule="evenodd" class="d" d="m363.3 309.8"/><path class="d" d="m368.8 383.7q0 0 0 0 0 0 0 0z"/><path fill-rule="evenodd" class="d" d="m326 384.1h-0.1z"/><path class="d" d="m326 384.2q0 0 0 0 0 0 0-0.1 0 0.1 0 0.1z"/><path class="f" d="m349 353.1q-0.5 2.5-0.9 5 0 0.1 0 0.1 0 0 0 0 0 0 0 0 0 0 0 0c-0.3 2.5-0.5 5.1-0.6 7.7q0 2 0 4.1-0.1 1-0.1 2 0 0.5 0 1.1 0 0.5 0 0.9c-0.1 2.8-0.7 5.5-1.4 8.2-0.8 2.7-1.6 5.3-2.4 7.9 0 0.2-0.1 0.3-0.3 0.2q-0.2 0-0.2-0.2-0.1-3.9-0.7-7.8 0 0.1 0 0.1c-0.5-3.8-1.2-7.5-1.8-11.2-0.6-3.1-1.1-6.2-1.4-9.4-0.5 3-1.1 6-1.7 8.9-0.7 3.7-1.4 7.5-1.9 11.2q0 0 0 0c-0.4 3.2-0.7 6.5-0.8 9.7-0.1 3.1 0 6.2 0.4 9.3q0.3 2.5 1 5 0.6 2.3 1.5 4.6 0 0 0 0 0.8 1.7 1.7 3.4 1 1.6 2.1 3.1 0 0 0 0 0 0 0 0h0.1-0.1q1.2 1.5 2.5 2.8 0.7 0.7 1.5 1.4 1.8 0.2 3.7 0.3 1.9 0.1 3.8 0.1 2.4 0 4.8-0.2 0.2-0.1 0.4-0.2 0.8-0.4 1.4-1 0.7-0.5 1.3-1 0.5-0.6 1-1.2 0.6-0.8 1.1-1.6 0.4-0.8 0.8-1.7 0 0 0 0c0.9-2.1 1.3-4.3 1.6-6.5q0 0.1 0 0.1c0.4-2.5 0.5-5 0.6-7.5 0.2-2.2 0.3-4.4 0.6-6.6q-0.7 0.2-1.4 0.5-0.8 0.3-1.5 0.8-0.7 0.4-1.3 0.8c-0.9 0.7-1.7 1.5-2.5 2.4-0.8 0.8-1.5 1.7-2.3 2.5-0.8 0.8-1.6 1.6-2.5 2.3q-0.6 0.5-1.3 0.9-0.8 0.5-1.5 0.8c-0.1 0-0.2 0-0.3-0.1q-0.1-0.1-0.1-0.2c0.1-1.9 0.3-3.9 0.6-5.8 0.3-1.9 0.6-3.8 0.8-5.7 0.3-1.7 0.5-3.5 0.5-5.4q0.1-1.4 0-2.8-0.1-1.4-0.2-2.8-0.2-1.1-0.4-2.2-0.3-1.2-0.5-2.3-0.5-2.1-0.8-4.3-0.6-4.2-0.9-8.4c-0.2-2.8-0.4-5.7-0.5-8.5q-0.1-3.8-0.3-7.6-0.7 2-1.2 4zm4.3 40.3q0 0 0 0 0 0 0 0zm-15.6 17.1q0 0 0 0 0 0 0 0z"/><path class="f" d="m348.1 358.2q0-0.1 0-0.1 0 0 0 0.1z"/><path class="a" d="m261.6 246.5q-0.7 4.2-2 8.2c-0.8 2.7-1.9 5.3-3.2 7.8-0.6 1.2-1.3 2.4-2 3.5q-0.5 0.6-0.9 1.2c-0.6 0.9-1.3 1.8-2.1 2.9-0.9 1.2-1.8 2.3-2.8 3.5-1.9 2.3-3.9 4.7-5.5 7.3q-0.9 1.3-1.7 2.9-0.4 0.8-0.7 1.6-0.2 0.5-0.4 1c-0.2 0.6-0.4 1.4-0.5 2.1-0.4 2.3-0.6 4.6-0.8 6.8-0.3 3-0.5 6-0.7 8.9l-0.1 1q-0.3 4.3-0.6 8.6c-0.3 2.6-0.5 5.6-0.9 8.6v-0.3c-0.2 1.6-0.4 2.8-0.6 3.9-0.2 0.8-0.4 1.7-0.7 2.5q-0.1 0.3-0.3 0.5c-0.2-0.4-0.4-0.7-0.7-1.2-0.3-0.6-0.6-1.3-0.9-2l0.1 0.3c-0.8-2.1-1.6-4.2-2.4-6.7q-0.4-1.3-0.8-2.7l-0.1-0.2q-0.1-0.3-0.1-0.6-0.4-1.1-0.6-2.5c-0.1-1.3-0.2-2.7-0.1-4.1q0-0.2 0-0.4c0-2.3 0.1-4.6 0.1-6.9q0.1-1.7 0-3.5-0.1-1.6-0.2-3.1-0.1 0-0.1 0.1v0.2q-0.1 0.3-0.2 0.7l-0.1 0.3q-0.1 0.3-0.1 0.6-0.3 0.9-0.6 1.8-0.7 1.8-1.3 3.6l-0.1 0.3-0.4 1.1q-1.2 3.3-2.3 6.6c-1.1 3-1.8 5.4-2.3 7.7-0.7 2.7-1.1 5.2-1.3 7.6-0.1 1.4-0.1 2.7 0 3.9q0 2.1 0.1 4.2 0.1 2.4 0.3 4.7 0.1 1.5 0.2 2.9c0.2 2.8 0.2 5.2 0.2 7.4 0.1 2.5-0.1 4.9-0.4 7.4v0.1c-0.3 2.5-0.9 5.1-1.7 7.8q-0.4 1.2-0.9 2.5-0.2 0.6-0.4 1.3-0.6 2-1.2 3.9c-1.7 5.6-2.5 10.2-2.5 14.5 0 2.3 0.2 4.7 0.7 7.2 0.5 2.3 1.3 4.7 2.5 7.4 1.9 4 4.6 7.9 7.9 11 3 2.9 6.7 5.4 10.6 7 2 0.9 4.1 1.6 6.2 2q3.2 0.7 6.6 0.8 0.5 0 1.1 0c3.2 0 6.3-0.4 9.2-1.1 3-0.8 5.8-2 8.4-3.7 2.4-1.5 4.5-3.5 6.4-5.7 1.8-2.2 3.3-4.7 4.6-7.5 2.4-5.1 3.8-11.2 4.2-18.1 0.4-6.1 0-12.6-1.3-19.2-0.6-2.9-1.4-5.9-2.4-8.9q-0.7-2-1.5-4.1c-0.9-2.1-2-4.2-3.2-6.4-1-1.9-2.1-3.7-2.9-5.7-0.5-1.1-0.8-2.1-1.1-3.2-0.3-1.1-0.5-2.3-0.7-3.3v0.1q-0.1-1.2-0.2-2.4c-0.2-1.3-0.3-2.7-0.5-4-0.4-2.4-1.1-4.3-2.2-6q-0.1 1.1-0.4 2.2-0.3 1.5-0.7 3.1-0.4 1.5-0.7 3.1-0.3 1.5-0.5 3 0 0.1 0 0.1-0.4 2.8-0.5 5.7c-0.1 3.9 0.1 7.2 0.6 10.3q-0.4-0.5-0.9-1.1-1.7-2.3-2.8-4.9c-0.7-1.8-1.3-3.8-1.6-5.9-0.4-2.9-0.3-6.1 0.2-9.8 0.2-1.6 0.5-3.4 1-5.5q0.3-1.4 0.6-2.8 0.4-1.7 0.8-3.4 0.6-3.2 0.8-6.5c0.1-1.9 0-3.9-0.2-6.2-0.3-3.9-1.2-7.8-2.1-11.5q-0.6-2.4-1.2-4.8l-0.4-1.4-0.1-0.6q-0.4-1.2-0.7-2.4c-0.2-0.8-0.3-1.5-0.4-2.5-0.5-3.4-0.4-7 0.2-11.8 0.6-3.8 1.3-7.7 2.1-11.5l0.1-0.7q0.5-1.7 1-3.7c0.6-3 1-6 1.1-9.1q-0.2 1.1-0.4 2.3z"/><path class="a" d="m264.4 334.3q0-0.1 0-0.1 0 0 0 0z"/><path class="a" d="m248.1 211.6q-0.9 1.8-1.4 3.8c-0.7 2.4-1.1 5.1-1.1 8 0 2.4 0.3 5.1 0.8 8.1 0.3 1.3 0.6 2.6 0.9 4.2l0.3 0.9q0.1 0.6 0.2 1.2 0.3 1.1 0.5 2.4c0.2 1.7 0.3 3.6 0.2 5.7 0 1.8-0.1 3.7-0.3 5.4v0.4c-0.1 1.7-0.2 3.2-0.3 4.7l-0.1 0.9q-0.2 1.4-0.2 2.7 0 1.4 0.3 2.8 0 0 0 0 0 0 0 0c0.2-2.5 0.8-4.9 1.6-7.2q0.5-1.8 1.2-3.6 0.1-0.3 0.3-0.7 0.2-0.7 0.5-1.3v-0.1c0.4-0.8 0.7-1.6 1.1-2.3 0.7-1.7 1.5-3.5 2.1-5.3 1.1-2.9 1.6-5.5 1.4-7.9 0-1.7-0.3-3.5-0.8-5.5q-0.1-0.1-0.1-0.2-0.2-0.7-0.5-1.3-0.5-1.5-1.1-3c-0.8-2-1.6-4-2.2-6q-0.6-1.6-0.9-3.2-0.4-1.5-0.5-3-0.2-1.5 0-3 0-0.6 0.1-1.2-1.1 1.8-2 3.6z"/><path class="a" d="m273.8 301.1q-0.3 0.1-0.5 0.2c-0.4 0.1-0.8 0.4-1.2 0.7q-1.3 0.9-2.4 2.3-0.6 0.8-1 1.7-0.5 0.9-0.8 2.2c-0.1 0.6-0.2 1.3-0.3 2.1-0.1 0.7-0.1 1.4 0 2.3q0 0.7 0 1.4 0.1 0.2 0.1 0.4 0 0 0-0.1 0.1 1.1 0.4 2.2 0.3 1 0.7 2 0 0 0 0 0 0 0 0 0 0 0 0 0.1-0.1 0.1-0.2 0-0.4 0.1-0.7c0.1-0.7 0.3-1.4 0.6-2.1 0.3-0.7 0.7-1.5 1.3-2.4 0.4-0.8 0.9-1.6 1.6-2.6l0.7-1q0.5-0.7 1-1.4c0.4-0.7 0.9-1.5 1.3-2.2 0.3-0.5 0.7-1.2 0.9-1.9q0.1-0.4 0.1-0.8 0-0.1-0.1-0.3 0-0.2-0.1-0.4-0.3-0.7-0.8-1.1-0.1-0.1-0.3-0.1 0-0.1-0.1-0.1c-0.3-0.1-0.5-0.2-0.7-0.2h-0.1q-0.2 0-0.5 0.1z"/><path class="b" d="m253.2 294.4q0 0-0.1 0 0.1 0 0.1 0 0 0 0 0h-0.1q0 0.1 0 0.1 0 0 0 0 0 0 0 0 0 0 0 0 0 0 0 0-0.6 0.5-1.2 1.1-0.6 0.5-1 1.1-0.7 0.9-1.3 1.9-0.6 1-1 2.1c-0.9 2.2-1.5 4.6-2 7-0.5 2.5-0.8 5-1.2 7.5-0.3 2.5-0.6 5-1.1 7.4q-0.4 1.7-0.9 3.4-0.2 0.7-0.5 1.5-0.2 0.5-0.4 1.1 0 0-0.1 0-0.1 0.5-0.3 0.9-0.2 0.6-0.4 1.3-0.5 1.6-1 3.3-0.6 2-1.3 4-0.6 1.9-1.2 3.7-0.5 1.4-1.2 2.7-0.2 0.6-0.5 1.1-0.2 0.4-0.5 0.7-0.1 0.1-0.3 0.3-0.1 0.1-0.2 0.1-0.2 0.1-0.4 0.2-0.3 0-0.5 0-0.6 0-1-0.3-0.5-0.2-0.9-0.6c-0.6-0.7-1-1.6-1.3-2.4q-0.6-1.6-1-3.3-0.3-1.6-0.6-3.3-0.1-0.6-0.2-1.3 0 0.3-0.1 0.6-0.2 0.7-0.3 1.4 0.1 0 0.1 0-0.3 2.2-0.2 4.3 0.1 2.2 0.4 4.4v-0.1q0.2 1.4 0.4 2.7c0.3 2 0.6 3.9 0.7 5.9q0.3 2.7 0.1 5.3-0.2 2.5-0.6 5-0.5 2.5-1.2 4.9c-0.8 3.3-1.9 6.5-2.8 9.7q-0.8 2.4-1.3 4.9-0.6 2.4-1 4.9-0.3 2.2-0.3 4.4 0 1.1 0 2.2 0.1 1.1 0.3 2.3 0.2 2 0.8 3.9 0.5 1.8 1.2 3.6v-0.1q0.8 1.9 1.8 3.6 1 1.7 2.2 3.2 0 0 0 0 0 0 0 0.1 0-0.1 0-0.1 1.4 1.8 3 3.4 1.5 1.5 3.2 2.8 0.5 0.4 0.9 0.7 2.6 1 5.3 1.6 3.2 0.7 6.6 0.8 0.5 0 1.1 0c3.2 0 6.3-0.4 9.2-1.1 3-0.8 5.9-2 8.4-3.7q0.6-0.4 1.1-0.8 0.2-0.1 0.3-0.3 0 0 0 0 0 0 0 0 0 0 0 0 0 0 0 0 0 0 0 0 0 0 0 0 1.1-1.5 2.1-3.1 0.9-1.7 1.7-3.5c1.6-3.7 2.5-7.7 3.1-11.8q0 0 0 0.1 0.4-3.4 0.5-6.7 0-1.6 0-3.2-0.1-1-0.2-1.9 0-1.1-0.2-2.2-0.2-2-0.7-4-0.5-2-1.1-3.9c-0.8-2.6-1.8-5-2.7-7.5-1-2.5-2-5-3-7.5q-0.7-1.9-1.2-3.8-0.6-1.8-1-3.5 0 0 0 0-0.9 1.2-1.6 2.4-0.7 1.2-1.4 2.4c-0.8 1.6-1.7 3.3-2.7 4.8q-0.1 0.1-0.3 0.1-0.1 0-0.2-0.1c-1.4-2-2.6-4-3.7-6.2q-1.4-3-2.3-6.2-0.9-3.2-1.3-6.4-0.5-3.3-0.5-6.6c-0.2-7 0.7-14 1.3-21 0.4-3.6 0.7-7.1 0.7-10.6q0.1-2.7 0-5.3-0.1-2.6-0.5-5.2-0.1-0.8-0.2-1.5-0.2 0.1-0.3 0.2z"/><path class="b" d="m253.1 294.5q0 0 0 0 0 0 0 0 0 0 0 0 0 0 0 0z"/><path fill-rule="evenodd" class="b" d="m253.1 294.5"/><path fill-rule="evenodd" class="b" d="m253.1 294.5"/><path class="b" d="m242.4 328.6h0.1q0 0 0 0 0 0-0.1 0z"/><path fill-rule="evenodd" class="b" d="m242.4 328.6"/><path class="b" d="m229.8 412.7q0 0 0 0 0 0 0 0z"/><path class="d" d="m246.5 348.3q-0.4 0.9-0.8 1.9 0-0.1 0-0.1c-0.8 2-1.4 4-1.9 6-0.4 2.1-0.8 4.2-1.1 6.3-0.3 2-0.6 4.1-1 6.2-0.4 2-0.9 4.1-1.6 6q0 0.2-0.2 0.2-0.2 0-0.2-0.1-0.8-1-1.3-2.2-0.4-1.3-0.7-2.6c-0.4-1.5-0.6-3-0.8-4.5q-0.2 0.4-0.4 0.7 0 0 0 0c-0.9 2.2-1.5 4.4-2 6.7q-0.9 3.9-1.4 7.8 0 0 0 0 0 0 0 0 0 0 0 0-0.8 5.7-1 11.5-0.1 2.5-0.1 5 0 1.2 0 2.4 0.1 1.4 0.3 2.8 0.2 2.1 0.8 4.2 0.6 2 1.4 4v-0.1q0.6 1.6 1.5 3.2 0.9 1.4 1.9 2.7h-0.1q0.1 0 0.1 0 0 0 0 0 0 0 0 0 0 0 0 0 0 0 0 0 0 0 0 0 0.9 1.2 1.9 2.2 1 1 2.2 1.9 0.7 0.6 1.5 1.1 2.6 0.5 5.3 0.5 0.5 0 1.1 0c3.2 0 6.3-0.3 9.3-1.1q1.4-0.4 2.9-0.9 0.5-0.6 0.9-1.2 0 0 0 0 0 0 0 0 0 0 0 0 0 0 0 0 0-0.1 0-0.1 0 0 0 0.1 0 0 0 0 0 0 0 0 0 0 0 0 0 0 0-0.1 0.1 0 0.1 0 1.5-2 2.9-4.2 1.3-2.2 2.2-4.4 0.8-1.9 1.4-4 0.6-2 0.9-4.2v0.1q0.2-2.1 0.3-4.2 0-1.2-0.1-2.4 0-1.1-0.2-2.2 0 0.1 0 0.1 0 0 0-0.1c-0.3-2-0.7-3.9-1.3-5.9-0.5-1.9-1.2-3.8-1.8-5.7-0.6-1.9-1.2-3.9-1.7-5.8q-0.4-1.5-0.6-3-0.2-1.1-0.3-2.2-0.4 0.4-0.7 0.8-1.1 1.5-2 3.1-0.8 1.6-1.5 3.2c-0.5 1-0.9 2.1-1.5 3.1q-0.8 1.6-1.8 2.9-0.1 0.1-0.2 0.2 0 0-0.1 0-0.2-0.1-0.2-0.3-0.1-1-0.2-2.1v0.1q-0.2-1.2-0.4-2.4c-0.5-2.7-1.2-5.5-2.1-8.2-0.8-2.7-1.8-5.3-2.7-8-0.9-2.7-1.9-5.4-2.6-8.2q-0.6-2-1-4.2-0.4-1.7-0.6-3.4-0.4 0.5-0.7 1.1zm10.1 33.3q0 0 0 0 0 0 0 0zm13.9 20.3q0 0 0 0 0 0 0 0z"/><path fill-rule="evenodd" class="d" d="m263 418.7h0.1-0.1"/><path class="f" d="m251 383.3q-0.2 0-0.4 0.1-0.3 0.1-0.5 0.3-0.5 0.4-0.9 0.9 0 0 0 0 0 0 0 0 0 0 0 0 0 0 0 0 0 0 0 0 0 0 0 0c-0.7 1-1.3 2.2-1.8 3.3l0.1-0.1q-0.7 1.5-1.2 3.1-0.1 0.5-0.3 1c-0.2 0.6-0.3 1.2-0.3 1.8-0.2 0.9-0.2 1.8-0.4 2.6-0.1 0.8-0.2 1.6-0.5 2.4q-0.1 0.2-0.2 0.4-0.1 0.2-0.3 0.5c-0.3 0.3-0.6 0.6-0.9 0.8q-0.4 0.3-0.9 0.4-0.2 0.1-0.5 0.2 0 0 0 0 0 0-0.1 0.1-0.1 0-0.3 0-0.3 0-0.7 0-0.2 0.1-0.3 0.1-0.2 0-0.3 0.1-0.1 0-0.2 0.1-0.1 0.1-0.2 0.1-0.1 0.1-0.2 0.2-0.1 0.1-0.2 0.2 0 0 0 0-0.1 0.2-0.2 0.5-0.2 0.5-0.3 1 0-0.1 0-0.1c-0.1 0.8 0 1.7 0.1 2.5q0 0 0 0 0.2 1.5 0.6 3 0.2 0.7 0.4 1.4 0.3 0.9 0.6 1.7 0 0 0.1 0.1-0.1-0.1-0.1-0.1 0 0 0 0 0.7 1.5 1.5 2.9 0.8 1.4 1.8 2.6 1 1.4 2.2 2.6 1.1 1.1 2.3 2 0.1 0 0.3 0.1 0.5 0 1.1 0 3.5 0 6.7-0.6 0.4-0.4 0.7-0.7 0.8-0.9 1.6-1.9 1.8-2.4 3.3-5.1 1-1.8 1.8-3.7 0 0 0 0c0.8-1.8 1.4-3.7 1.7-5.6q0 0 0 0 0 0 0 0 0 0 0 0 0 0 0 0 0 0 0 0 0.1-1.4 0-2.7 0-0.1 0-0.1 0 0 0 0-0.1-0.9-0.5-1.7-0.2-0.6-0.7-1.2-0.4-0.5-0.9-0.9-0.3-0.3-0.7-0.5-0.4-0.2-0.8-0.4 0 0 0 0-0.5-0.2-1-0.3-0.3-0.1-0.6-0.2 0 0 0 0-0.4 0-0.7 0-0.3 0-0.6 0-0.3 0.1-0.7 0.1-0.2 0.1-0.5 0.1-0.3 0-0.5-0.1-0.2-0.1-0.3-0.1-0.1-0.1-0.3-0.2-0.3-0.3-0.5-0.6-0.4-0.4-0.6-0.9-0.2-0.3-0.4-0.7-0.2-0.3-0.3-0.6-0.2-0.3-0.2-0.6-0.3-0.8-0.5-1.7-0.2-1.1-0.4-2.2-0.2-1.1-0.5-2.2-0.3-1-0.7-1.9 0 0 0.1 0-0.3-0.6-0.6-1.1-0.2-0.1-0.4-0.3-0.1-0.1-0.2-0.1 0 0 0 0-0.1-0.1-0.3-0.1-0.1 0-0.2 0-0.1 0-0.2 0zm-10.2 28.7q0 0 0 0 0 0 0 0z"/><path fill-rule="evenodd" class="f" d="m249.2 384.6"/><path class="f" d="m249.2 384.6q0 0 0 0 0 0 0 0z"/><path fill-rule="evenodd" class="f" d="m249.2 384.6z"/><path fill-rule="evenodd" class="f" d="m249.2 384.6"/><path class="f" d="m242.1 400.9q0 0 0 0z"/><path class="f" d="m265.7 401.7q0 0 0 0 0 0 0 0z"/><path fill-rule="evenodd" class="f" d="m265.7 401.7"/><path class="f" d="m239.5 401.9q0 0 0 0 0 0 0 0z"/><path class="f" d="m265.7 404.5q0 0 0 0 0 0 0 0 0 0 0 0z"/><path class="a" d="m155.7 293.9c-0.4 1.3-0.7 2.6-0.9 4.4-0.2 1.6-0.3 3.2-0.4 4.7-0.1 1.6-0.2 3.2-0.4 4.8-0.3 1.9-0.7 3.6-1.3 5-0.4 1-1 2-1.7 2.9q-0.9 1.1-1.8 1.9v-0.1q0 0 0 0-0.7 0.5-1.3 0.8-0.5 0.2-1 0.3-0.2 0-0.4 0-0.2 0-0.4 0-0.3-0.1-0.6-0.2-0.3-0.1-0.6-0.3-0.3-0.3-0.6-0.7-0.4-0.5-0.6-1.1-0.3-0.7-0.5-1.6-0.1-1.1 0-2.3 0.2-1.4 0.8-2.7v-0.2q0.2-0.3 0-0.6c-0.1-0.1-0.2-0.2-0.5-0.2q0 0-0.1 0-1.8 0.4-3.2 1.6c-0.9 0.6-1.8 1.5-2.6 2.7-0.7 1-1.4 2.1-2.1 3.5-0.6 1.2-1.1 2.5-1.5 4-0.8 2.3-1.4 4.8-1.8 7.5q-0.2 1-0.3 2.1c-0.1 1.1-0.1 2.2-0.1 3.1q-0.1 1.5 0 3.1 0 1.5 0 3c0 1.4-0.1 2.7-0.2 3.9-0.3 1.6-0.7 3-1.2 4.3-0.9 2.1-2.2 4-3.5 5.8-0.9 1.3-1.8 2.6-2.6 4-1.2 2.1-2.3 4.4-3.4 7.1-1.8 4.9-3 10.1-3.5 15.6-0.5 5.4-0.1 10.6 1.1 15.6 1.2 5.1 3.4 9.8 6.3 13.6 1.6 2.1 3.4 3.9 5.4 5.5 2.1 1.7 4.4 3.1 6.9 4.2 2.7 1.3 5.6 2.2 8.7 2.8 2.2 0.5 4.5 0.7 6.7 0.7q1.2 0 2.4-0.1c2.9-0.2 5.7-0.8 8.3-1.8 2.5-1 4.9-2.3 7.1-3.9 2.2-1.7 4.2-3.5 6-5.7 1.7-2.1 3.2-4.4 4.5-6.9 1.3-2.6 2.3-5.2 3-8 0.7-2.7 1.1-5.6 1.3-8.6 0.2-2.8 0-5.8-0.5-8.9q-0.4-2.3-1-4.5c-0.4-1.4-1-3-1.9-4.9-1.2-2.6-2.6-5.1-3.9-7.5-1.5-2.7-3.1-5.5-4.3-8.3-1-2.5-1.6-4.7-1.9-6.9q-0.2-1.6-0.2-3.3c0-1.1 0.1-2.4 0.3-3.8 0.3-2.3 0.8-4.6 1.3-6.8q0.4-2.2 0.8-4.4c0.4-2.1 0.6-3.9 0.7-5.6q0.2-2.8-0.2-5.5-0.5-2.6-1.8-5.3-1-2-2.8-4c-1.4-1.6-3.1-3-4.8-4.3l-1-0.9q-0.7-0.6-1.4-1.2-0.3-0.2-0.6-0.4-0.7-0.6-1.4-1.3-1.3-1.4-2.1-3.2c-0.6-1.2-1-2.4-1.2-3.7q-0.1-0.9-0.1-1.9-0.9 1.4-1.4 3.1z"/><path class="a" d="m126.8 305.3q-0.2 0.3-0.3 0.8c-0.3 0.7-0.4 1.4-0.4 2.1-0.2 1.5-0.1 3.1 0.2 4.6q0.2 1.1 0.6 2c0.3 0.6 0.7 1.1 1.1 1.5q0.2 0.1 0.3 0.2 0.2 0.1 0.4 0.2 0.4 0.1 0.9 0.1 0.4 0 0.9-0.1 0.5-0.2 1-0.5 0.6-0.4 1-1 0.3-0.6 0.3-1.4c0-0.4-0.1-0.8-0.3-1.4-0.2-0.5-0.4-0.9-0.7-1.3-0.8-1.1-1.7-2-2.5-3q-0.8-0.9-1.5-1.9-0.3-0.5-0.6-1 0-0.2-0.1-0.3-0.2 0.2-0.3 0.4z"/><path class="a" d="m144 275.9l-0.5 0.4c-1.6 1.4-3.1 3-4.2 4.8-1.2 2-1.8 4.2-1.6 6.4 0.1 2.3 0.9 4.3 1.7 5.9q0.5 1.1 1.1 2.2c0.5 1.1 1.1 2.1 1.5 3.2q0.8 1.8 1 3.4 0.1 0.3 0.1 0.7 0.1 0.7 0.1 1.5 0 0.7-0.1 1.4 0 0.1-0.1 0.2 0.6-0.3 1.2-0.6 0.8-0.5 1.6-1 0.5-0.4 0.9-0.9 1.2-1.2 2-2.6 0.8-1.3 1.2-2.8 0.3-1.2 0.4-2.8c0-0.9-0.1-1.8-0.2-2.9q-0.1-1-0.3-2.1-0.5-1.5-0.9-3c-0.5-2-1-4-1.3-6q-0.2-1.5-0.3-3 0-1.5 0.1-3 0.1-1.5 0.5-2.8 0.1-0.4 0.2-0.7c-1.2 1.4-2.6 2.8-4.1 4.1z"/><path class="b" d="m160.9 326.3q-0.5 1-1 2h0.1c-1 2.3-1.7 4.8-2.4 7.3q-0.5 1.9-1.1 3.8c-0.4 1.3-0.9 2.5-1.5 3.7q-0.4 0.9-1 1.8-0.5 0.9-1.1 1.6c-0.3 0.5-0.7 0.9-1.1 1.2-0.3 0.2-0.6 0.4-0.9 0.6q-0.2 0.1-0.5 0.1-0.2 0.1-0.4 0-0.2 0-0.4 0-0.2-0.1-0.4-0.2-0.4-0.3-0.7-0.7-0.4-0.4-0.6-0.8c-0.5-0.9-0.8-1.8-1-2.7q-0.4-1.4-0.7-2.9-0.9 1.2-1.6 2.6-0.8 1.3-1.4 2.7 0 0 0 0-1.2 2.8-1.9 5.7-0.6 2.2-1.1 4.3c-0.4 1.5-0.7 2.9-1.2 4.3-0.4 1.4-0.9 2.8-1.5 4.1-0.6 1.3-1.3 2.5-2 3.7-1.4 2.2-2.9 4.3-4.4 6.5q-1.1 1.6-2.1 3.2-0.9 1.7-1.7 3.5 0 0 0 0-0.8 1.8-1.3 3.8-0.3 1.4-0.5 2.8c-0.4 3-0.3 5.9 0 8.9 0.5 3.2 1.3 6.3 2.6 9.3v-0.1q0.8 2.1 1.9 4 1.1 1.9 2.4 3.6 0 0 0 0 0 0 0 0 0 0 0 0 0 0 0 0 0 0 0 0 1.1 1.4 2.4 2.7 1.3 1.3 2.7 2.4 0 0 0 0 0 0 0 0 0 0 0 0 0 0 0 0 0 0 0 0 0 0 0 0 0.1 0.1 0.2 0.1c2.5 1.1 5.2 2 8.1 2.5 2.2 0.5 4.5 0.7 6.7 0.7q1.1 0 2.4-0.1c2.9-0.2 5.7-0.8 8.3-1.8q1.3-0.5 2.6-1.2 1.2-0.9 2.2-2 1.1-1 2-2.2 0 0 0 0 1.2-1.6 2.3-3.4 1-1.8 1.8-3.8 0 0 0 0c1.6-3.8 2.6-7.9 3.2-12q0 0 0 0.1 0.5-3.8 0.5-7.6 0-3.6-0.5-7.1-0.3-2.7-1-5.3-0.7-2.6-1.8-5c-1.2-2.8-2.7-5.5-4.3-8.1q-1.3-2.1-2.6-4.2-0.7-1-1.4-2.2-0.6-1.1-1.2-2.3c-1.2-2.3-2.1-4.7-2.6-7.2-0.5-2.4-0.8-4.8-0.9-7.2 0-2.5 0-5 0.1-7.5 0.1-2.4 0.1-4.9 0.1-7.3q-0.4 0.6-0.8 1.3zm13.2 81.6q0 0.1 0 0.1 0 0 0-0.1zm-4.1 7.2q0 0 0 0 0 0 0 0z"/><path class="b" d="m137.5 419.1q0 0 0 0 0 0 0 0 0 0 0 0z"/><path fill-rule="evenodd" class="b" d="m137.5 419.1"/><path class="d" d="m154.9 357q-0.4 0.7-0.7 1.4v-0.1q-0.6 1.6-1 3.2-0.4 1.5-0.6 3c-0.3 2.4-0.4 4.9-0.5 7.3q-0.2 2.1-0.4 4.1-0.2 1.1-0.4 2.1-0.1 0.7-0.3 1.4c-0.1 0.8-0.3 1.6-0.5 2.4q-0.2 0.7-0.5 1.4-0.2 0.5-0.5 1c-0.4 0.6-0.9 1.2-1.6 1.5q-0.3 0.1-0.6 0.1-0.2 0-0.5 0-0.3 0-0.5-0.1-0.3-0.1-0.5-0.2-0.4-0.3-0.6-0.7-0.2-0.4-0.3-0.9c-0.2-0.7-0.2-1.4-0.3-2.1q-0.1-0.7-0.3-1.3 0 0 0 0-0.1-0.2-0.3-0.4-0.1-0.2-0.2-0.3-0.2-0.1-0.4-0.2-0.2-0.1-0.4-0.1-0.3-0.1-0.5 0 0 0 0 0-0.3 0-0.6 0.1 0 0 0 0 0 0 0 0-0.6 0.3-1 0.7 0 0 0 0 0 0 0 0 0 0-0.1 0c-0.9 0.7-1.7 1.6-2.4 2.5q0 0 0 0 0 0 0 0 0 0 0 0 0 0 0 0.1 0-0.1 0-0.1 0 0 0 0.1 0 0 0 0c-1.1 1.4-2.1 2.9-3 4.5q-1.2 2.2-2.2 4.6v-0.1q-0.3 0.8-0.6 1.7-0.2 0.6-0.3 1.2-0.2 1.6-0.2 3.2 0.1 1.7 0.3 3.5v-0.1c0.4 3 1.2 6 2.4 8.8v-0.1c1.1 2.6 2.4 5 4.1 7.2q0 0 0 0 0 0 0 0 0 0 0 0 0 0 0 0 0 0 0 0 0 0 0 0 0 0 0 0 0 0 0 0 0 0 0 0 0 0 0 0 0 0 0 0 0 0 0 0 0 0 0 0 1 1.3 2.2 2.4 0.6 0.7 1.2 1.2 1.7 0.5 3.5 0.9 3.4 0.6 6.7 0.6 1.1 0 2.4-0.1c2.9-0.2 5.7-0.8 8.3-1.8q1.3-0.5 2.4-1.1 1.3-2 2.2-4.2c1.3-3.2 2.2-6.5 2.7-9.9 0.4-3.1 0.4-6.2 0-9.3q0 0 0 0.1-0.3-2.5-1.1-4.8c-0.7 1.7-1.2 3.4-1.9 5.1-0.7 1.6-1.6 3.3-2.8 4.6-0.1 0-0.2 0.1-0.3 0q-0.2-0.1-0.2-0.2c0-2.6 0.4-5.2 0.9-7.8 0.5-2.5 1.1-5 1.4-7.6q0.2-1.5 0.3-3.1 0-1.4-0.2-2.8 0 0 0 0 0 0 0 0 0 0 0 0 0 0 0-0.1v0.1q-0.1-1.1-0.4-2.1-0.2-1-0.6-1.9 0 0 0 0 0 0 0 0 0 0 0 0-0.4-0.8-0.8-1.5-0.4-0.7-0.8-1.4-0.8-1.2-1.6-2.5c-1-1.4-1.9-2.9-2.8-4.4q-1.3-2.3-2.4-4.6-1-2.4-1.8-5-0.3 0.5-0.5 0.9zm11.6 28.4q0 0 0 0 0 0 0 0zm-34.1 16q0 0 0 0 0 0 0 0z"/><path class="d" d="m165.6 375.5q0 0 0 0 0 0 0 0z"/><path fill-rule="evenodd" class="d" d="m165.6 375.5"/><path class="d" d="m165.6 375.5q0 0 0 0 0 0 0 0 0 0 0 0z"/><path class="d" d="m142.5 379.5q0 0 0 0 0 0 0 0 0 0 0 0z"/><path fill-rule="evenodd" class="d" d="m142.5 379.5"/><path class="d" d=""/><path class="d" d="m144.3 380.5q0 0 0 0 0 0 0 0 0 0 0 0z"/><path class="d" d=""/><path fill-rule="evenodd" class="d" d="m132.3 394.8"/><path fill-rule="evenodd" class="d" d="m138.9 417.3"/><path class="d" d=""/><path fill-rule="evenodd" class="d" d="m138.9 417.3"/><path class="f" d="m156.3 404.7q0.1 0 0.1 0c-0.6 0.1-1.2 0.3-1.7 0.5-0.9 0.4-1.8 0.9-2.8 1.4-1.1 0.6-2.2 1.1-3.4 1.6-0.6 0.2-1.2 0.4-1.9 0.4q-0.7 0.1-1.4 0.1-0.6 0-1.2-0.1-0.4 0-0.8 0-0.2 0-0.4 0.1-0.1 0-0.2 0.1-0.1 0.1-0.2 0.2-0.2 0.3-0.3 0.6v-0.1q-0.2 0.6-0.3 1.2-0.2 0.7-0.3 1.5-0.1 0.4 0 0.9 0 0.4 0 0.9 0-0.1 0-0.1 0.1 0.7 0.3 1.4 0.2 0.7 0.5 1.3 0 0 0 0 0 0 0 0 0 0 0 0c0.7 1.6 1.6 3.1 2.7 4.4q0.2 0.4 0.5 0.7 0.1 0.1 0.2 0.1c2.3 0.4 4.6 0.7 6.8 0.7q1.1 0 2.4-0.1c2.9-0.3 5.7-0.9 8.2-1.9q0.1-0.1 0.2-0.2 0 0 0 0 0 0 0-0.1 0 0 0 0 0.3-0.6 0.4-1.3 0.2-0.6 0.3-1.3 0 0.1 0 0.1 0.1-0.7 0.1-1.4 0-0.8-0.1-1.5 0 0.1 0 0.1-0.1-0.9-0.4-1.8-0.2-0.9-0.6-1.7 0 0 0 0-0.5-1.2-1.2-2.4-0.6-1-1.3-2-0.7-0.8-1.5-1.5-0.4-0.3-0.9-0.5-0.4-0.2-0.8-0.3-0.3 0-0.5 0-0.2 0-0.5 0zm6.7 6.7q0 0 0 0 0 0 0 0z"/><path class="f" d="m158.1 405q0-0.1 0-0.1 0 0 0 0.1z"/><path fill-rule="evenodd" class="f" d="m163.3 420.2z"/><path fill-rule="evenodd" class="f" d="m163.3 420.2"/><path class="f" d="m163.3 420.3q0 0 0-0.1 0 0.1 0 0.1z"/><path class="a" d="m62.7 337.7v0.3q0 0.4-0.1 0.8c-0.3 2.2-0.9 4.6-2.1 7.3-1 2.3-2.2 4.7-3.8 7.3-1.4 2.2-2.9 4.4-4.5 6.5 0 0-0.1 0.1-0.1 0.1 0.1 0 0 0 0 0q-0.9 1.2-1.9 2.3-0.5 0.7-1 1.3-0.6 0.7-1.1 1.3c-1.7 2.1-3.2 3.9-4.4 5.6-2.9 4.1-5 8-6.3 11.8-1.5 4.3-2.1 9-1.7 13.9q0.3 3.3 0.9 6.3 0.6 2.9 1.8 5.5 1.1 2.6 2.7 4.8 1.8 2.2 4 4c1.6 1.2 3.4 2.2 5.3 3.1q1.8 0.8 3.3 1.2 1.5 0.5 3.5 0.7 1.1 0.1 2.4 0.1 2.1 0 4.5-0.4c2.2-0.4 4.5-1.1 6.8-2.1 2.2-0.9 4.2-2.1 6.1-3.5 1.9-1.5 3.5-2.9 4.8-4.5q1-1.2 1.8-2.5c0.4-0.7 0.8-1.5 1.2-2.4q1-2.3 1.2-5c0.1-1.5 0-3.2-0.3-5.1-0.3-1.5-0.7-3.1-1.4-4.9-1.4-3.8-3.4-7.3-5.2-10.1-1.2-1.9-2.4-3.9-3.6-5.7q-1.3-2-2.6-4c-1.7-2.7-3.4-5.6-4.8-8.7q-0.5-1.4-0.9-2.8c-0.6-1.8-0.9-3.7-1.1-5.3q-0.1-1-0.2-2-0.1-0.7-0.3-1.5c-0.3-2-0.5-4-0.9-6q0 0 0 0 0 0 0 0 0 0 0 0c-0.2-1.5-0.6-3.1-1-4.6q-0.3-1.2-0.7-2.3-0.2-0.4-0.3-0.8-0.1 0 0 0z"/><path class="b" d="m58.1 366.3q-0.8 1.4-1.4 2.8 0 0 0 0c-1 2.5-1.8 5-2.7 7.5-0.8 2.4-1.8 4.7-3 7-0.1 0.1-0.4 0.1-0.4-0.1q-0.1-0.4-0.3-0.7 0.1 0 0.1 0.1c-0.4-0.9-0.9-1.6-1.3-2.4-0.3-0.5-0.6-1-0.8-1.6q-0.7 1.1-1.3 2.3-0.9 1.6-1.6 3.3 0 0 0-0.1c-1.2 2.9-2.2 5.9-3.2 8.9q-0.6 2-1.2 4-0.2 0.4-0.3 0.8-0.1 0.5-0.3 1-0.3 1.1-0.4 2.3-0.2 1.2-0.2 2.4 0 1.1 0.2 2.2 0 0 0 0 0.1 1.2 0.5 2.4 0.3 1.2 0.8 2.4 0.5 1.2 1.2 2.4 0.7 1.2 1.5 2.3 0-0.1 0-0.1 0 0 0 0.1 0.1 0 0.1 0 0 0 0 0 0 0 0 0 0.5 0.7 1.1 1.4 2.3 1.7 5.2 3 1.8 0.8 3.3 1.3c1 0.3 2.2 0.5 3.5 0.6q1.1 0.1 2.3 0.1 2.2 0 4.7-0.4c2.1-0.4 4.4-1.1 6.7-2.1q3.2-1.4 6.1-3.5c2-1.5 3.5-2.9 4.9-4.5q0.9-1.2 1.7-2.4 0.1-0.2 0.2-0.4 0-0.1 0-0.3 0 0 0 0.1 0.2-1.2 0.2-2.3 0-1-0.2-2.1 0 0 0 0 0 0 0 0 0 0 0 0 0 0 0 0-0.2-1.3-0.5-2.6-0.4-1.3-0.9-2.5 0 0 0 0c-1.4-3.2-3.3-6.1-5.4-8.8-2.9-3.7-6.1-7.2-9.1-10.9q-1.5-1.8-3-3.8-1.3-1.8-2.5-3.8-1.1-1.9-1.9-4-0.7-1.7-1.1-3.6-0.7 1.1-1.3 2.3zm-1.4 2.8q0 0 0 0 0 0 0 0z"/><path class="b" d="m44.1 415.5q0 0 0 0 0 0 0 0z"/><path class="b" d="m44.1 415.5q0 0 0 0 0 0 0 0z"/><path class="b" d="m44.1 415.5q0 0 0 0 0 0 0 0 0 0 0 0z"/><path class="d" d="m60.5 384.5q0 0 0.1 0-0.4 0-0.7 0.1-0.3 0.1-0.6 0.2 0 0 0 0 0 0 0 0 0 0 0 0-0.3 0.1-0.5 0.2-0.2 0.2-0.5 0.4-0.5 0.4-0.9 0.9 0 0 0 0 0 0 0 0 0 0 0 0 0 0 0 0c-0.6 0.8-1.1 1.7-1.5 2.7-0.5 1-0.9 2-1.5 2.9q-0.6 0.8-1.3 1.5-0.7 0.7-1.5 1.3c-1.1 0.7-2.1 1.4-3.2 2.2q0 0 0 0 0 0 0 0 0 0 0 0 0 0 0 0 0 0 0 0 0 0 0 0 0 0 0 0 0 0 0 0c-0.5 0.4-1 0.8-1.4 1.3q-0.7 1-1.2 2.1 0 0 0 0 0 0 0 0 0 0.1 0 0.1 0 0 0-0.1-0.3 0.8-0.5 1.6-0.2 0.8-0.3 1.5 0 0 0 0.1 0 0 0 0 0 0 0 0 0 0 0 0-0.3 2.1 0 4.2v-0.1 0.1q0 0 0 0 0 0 0 0 0.4 2.8 1.5 5.5 0-0.1 0-0.1 1.1 2.7 2.9 5.1 0.9 1.2 2 2.2 1.2 0.5 2.3 0.8c1 0.3 2.2 0.5 3.5 0.6q1.2 0.2 2.3 0.2 2.2 0 4.7-0.4 3.3-0.6 6.7-2.2 2.9-1.2 5.6-3.1 0 0 0-0.1 0.4-0.7 0.8-1.5-0.1 0.1-0.1 0.1 0.4-0.9 0.6-1.8 0.3-0.8 0.4-1.8 0 0 0 0 0 0 0 0v0.1q0.1-1.1 0.1-2.2 0-1.1-0.2-2.2c-0.2-2.2-0.9-4.2-1.7-6.2q0 0 0 0.1-1-2.5-2.4-4.7-1.4-2.2-3-4.3-1.2-1.5-2.5-2.9-1.2-1.4-2.6-2.5 0 0 0 0 0 0 0 0 0 0 0 0-0.1 0-0.1 0 0 0 0 0 0 0 0 0c-0.7-0.6-1.6-1.1-2.4-1.5q0 0 0 0-0.8-0.3-1.6-0.5 0 0 0.1 0.1-0.3-0.1-0.6-0.1-0.4 0-0.8 0.1z"/><path fill-rule="evenodd" class="d" d="m57.4 386.3z"/><path class="d" d="m57.4 386.3q0 0 0 0 0 0 0 0z"/><path fill-rule="evenodd" class="d" d="m48.4 396.9"/><path class="d" d="m45.8 400.3q0 0 0 0z"/><path class="d" d="m45.8 400.3q0 0 0 0 0 0 0 0 0 0 0 0z"/><path fill-rule="evenodd" class="d" d="m45.8 400.4v-0.1z"/><path class="d" d="m45 403.5q0-0.1 0-0.1 0 0 0 0.1z"/><path class="d" d="m45 407.7q0 0 0 0 0 0 0 0 0 0 0 0z"/><path fill-rule="evenodd" class="d" d="m45 407.7z"/><path class="f" d="m56.8 409q0.1 0 0.1 0-1 0.1-1.8 0.5 0 0 0-0.1-0.6 0.3-1.1 0.7 0 0 0-0.1-0.4 0.4-0.8 0.9-0.3 0.4-0.5 0.9 0 0 0 0-0.2 0.6-0.3 1.2 0 0 0 0.1-0.1 0.8 0 1.7v-0.1q0.2 1.3 0.7 2.4-0.1 0-0.1 0 0.6 1.4 1.6 2.7 0.9 1.1 2 2 0.3 0 0.6 0.1 1.2 0.1 2.3 0.1 2.2 0 4.7-0.4 3.3-0.6 6.8-2.1 1.3-0.6 2.6-1.4-0.6-0.9-1.3-1.9 0 0 0 0 0 0 0 0 0 0-0.1 0 0 0 0.1 0-0.1 0-0.1 0 0 0 0 0 0 0 0 0-0.8-1-1.7-1.9-0.8-0.9-1.8-1.7 0 0 0 0 0 0 0 0 0 0 0 0 0 0 0 0 0 0 0 0 0 0 0 0 0 0 0 0-0.1 0-0.1 0 0 0 0 0-0.9-0.7-1.9-1.3-1-0.6-2.1-1 0 0 0 0-1.1-0.5-2.2-0.8-1.2-0.3-2.3-0.5 0 0 0 0-0.9-0.1-1.9-0.1-0.7 0-1.4 0.1zm-1.7 0.5q0 0 0 0 0 0 0 0z"/><path fill-rule="evenodd" class="f" d="m68.6 412.6z"/><path fill-rule="evenodd" class="f" d="m68.6 412.6"/><path class="f" d="m52.4 413.1q0-0.1 0-0.1 0 0 0 0.1z"/><path fill-rule="evenodd" class="f" d="m72.3 416.2"/><path fill-rule="evenodd" class="f" d="m72.3 416.2"/><path class="a" d="m710 267.7c-0.7 0-1.4 0.3-2.1 0.9q-0.9 0.7-1.3 1.4-0.4 0.6-0.5 1.5c-0.1 0.5 0 1 0.1 1.6 0.1 0.6 0.3 1.1 0.6 1.8 0.5 1.3 1.3 2.6 2 3.8q0.6 1.1 1.3 2.2 0.1 0.2 0.2 0.3c0.6 1.1 1.1 2.1 1.6 3.2q0.4 0.8 0.6 1.6l0.1 0.2q0.1-0.1 0.1-0.2c0.6-1.4 1.1-2.9 1.6-4.4q0.4-1.1 0.6-2.2c0.3-0.9 0.4-1.6 0.5-2.2 0.1-0.7 0.1-1.4-0.1-2.3q-0.2-1.3-0.6-2.5-0.5-1.3-1.2-2.4-0.6-1.1-1.5-1.7c-0.6-0.4-1.2-0.6-1.9-0.6z"/><path class="a" d="m704.7 221.9q-1.3 0.8-2.8 2.1c-1.8 1.6-3.4 3.5-4.8 5.2q-0.7 0.9-1.3 1.7c-1 1.3-2.1 2.6-3.1 3.8q-1.2 1.3-2.3 2.4c-0.7 0.7-1.5 1.3-2.5 2.1 0 0 0 0 0 0 0 0-0.1 0.1-0.1 0.1-1.4 1.1-3 2.1-4.5 3.1l-0.8 0.6c-1.7 1.1-3.6 2.4-5.3 3.9-1.8 1.5-3.2 3.1-4.3 4.8-1.3 1.9-2.1 4.1-2.6 6.3q-0.5 2.9 0.1 5.7c0.3 1.5 0.9 3 1.9 4.8 0.7 1.3 1.4 2.5 2.2 3.7 1.1 1.7 2.2 3.5 3.1 5.4q0.2 0.5 0.3 0.9c0.6 1.2 1.1 2.5 1.4 3.8q0.2 1.2 0.1 2.5c0.7-0.5 1.4-1 2.2-1.6q1.1-0.9 2-1.8 1.7-1.7 3.1-4.1c1.2-2.1 2-4.4 2.9-6.5q0.5-1.4 1.1-2.8v-0.1c0.6-1.4 1.1-2.5 1.7-3.5q0.6-1.1 1.5-2.2 1.7-2.2 3.9-4 2.4-1.7 4.9-2.8 2.4-1 4.8-1.4 1-0.1 1.9-0.1 0.9 0 1.7 0.1 1.4 0.2 2.7 0.7 1.2 0.6 2.3 1.3 0.9 0.8 1.8 1.8l0.1 0.1c0.5 0.9 1.1 1.8 1.6 2.9q0.4 0.9 0.6 1.8 0.2-0.4 0.4-0.9 0.5-1.2 1-2.4 0.4-1.3 0.6-2.5 0.2-1.2 0.3-2.3 0-1.1-0.1-2.1 0 0 0 0-0.1-1.5-0.5-3-0.3-1.5-0.9-2.9-0.6-1.6-1.4-3.1-0.7-1.4-1.7-2.8h0.1-0.1q0 0 0 0 0 0 0 0 0 0 0 0 0 0 0 0 0 0 0 0-0.1-0.2-0.3-0.5-1.1-1.5-2.4-2.8-1.3-1.2-2.5-2.3-1.2-1.1-2.2-2.1-0.7-0.6-1.3-1.2c-0.7-0.7-1.4-1.4-1.9-2.2q-0.4-0.6-0.7-1.2-0.3-0.6-0.4-1.2-0.1-0.7-0.2-1.4 0-0.6 0.1-1.2c0.1-1.4 0.6-2.9 1.4-4.1q-1.5 0.7-2.8 1.5z"/><path class="a" d="m717.9 240.6z"/><path class="a" d="m717.9 240.6z"/><path class="a" d="m694.7 280.9q-0.2 1.7-0.9 3.3-0.7 1.7-2.1 3.5c-2 2.6-4.6 4.7-7.1 6.7l-0.7 0.6c-2.6 2.1-5.7 4.7-8.2 7.7q-1.8 2.1-3.2 4.4-1.4 2.3-2.4 5.1c-1.4 3.7-1.8 7.7-1.4 11.6 0.5 3.8 2 7.7 4.4 11.1 0.5 0.7 1.1 1.5 1.8 2.2 0.6 0.6 1.2 1.1 2 1.7l0.5 0.5c1.2 0.9 2.5 1.9 3.4 3.1q0.5 0.5 0.7 1.1 0.3 0.6 0.4 1.3 0 0.6 0 1.2-0.1 0.6-0.4 1.4-0.4 0.8-1.1 1.8c-0.9 1.1-2.1 2.2-3.7 3.5-2.2 1.7-4.6 3.1-6.8 4.6l-0.2 0.1-0.6 0.3c-1.8 1.2-3.8 2.4-5.5 3.8-0.4 0.4-0.9 0.9-1.3 1.3-0.7 0.7-1.3 1.4-1.9 2.2q-1.8 2.1-3.3 4.5c-2 3.1-3.5 6.6-4.5 10.2-0.5 1.7-0.9 3.5-1.1 5.5q-0.3 2.7-0.2 5.5c0.2 1.8 0.5 3.7 1 5.5 0.4 1.6 1 3.2 1.9 4.9 1.2 2.4 2.8 4.8 4.8 7 1.8 2 4 3.9 6.4 5.6 2.3 1.6 4.8 2.9 7.7 4.1 2.7 1.2 5.5 2.1 8.5 2.7 4.2 1 8.7 1.5 13.3 1.5q2.3 0 4.6-0.1c6.1-0.5 11.8-1.8 16.9-4q2-0.9 3.8-2 2.3-1.4 4.4-3.2c2.5-2.2 4.5-5 5.9-8.1 1.7-3.6 2.7-7.9 2.9-12.6 0-1 0-2.1 0-3.4-0.1-1.1-0.2-2.3-0.3-3.4v-0.2c-0.2-2.1-0.4-4.5-0.2-6.8q0.3-1.9 1-3.6c0.8-1.8 1.9-3.4 2.9-4.9l0.4-0.6c0.9-1.4 1.8-2.7 2.6-4.1q1.5-2.6 2.3-5.1 0.8-2.7 0.8-5.8c0-1.6-0.2-3.3-0.5-5.2q-0.5-2.7-1.5-5.2c-1.6-4.1-3.9-7-6.9-8.5q-1.3-0.7-2.9-1c-0.8-0.2-1.8-0.2-3-0.3q-0.4 0-0.8 0-0.5 0-1.1 0-0.5 0-1 0h-0.2q-1.6 0-2.9-0.1c-1.2-0.2-2.2-0.4-3.1-0.8q-0.6-0.3-1.2-0.7-0.3-0.3-0.6-0.6-0.2-0.3-0.3-0.6-0.2-0.4-0.3-0.9 0-0.8 0.1-1.7c0.2-1.2 0.5-2.4 0.9-3.5q0.4-1.1 0.8-2.1 0.3-0.8 0.6-1.6c0.4-1.1 0.8-2.3 1-3.6q0.1-0.9 0.1-1.7 0-1-0.2-2.2c-0.3-1.3-0.8-2.4-1.5-3.4q-1-1.4-2.6-2.4c-0.9-0.5-1.9-0.9-3.3-1.4-1.2-0.3-2.5-0.6-3.6-0.7q-1.8-0.3-3.5-0.5-0.9-0.1-1.9-0.2h0.2c-1.2-0.2-2-0.3-2.8-0.5q-1.5-0.3-2.9-0.9-1.5-0.7-2.6-1.5-0.6-0.5-1.1-1.1-0.5-0.6-0.8-1.3-0.2-0.7-0.3-1.4-0.2-1.1 0-2.5c0.3-1.7 0.7-3.4 1.2-5.1q0.1-0.5 0.2-0.9c0.2-1 0.4-2.1 0.5-3.1q0 0 0 0.1 0.1-1.4 0.1-2.8-0.1-1.4-0.3-2.8 0 0.1 0 0.1 0 0 0-0.1-0.1-0.3-0.2-0.6 0 0 0 0.1zm0.2 0.5q0 0 0 0 0 0 0 0z"/><path class="b" d="m681.5 307.2q-0.4 0.4-0.7 0.9 0 0 0 0 0 0 0 0 0 0 0 0-0.6 0.7-1 1.5-0.4 0.6-0.7 1.4 0-0.1 0-0.1 0 0.1 0 0.1-0.3 0.7-0.5 1.5-0.2 0.7-0.3 1.4 0 0 0 0 0 0 0 0-0.1 0.9-0.1 1.9 0 1 0.1 2 0-0.1 0-0.1 0.2 1.4 0.6 2.7 0.4 1.3 0.9 2.5v-0.1c1 2.4 2.4 4.7 3.9 6.7q0 0 0 0 0.1 0.1 0.1 0.1 0 0-0.1-0.1 0 0 0 0 0 0 0 0 0.1 0.1 0.1 0.1 0 0 0 0 0.9 1.2 2 2.3 0.4 0.4 0.8 0.9 0.3 0.4 0.7 0.8 1.4 1.9 2.5 4c1.5 3 2.5 6.3 2.8 9.6 0.3 2 0.3 4 0 6-0.3 2-0.8 3.8-1.7 5.6-0.9 1.7-2.1 3.2-3.6 4.4q-1.2 0.9-2.5 1.6-1.5 0.7-3.1 1.2c-0.1 0-0.3-0.2-0.3-0.4q0.5-1.4 0.8-2.9 0.4-1.5 0.6-3 0.2-1.2 0.2-2.5 0-0.7 0-1.4-0.1-0.6-0.1-1.2 0 0 0-0.1 0 0.1 0 0.1 0 0 0-0.1-0.1-0.1-0.1-0.3-0.7 1.4-1.5 2.6-1.1 1.5-2.3 2.8c-1.6 1.8-3.4 3.4-5.3 4.9-1.9 1.5-3.8 2.9-5.6 4.5q-1.4 1.1-2.7 2.4-1.3 1.3-2.4 2.7-0.5 0.7-1 1.4-0.5 0.8-0.9 1.6-1.1 1.8-1.9 3.6 0 0 0 0-0.7 1.7-1.1 3.4-0.4 1.5-0.7 3 0 0 0-0.1-0.2 1.5-0.2 3 0 1.4 0.2 2.7 0 0 0 0 0 0 0 0 0.3 1.7 0.7 3.4 0.5 1.7 1.2 3.3 0 0 0 0c1.7 3.9 4.1 7.6 6.5 11.1 1.3 1.9 2.6 3.8 3.8 5.7q1.7 0.9 3.5 1.7c2.7 1.1 5.5 2 8.4 2.7 4.4 1 8.8 1.5 13.4 1.5q2.2 0 4.6-0.2c6.1-0.5 11.8-1.8 16.9-4q1.9-0.9 3.8-2 1-0.6 2-1.3 0.2-0.2 0.5-0.4 1.1-1.1 2-2.4 0 0.1 0 0.1 0.8-1 1.4-2 0.6-1 1-2.1 0 0.1 0 0.1 0.4-1 0.7-2 0.2-1 0.4-2 0.1-0.9 0.1-1.9 0-0.5 0-1.1 0-0.5-0.1-0.9 0 0 0 0.1-0.3-2-1-3.9c-0.4-1.2-0.9-2.3-1.4-3.5-0.5-1.4-1-2.8-1.4-4.3-0.3-1.5-0.5-3-0.5-4.6q0.2-2.2 0.8-4.2 0.7-2.1 1.8-4c0.7-1.3 1.6-2.7 2.4-4q1.3-1.9 2.6-3.9c1.6-2.4 3.1-4.9 4.3-7.5q0 0-0.1 0 0.1 0 0.1 0 0 0 0-0.1 0 0 0 0 0 0 0 0 0 0 0 0.1 0.4-1.2 0.8-2.3 0.3-1.1 0.5-2.3-0.1 0-0.1 0.1 0.2-0.9 0.2-1.7 0-0.9-0.2-1.7-0.1-0.9-0.3-1.8-0.3-0.8-0.6-1.6 0 0 0 0.1-0.4-1.1-1-2-0.4-0.7-0.8-1.3 0.5 1.5 0.6 3.1 0.2 1.8-0.1 3.6-0.3 1.9-0.9 3.8-0.7 1.8-1.7 3.5-0.9 1.8-2.2 3.5-1.1 1.5-2.5 2.9c-1.8 1.7-3.7 3.2-6 4.3q-0.1 0-0.2 0-0.1-0.1-0.1-0.3 0 0 0-0.1 0 0 0-0.1 0-0.1 0.1-0.2 0 0 0 0 0-0.1 0.1-0.1 0-0.2 0.1-0.3 0.3-0.5 0.5-1 0.7-1.7 1.4-3.4v0.1q1.4-3.4 2.7-6.8 0.6-1.6 1.1-3.1 0.2-0.6 0.3-1.2 0.2-0.4 0.2-0.9 0 0 0 0.1 0-0.2 0-0.4 0-0.2 0-0.4 0-0.3-0.1-0.7 0 0 0 0 0 0 0 0 0 0 0 0-0.1-0.9-0.3-1.9-0.3-0.8-0.6-1.6-0.2-0.6-0.6-1.2-0.3-0.5-0.7-1 0 0 0 0 0 0 0 0 0 0 0 0 0 0 0 0 0 0 0-0.1 0 0 0 0 0 0 0 0 0 0 0 0-0.5-0.6-1.1-1.2-0.6-0.5-1.2-1 0 0 0 0 0 0 0 0 0 0 0 0 0 0 0 0 0 0 0 0 0 0 0 0c-1.1-0.8-2.2-1.5-3.4-2.1q-1-0.6-2-1.1-1-0.6-2-1.1-1.7-1.1-3.4-2.2-1.4-1-2.6-2.1c-1.2-1.1-2.3-2.4-3-3.9-0.8-1.4-1.3-2.9-1.6-4.5-0.4-1.8-0.6-3.7-0.8-5.5-0.3-2.3-0.5-4.6-0.8-6.8q-0.4 0.3-0.9 0.6c-1.2 1-2.4 2.1-3.6 3q-0.8 0.7-1.7 1.3-0.8 0.5-1.6 0.9c-0.6 0.3-1.2 0.6-1.8 0.7q-0.8 0.2-1.7 0.2-0.9 0-1.7-0.3-0.7-0.2-1.4-0.5-0.6-0.4-1.2-0.9-0.5-0.5-1-1.1c-0.7-0.8-1.2-1.8-1.6-2.7q-0.6-1.5-1.1-3.1c-0.4-1.1-0.7-2.1-1-3.2-0.3-0.9-0.5-1.8-0.9-2.7q-0.4 0.3-0.8 0.7zm-2.4 3.7q0 0 0 0 0 0 0 0zm3.7 48.8q0 0 0 0 0 0 0 0z"/><path class="b" d="m687.3 317.9z"/><path class="b" d="m687.3 317.9z"/><path fill-rule="evenodd" class="b" d="m683.8 329.6"/><path fill-rule="evenodd" class="b" d="m687 334z"/><path class="b" d="m703.1 237.2q-0.3 0-0.7 0.1-0.1 0-0.1 0 0 0 0 0 0 0 0 0 0 0 0 0-1.2 0.2-2.4 0.7 0-0.1 0.1-0.1-0.7 0.3-1.4 0.7-0.6 0.4-1.1 0.8c-1.2 0.9-2.1 2-3 3.1q0 0 0 0 0 0 0 0 0 0 0 0 0 0 0 0-0.1 0-0.1 0 0 0 0.1 0-0.1 0-0.1 0 0 0 0 0-0.2 0.4-0.5 0.8c-1.2 1.7-2.3 3.5-3.3 5.3q-0.8 1.3-1.6 2.6-0.7 1.1-1.6 2.2-0.6 0.8-1.3 1.5-0.3 0.3-0.6 0.5-0.2 0.2-0.5 0.4-0.3 0.1-0.6 0.2-0.2 0.1-0.4 0.1-0.2 0-0.4 0-0.2-0.1-0.4-0.2-0.2-0.1-0.3-0.3-0.2-0.2-0.3-0.4-0.3-0.5-0.4-1.1c-0.3-0.8-0.4-1.7-0.5-2.6q0 0 0 0-0.6 0.7-1 1.5-0.5 0.8-0.9 1.7l0.1-0.1q-0.4 1-0.7 2-0.3 0.9-0.4 1.9 0 0 0 0-0.1 1.2-0.1 2.5 0 1.2 0.1 2.5 0.3 1.6 0.7 3.2 0.5 1.7 1.1 3.2 0.2 0.4 0.4 0.9 0.3 0.5 0.5 1 0.4 0.9 0.7 1.8c0.4 1.2 0.8 2.5 0.9 3.7q0.1 1.1 0.1 2.1-0.1 1-0.3 1.9-0.2 0.6-0.4 1.2 0.6-0.5 1.2-1.1 1.6-1.7 3-4.1c1.2-2.1 2.1-4.5 2.9-6.5l0.1-0.2 0.1-0.3q0.4-1.1 0.9-2.3v-0.1c0.6-1.3 1.1-2.4 1.7-3.4q0.7-1.2 1.5-2.3 1.7-2.2 3.9-3.9 2.4-1.8 4.9-2.9 2.4-1 4.8-1.4 0.9-0.1 1.9-0.1 0.9 0 1.7 0.1 1.5 0.2 2.7 0.7 1.2 0.6 2.3 1.4 0.9 0.7 1.8 1.7l0.1 0.2c0.6 0.8 1.1 1.8 1.6 2.8q0.2 0.5 0.3 0.9 0.1-0.9 0.1-1.7 0-0.8-0.1-1.5 0 0 0 0 0 0 0 0 0-0.1 0-0.1 0 0 0 0.1 0-0.1 0-0.1-0.1-0.9-0.4-1.7-0.2-0.9-0.5-1.7 0 0 0 0-0.5-1.2-1.2-2.3-0.6-1-1.3-1.9-0.1-0.1-0.1-0.1 0 0.1 0.1 0.1-0.1-0.1-0.1-0.1 0 0 0 0 0 0 0 0 0 0 0 0 0 0 0 0 0 0 0 0 0 0 0 0 0 0 0 0-1.3-1.7-2.9-3.2-0.4-0.4-0.7-0.7-0.4-0.3-0.7-0.6-0.5-0.6-0.9-1.2c-1.3-1.6-2.2-3.6-3.5-5.2q-0.6-0.9-1.4-1.5 0 0 0 0 0 0 0 0 0 0 0 0 0 0 0 0 0 0-0.1 0h0.1q-0.6-0.4-1.2-0.7 0 0 0.1 0-0.4-0.1-0.7-0.2-0.3-0.1-0.6-0.1 0 0 0 0-0.3-0.1-0.7-0.1 0 0-0.1 0zm15.9 17.7q0 0.1 0 0.1 0 0 0-0.1zm-40.2 8.6q0 0 0 0 0 0 0 0z"/><path class="b" d="m702.3 237.3q0 0 0 0 0 0 0.1 0-0.1 0-0.1 0z"/><path fill-rule="evenodd" class="b" d="m702.3 237.3"/><path fill-rule="evenodd" class="b" d="m702.3 237.3"/><path fill-rule="evenodd" class="b" d="m702.3 237.3"/><path fill-rule="evenodd" class="b" d="m702.3 237.3z"/><path fill-rule="evenodd" class="b" d="m706.3 238.3"/><path class="b" d="m706.3 238.3q0 0 0 0 0 0 0 0z"/><path fill-rule="evenodd" class="b" d="m706.3 238.3"/><path fill-rule="evenodd" class="b" d="m719.9 261.7z"/><path class="b" d="m687.3 317.9z"/><path class="b" d="m687.3 317.9z"/><path fill-rule="evenodd" class="b" d="m683.8 329.6"/><path fill-rule="evenodd" class="b" d="m687 334z"/><path fill-rule="evenodd" class="b" d="m719.9 261.7z"/><path class="d" d="m682.3 306.4q-0.4 0.4-0.8 0.8-0.4 0.4-0.7 0.9-0.6 0.7-1 1.5-0.4 0.6-0.7 1.3-0.3 0.8-0.5 1.6-0.2 0.6-0.3 1.4-0.1 1-0.1 1.9 0 0.9 0.1 2c0.1 0.8 0.3 1.8 0.6 2.6q0.3 1.2 0.9 2.5c0.9 2.2 2.2 4.5 3.9 6.6q1 1.3 2.1 2.4l0.1 0.2q0.4 0.4 0.7 0.7 0.3 0.4 0.7 0.9 1.4 1.8 2.5 3.9c1.5 3.1 2.5 6.3 2.8 9.6q0.4 3.2 0 6-0.5 3.1-1.7 5.6c-0.9 1.7-2.2 3.2-3.6 4.4q-1.2 1-2.5 1.6-1.4 0.7-3.1 1.1-0.2 0-0.2-0.1-0.1 0-0.1-0.1c0.4-1.3 0.7-2.2 0.9-3q0.3-1.5 0.5-3c0.2-1 0.2-1.8 0.2-2.5q0-0.7 0-1.4 0-0.6-0.1-1.2 0-0.2-0.1-0.4-0.7 1.4-1.6 2.6-1 1.5-2.2 2.8c-1.8 1.9-3.8 3.6-5.3 4.8q-0.9 0.7-1.8 1.5h-0.1c-1.2 1-2.5 2-3.7 3-1.1 0.9-2 1.7-2.7 2.5q-1.3 1.3-2.4 2.7c-0.4 0.5-0.7 0.9-1 1.4q-0.5 0.8-1 1.6-1 1.9-1.8 3.6c-0.5 1.2-0.9 2.3-1.2 3.4q-0.4 1.5-0.6 3c-0.1 1-0.2 2-0.2 2.9q0 1.3 0.2 2.7 0.2 1.7 0.7 3.4c0.3 1.1 0.7 2.2 1.2 3.3 1.6 3.9 3.9 7.3 6.5 11.1l0.9 1.4 0.1 0.2q1.4 2.1 2.8 4.1c1.1 0.6 2.3 1.1 3.5 1.7 2.7 1.1 5.5 2 8.4 2.7 4.4 1 8.8 1.5 13.4 1.5q2.2 0 4.6-0.2c6.1-0.4 11.8-1.8 16.9-4q1.9-0.9 3.8-2 1.1-0.6 2-1.2 0.2-0.3 0.5-0.5 1.1-1.1 2.1-2.3 0.7-1 1.3-2 0.6-1 1-2.1 0.4-1 0.7-1.8 0.3-1.1 0.4-2.1c0.1-0.7 0.2-1.3 0.2-1.9q0-0.5-0.1-1.1 0-0.5-0.1-0.9-0.2-1.8-1-3.8-0.5-1.4-1-2.8l-0.3-0.7c-0.6-1.4-1.1-2.8-1.5-4.3q-0.5-2.4-0.4-4.6 0.1-2.2 0.8-4.2 0.6-2 1.7-4c0.7-1.2 1.4-2.4 2.4-4q0.6-0.8 1.1-1.6l0.4-0.6 1.1-1.7c1.6-2.5 3.1-4.9 4.3-7.5 0.4-0.9 0.6-1.6 0.8-2.3q0.3-1.1 0.5-2.3 0.1-0.9 0.1-1.6 0-0.9-0.1-1.7-0.2-0.9-0.4-1.8-0.2-0.8-0.6-1.6-0.4-1-1-1.9-0.4-0.7-0.8-1.3 0.5 1.5 0.6 3.1 0.2 1.7-0.1 3.6-0.3 1.9-1 3.8-0.7 1.9-1.6 3.5-1 1.9-2.2 3.4c-0.8 1.2-1.7 2.1-2.5 3-1.9 1.9-3.9 3.3-6 4.2q0 0.1-0.1 0.1-0.1 0-0.1-0.1-0.1 0-0.1-0.2c0-0.1 0-0.2 0-0.2q0.1-0.2 0.1-0.2 0.1-0.1 0.1-0.1 0.1-0.2 0.1-0.3 0.3-0.5 0.5-1 0.7-1.7 1.4-3.4c1.1-2.5 2-4.7 2.7-6.7 0.4-1 0.8-2.1 1.1-3.1q0.2-0.6 0.4-1.2 0.1-0.4 0.1-0.9 0.1-0.1 0.1-0.3 0-0.1 0-0.2l-0.1-0.1v-0.1-0.4-0.3c-0.1-0.7-0.3-1.3-0.4-1.9q-0.2-0.8-0.6-1.6-0.3-0.7-0.6-1.2-0.3-0.5-0.7-1-0.5-0.7-1.1-1.3-0.5-0.5-1.2-1c-0.9-0.7-2-1.4-3.4-2.2q-0.5-0.3-1.1-0.6l-0.2-0.1-0.7-0.4q-1-0.5-1.9-1c-1.4-0.8-2.5-1.5-3.5-2.3-1.1-0.7-1.9-1.4-2.5-2q-2-1.9-3.1-3.9c-0.7-1.3-1.2-2.8-1.6-4.5-0.4-1.8-0.6-3.6-0.8-5.6l-0.2-1.7-0.1-0.6q-0.2-2.2-0.5-4.4-0.5 0.3-0.9 0.6-0.9 0.7-1.8 1.5l-0.1 0.1q-0.9 0.7-1.7 1.4c-0.5 0.4-1.1 0.8-1.7 1.2-0.6 0.5-1.1 0.8-1.6 1-0.7 0.3-1.3 0.6-1.8 0.7q-0.9 0.2-1.6 0.2c-0.7 0-1.3-0.1-1.8-0.3q-0.8-0.2-1.4-0.5-0.6-0.4-1.2-0.9-0.5-0.5-1-1.1-0.8-1.1-1.6-2.7-0.6-1.4-1.1-3.1-0.3-1-0.6-2-0.2-0.6-0.4-1.2c-0.2-0.9-0.5-1.8-0.9-2.7q0-0.1 0-0.1z"/><path class="b" d="m687.3 317.9z"/><path class="b" d="m687.3 317.9z"/><path fill-rule="evenodd" class="b" d="m687 334z"/><path fill-rule="evenodd" class="b" d="m719.9 261.7z"/><path class="f" d="m701.3 333.3q-0.5 1.2-0.8 2.4-0.3 1.2-0.5 2.3c-0.5 4.3 0.1 8.6 0.6 12.8 0.3 2.1 0.6 4.3 0.7 6.4 0 2.1 0 4.2-0.4 6.2q-0.3 1.7-0.9 3.4-0.6 1.7-1.6 3.3-0.9 1.4-2 2.6-0.6 0.7-1.3 1.4-1.9 2-3.8 3.9-2.1 2.1-4.3 4-0.9 0.7-1.8 1.4-0.3 0.3-0.7 0.6-0.3 0.2-0.6 0.3-0.6 0.3-1.4 0.6-0.5 0.3-1 0.4-0.5 0.2-1 0.2-0.3 0.1-0.6 0-0.4-0.1-0.6-0.3-0.3-0.1-0.4-0.4c-0.3-0.5-0.4-1-0.5-1.6-0.2-0.8-0.2-1.6-0.3-2.4q-0.1-1.2-0.2-2.4c-0.8 1.9-1.8 3.7-2.7 5.6-1.2 2.2-2.3 4.4-3.3 6.8q0-0.1 0-0.1c-1 2.3-1.8 4.7-2.1 7.2q0 0 0-0.1-0.1 1.2-0.1 2.3 0 1 0.1 2 0.2 1.2 0.5 2.3 0.3 1.1 0.7 2.1 0 0 0 0 0.6 1.4 1.4 2.7 0.8 1.3 1.7 2.5c2.7 3.5 6.1 6.4 9.4 9.3 3.7 0.7 7.5 1.1 11.4 1.1q2.1 0 4.6-0.2c6.1-0.4 11.8-1.8 16.9-4q0.4-0.2 0.8-0.4 0.3-0.2 0.5-0.5 0.8-1.1 1.4-2.4 0.6-1.4 0.8-3c0.2-1.6 0.1-3.2-0.1-4.7q0 0 0 0 0 0 0 0c-0.3-2.5-1-4.9-1.7-7.3q-0.9-2.6-1.7-5.2c-0.6-1.6-1.1-3.3-1.6-5-0.4-1.6-0.7-3.2-0.8-4.8q-0.1-1.2-0.1-2.3 0-0.5 0.1-0.9c-1.2 1.9-2.2 3.9-3.3 5.9-1.2 2.1-2.5 4.3-4.3 6.1-0.1 0.1-0.3 0.1-0.4-0.1q-0.6-1.2-0.9-2.6-0.3-1.3-0.3-2.6c0-1.9 0.4-3.9 0.9-5.7 0.6-2 1.4-4 2.2-5.9 0.8-2 1.7-4 2.6-5.9h-0.1c0.7-1.5 1.3-3 1.8-4.5 0.4-1.4 0.8-2.8 1-4.2q0.1-1 0.1-1.9 0-1.2-0.2-2.3-0.1-1.2-0.5-2.3-0.3-1.1-0.7-2.1 0 0 0 0c-0.8-1.8-1.8-3.4-2.9-5-1.1-1.6-2.2-3.1-3.3-4.7-1.1-1.7-2.1-3.4-2.9-5.2q-0.6-1.5-1-3-0.3-1.2-0.4-2.3-0.1 0.1-0.1 0.2zm11.8 24.4q0 0 0 0 0 0 0 0zm-42.1 48.8q0 0 0 0 0 0 0 0z"/><path class="a" d="m812.7 294.5q-0.4 0.2-0.7 0.4-0.4 0.2-0.7 0.5-0.5 0.6-0.6 1.3-0.2 0.7 0.1 1.6c0.1 0.5 0.3 1 0.7 1.7 0.3 0.5 0.6 1 1.1 1.7q0.7 0.9 1.3 1.6 0.5 0.6 1.1 1.1 0.5 0.6 1.2 1.2c0.8 0.8 1.6 1.6 2.4 2.4q0.2 0.3 0.5 0.6 0 0 0 0c0.1-0.5 0.1-1 0-1.4 0-0.8-0.1-1.5-0.2-2.1q-0.5-2.4-1.4-5-0.5-1.3-1-2.4-0.6-1.1-1.2-1.8-1.1-1.4-2.1-1.4-0.3 0-0.5 0z"/><path class="a" d="m803.6 304.6c-2 2.2-3.7 4.1-5.2 6-1.9 2.5-3.5 4.8-4.8 7q-1 1.8-1.8 3.7c-0.5 1.2-1 2.4-1.3 3.6-0.8 3.1-1.1 6.4-1.2 9.1q-0.1 1.1-0.2 2.2c-0.1 2.1-0.2 4.3-0.5 6.5q-0.3 1.8-0.6 3.3-0.4 1.7-1 3.5-0.4 1-0.8 2-0.2 0.5-0.4 1.1-0.4 0.8-0.6 1.6c-0.1 0.5-0.2 1-0.3 1.7q0.1 0 0.1-0.1 0.3-0.7 0.8-1.4 1-1.5 2.2-2.7c1-1 2.1-1.9 3.1-2.9q0.6-0.7 1.2-1.4c1.5-1.7 2.5-3.2 3.2-4.8 0.8-2 1.3-4.3 1.4-6.8 0-1 0-2-0.1-3v-0.1c0-0.8-0.1-1.8 0-2.7q0-0.1 0-0.2c0.1-0.6 0.2-1 0.4-1.4q0.1-0.3 0.3-0.6 0.3-0.4 0.7-0.7 0.4-0.3 1-0.6 0.9-0.3 1.7-0.4 0.2-0.1 0.4-0.1 0.2 0 0.4 0.1 0.4 0 0.9 0.2 0.4 0.2 0.7 0.4 0.3 0.1 0.5 0.2 0.5 0.3 0.9 0.3 0.2 0 0.4-0.1 0.4-0.1 0.6-0.4c0.2-0.3 0.3-0.6 0.5-0.9 0.1-0.4 0.2-0.8 0.3-1.2 0.2-0.7 0.3-1.3 0.4-1.9q0.1-0.7 0.1-1.6 0-0.4 0-0.9v0.1q0-1.7-0.2-3.3-0.3-1.6-0.6-3.3-0.3-1.5-0.6-3.1-0.3-1.5-0.7-2.9 0 0 0 0.1-0.1-0.5-0.3-0.9 0 0 0-0.1-0.2-0.5-0.4-0.9-0.1-0.3-0.2-0.6-0.2-0.3-0.3-0.6 0-0.1 0-0.2-0.1 0.1-0.1 0.1z"/><path class="a" d="m788.5 351.9q0 0 0 0 0.1 0 0.1-0.1-0.1 0.1-0.1 0.1z"/><path class="a" d="m800.7 344.8q-0.6 1-1.2 1.9c-0.9 1.4-1.9 2.8-3.2 4.5-2.6 3.3-5.4 6.6-8.2 9.7-3.1 3.5-6.4 7.2-9.2 11-1.5 2-2.7 3.7-3.7 5.5-1.2 1.9-2.1 3.8-3 5.9-1.7 4.2-2.6 8.5-2.5 12.8 0 2.2 0.2 4.4 0.7 6.4q0.7 2.7 2 5.3c1.7 3.2 4 6.1 6.9 8.3q2.2 1.7 4.6 3 2.4 1.2 5.1 1.9 2.5 0.7 5.3 1 1 0 2 0 1.6 0 3.3-0.2c2-0.2 3.7-0.6 5.4-1.2q2.7-1 5-2.6 2.4-1.5 4.4-3.8c0.7-0.7 1.4-1.6 2.1-2.6q1.3-1.7 2.3-3.9 0.9-1.9 1.5-3.9c0.3-1.1 0.5-2.4 0.7-3.8 0.3-2.3 0.2-4.9-0.1-7.6-0.5-3.5-1.5-7.1-2.5-10.5q-0.2-0.9-0.5-1.9-0.7-2-1.3-4c-0.5-1.8-1-3.7-1.2-5.6q-0.1-1.3 0-2.6 0-0.5 0-1 0 0 0 0 0 0 0 0 0 0 0 0-0.5 0.4-0.9 0.8-0.4 0.4-0.9 0.9c-0.4 0.5-0.8 0.9-1.2 1.3q-0.6 0.5-1.2 0.8-0.5 0.3-1 0.5-0.5 0.1-0.9 0.1-0.5-0.1-0.8-0.2-0.4-0.2-0.7-0.5-0.2-0.2-0.4-0.4-0.1-0.1-0.3-0.2-0.3-0.4-0.5-0.9-0.1 0-0.1-0.1-0.3-0.4-0.5-1-0.5-1.3-0.8-2.9c-0.2-1.6-0.1-3.2 0-4.7 0.1-1.4 0.2-2.8 0.1-4.2-0.1-1.2-0.4-2.4-0.7-3.6l-0.2-0.7c-0.2-0.9-0.4-1.9-0.6-2.9q-0.3-1.4-0.5-2.7-0.3-1.9-0.3-3.7 0-0.7 0.1-1.3c-0.9 1.1-1.7 2.4-2.4 3.6z"/><path class="b" d="m798.8 361.5q-0.7 1.4-1.3 2.9v-0.1c-0.6 1.7-1.3 3.4-2.1 5q-0.5 1.2-1.3 2.4-0.7 1.1-1.5 2.1-1.1 1.2-2.3 2.2-0.6 0.6-1.3 1.1-0.5 0.4-1 0.9c-1.4 1.1-2.6 2.4-3.7 3.8q-0.7 0.9-1.4 2-0.6 1.1-1 2.2 0 0 0-0.1-0.6 1.5-1 3-0.4 1.5-0.6 3.1 0 0 0 0 0 0 0 0c-0.3 2-0.4 4-0.4 6 0 0.1-0.1 0.2-0.2 0.2q-0.2 0.1-0.3-0.1c-0.6-0.9-0.9-1.9-1.2-2.9-0.3-0.9-0.6-1.8-0.8-2.7q-0.6 0.5-1.1 1.1-0.4 0.5-0.8 1.1-0.3 0.6-0.5 1.1 0 0 0 0-0.6 1.5-0.8 3c-0.2 1.3-0.1 2.6 0 3.9 0.3 2 0.9 4 1.7 5.8q0 0 0 0 0 0 0 0 0 0 0 0c1.1 2.6 2.5 5 4.2 7.2q1 1.3 2.1 2.5 0.8 0.4 1.7 0.9 2.4 1.2 5.1 1.9 2.5 0.8 5.3 1 1 0.1 2 0.1 1.6 0 3.3-0.3c2-0.2 3.7-0.6 5.4-1.2q2.7-1 5-2.5 1.7-1.2 3.3-2.7 0.1-0.2 0.2-0.5v0.1q0.9-2.3 1.6-4.7 0.5-2.2 0.8-4.4 0.2-1.5 0.3-2.9 0-0.7 0-1.3-0.1-1.1-0.3-2.3 0.1 0.1 0.1 0.1-0.4-2.5-1-5c-0.4-1.6-0.8-3.2-1.2-4.9-0.4-1.6-0.8-3.3-1.1-5q-0.2-1.3-0.3-2.5-0.1-1-0.1-2-0.8 0.7-1.5 1.5c-0.5 0.6-1 1.2-1.5 1.8q-0.4 0.4-0.8 0.8-0.3 0.3-0.6 0.5-0.4 0.2-0.7 0.4-0.4 0.1-0.8 0.1-0.6-0.1-1.1-0.3-0.6-0.3-1.2-0.8-0.8-0.7-1.5-1.5-0.5-0.6-0.9-1.3-0.8-1.4-1.2-3-0.4-1.7-0.4-3.4c-0.1-2.4 0.2-4.8 0.5-7.2 0.2-2.3 0.4-4.7 0.1-7q-0.1-0.9-0.4-1.7-0.8 1.2-1.5 2.5zm1.9-0.8q0 0 0 0 0 0 0 0zm-26.5 42q0 0 0 0 0 0 0 0zm1.7 5.8q0 0.1 0 0.1 0 0 0-0.1z"/><path fill-rule="evenodd" class="b" d="m812.6 379.8"/><path class="b" d="m775 395.8q0 0 0 0z"/><path class="b" d="m803.9 315.1q-0.5 0.7-0.9 1.3-0.5 0.8-1 1.6-0.5 0.8-1 1.6-0.4 0.7-1 1.3c-0.2 0.3-0.5 0.7-0.9 0.9q-0.2 0.2-0.4 0.3-0.1 0-0.2 0-0.1 0-0.2 0-0.1 0-0.3 0-0.1 0-0.2-0.1-0.2-0.2-0.3-0.4-0.2-0.4-0.3-0.9-0.6 0.6-1.1 1.2-0.6 0.8-1 1.6-0.4 0.7-0.8 1.4l0.1-0.1q-0.5 1.2-0.8 2.4-0.3 1.1-0.4 2.2 0 0 0 0 0 0 0 0c-0.3 2.1-0.3 4.1-0.3 6.2q0 1.7-0.1 3.3 0 0.9-0.1 1.7-0.1 0.8-0.2 1.6-0.2 1.8-0.8 3.4-0.5 1.6-1.1 3.1-0.3 0.6-0.6 1.1 0.2-0.1 0.5-0.3l0.1-0.2 0.5-0.4 0.2-0.2 0.2-0.2q0.4-0.5 0.9-1.1c1.4-1.7 2.4-3.3 3.1-4.8 0.9-2 1.3-4.3 1.4-6.8 0-0.9 0-1.9-0.1-2.8v-0.3c0-0.7-0.1-1.8 0-2.8v-0.1c0.1-0.6 0.2-1 0.4-1.4q0.1-0.3 0.4-0.6 0.2-0.4 0.6-0.6 0.4-0.4 1-0.6 0.9-0.4 1.7-0.5 0.2 0 0.4 0 0.2 0 0.4 0c0.2 0 0.5 0.1 0.9 0.2q0.3 0.2 0.6 0.3c0.3 0.2 0.4 0.3 0.6 0.4q0.5 0.2 0.9 0.2 0.2 0 0.4-0.1 0.4-0.1 0.6-0.4 0.2-0.3 0.3-0.5 0.1-0.4 0.1-0.8 0.2-1.1 0.2-2.1-0.1-1.2-0.2-2.3 0 0 0 0.1c-0.3-2.3-0.9-4.5-1.6-6.6q-0.3 0.3-0.6 0.6z"/><path fill-rule="evenodd" class="b" d="m798.9 321.4z"/><path fill-rule="evenodd" class="b" d="m812.6 379.8"/><path fill-rule="evenodd" class="b" d="m798.9 321.4z"/><path class="d" d="m795.1 378.8q-0.4 0.8-0.9 1.7-0.5 0.8-1.1 1.7-1.2 1.8-2.2 3.7-1 1.8-1.8 3.7 0 0 0 0-0.6 1.4-1.1 2.9-0.4 1.5-0.6 3c-0.2 1.4-0.2 2.8-0.2 4.3q0 1-0.1 2.1-0.1 0.9-0.3 1.8c-0.2 0.7-0.4 1.3-0.8 1.8q-0.4 0.7-1 1.3-0.5 0.5-1.1 0.9-0.4 0.3-0.8 0.6h0.1q-0.1 0-0.1 0 0 0 0 0 0 0 0 0 0 0 0 0 0 0 0 0 0 0 0 0 0 0 0 0-0.3 0.3-0.6 0.6 0 0 0 0 0 0 0 0 0 0 0 0-0.1 0.2-0.2 0.4 0 0 0 0 0 0 0 0 0 0 0 0-0.1 0.3-0.2 0.6 0 0 0 0 0 0.6 0.1 1.3 0.1 0.9 0.3 1.8 0.3 0.9 0.6 1.7 0-0.1 0-0.1 0.3 0.9 0.8 1.8 0.6 0.8 1.1 1.6 0 0 0.1 0 0 0 0 0 0 0 0 0 0 0 0 0 0 0 0 0 0.6 0.9 1.4 1.6 0.5 0.6 1.1 1 0.7 0.3 1.4 0.5 2.5 0.7 5.3 0.9 1 0.1 2 0.1 1.7 0 3.3-0.2c2-0.3 3.7-0.7 5.4-1.3q1.5-0.6 2.9-1.3 0.4-0.5 0.7-1.1 1.1-1.9 2-3.9c0.5-1.2 1-2.5 1.2-3.9q0 0 0 0 0 0 0 0 0.1-0.8 0-1.6-0.1-0.5-0.2-1-0.2-0.3-0.4-0.6 0 0 0 0 0 0 0 0 0 0 0 0-0.2-0.3-0.5-0.5-0.2-0.1-0.4-0.2-0.2-0.1-0.4-0.1 0.1 0 0.1 0-0.2 0-0.3 0-0.2 0-0.4 0.1-0.2 0.1-0.5 0.3c-0.4 0.4-0.8 0.8-1.2 1.2q-0.3 0.3-0.6 0.5-0.2 0.2-0.5 0.3-0.1 0.1-0.3 0.1-0.1 0-0.2-0.1-0.3-0.1-0.5-0.3-0.2-0.2-0.3-0.4-0.1-0.2-0.2-0.4-0.2-0.4-0.2-0.9-0.1-0.4-0.1-0.9 0-0.4 0.1-0.9 0.2-1 0.6-2c0.5-1.4 1.2-2.7 1.8-4.1q0 0.1 0 0.1c0.4-0.9 0.7-1.8 0.8-2.7q0 0 0-0.1 0 0.1 0 0.1 0 0 0-0.1 0.1-0.6 0-1.2 0-0.5-0.2-1-0.2-0.4-0.5-0.8-0.4-0.5-0.9-0.9 0 0 0 0 0 0 0 0 0 0 0 0 0 0 0 0 0 0 0 0 0 0 0 0-0.8-0.6-1.8-1 0.1 0 0.1 0-0.1 0-0.1 0-0.6-0.3-1.3-0.5-0.5-0.1-1.1-0.2c-0.7-0.2-1.5-0.3-2.2-0.6q-0.5-0.3-1-0.6-0.5-0.4-0.8-0.9-0.5-0.6-0.8-1.2-0.2-0.5-0.4-1.1c-0.6-1.7-0.7-3.6-0.7-5.4q0-1.4 0-2.9 0-0.9-0.1-1.8-0.4 1.4-1.1 2.7zm-7.7 16.7q0 0 0 0 0 0 0 0z"/><path class="d" d="m787.4 395.5q0 0 0-0.1 0 0.1 0 0.1z"/><path class="d" d="m811.2 407.2q0 0 0 0z"/><path fill-rule="evenodd" class="d" d="m811.8 410.4"/><path class="d" d="m785.1 418q0 0 0 0 0 0 0 0 0 0 0 0 0 0 0 0z"/><path class="d" d="m785.1 418q0 0 0 0 0 0 0 0 0 0 0 0z"/><path fill-rule="evenodd" class="b" d="m812.6 379.8"/><path fill-rule="evenodd" class="b" d="m798.9 321.4z"/><path class="f" d="m797.3 399q0 0 0 0 0 0 0 0 0 0 0 0 0 0 0 0v0.1q0-0.1 0-0.1 0 0 0 0.1c-1.1 1.4-2 3.1-2.7 4.8-0.7 1.6-1.3 3.3-1.8 4.9q-0.5 1.2-0.9 2.4-0.4 1.1-0.8 2.1 0 0 0 0 0 0 0 0 0 0 0 0c-0.4 0.9-0.7 1.9-0.8 2.9q0 0 0 0 0 0 0 0v-0.1q-0.1 0.5-0.1 1 0 0.5 0.1 0.9 0-0.1-0.1-0.1 0.1 0.7 0.4 1.4 0-0.1 0-0.1 0.3 0.7 0.7 1.3 0.6 0.7 1.4 1.3 0.8 0.2 1.6 0.2 1.1 0.1 2 0.1 1.7 0 3.3-0.2c1.7-0.2 3.3-0.6 4.7-1.1q0.1-0.6 0.1-1.2 0-0.6-0.1-1.2 0 0.1 0.1 0.1-0.1-0.7-0.4-1.4-0.2-0.8-0.5-1.5 0 0.1 0 0.1c-0.5-1.4-1.3-2.6-2-3.9q-0.3-0.5-0.6-1.1-0.4-0.6-0.6-1.2-0.5-1.1-0.8-2.2-0.3-1.1-0.4-2.2-0.1-1.2-0.2-2.3 0-1.3-0.1-2.5-0.1-1.3-0.3-2.6 0 0 0 0.1v-0.1q-0.6 0.6-1.2 1.3zm-6.2 14.2q0 0 0 0.1 0-0.1 0-0.1z"/><path class="f" d="m804.3 420.8q0 0 0.1 0-0.1 0-0.1 0z"/><path class="a" d="m854.7 367.9q-0.1 0.1-0.2 0.1-0.2 0.1-0.3 0.2-0.2 0.1-0.4 0.3c-0.3 0.4-0.4 0.9-0.4 1.2q-0.1 0.6 0.1 1.4 0.1 0.3 0.3 0.6-0.1-0.1-0.1-0.1 0.2 0.3 0.4 0.5 0.1 0.2 0.2 0.4c0.3 0.3 0.6 0.5 0.8 0.8 0.2 0.3 0.4 0.5 0.6 0.8q0.1 0.2 0.2 0.4 0.1 0.4 0.2 0.7l0.1 0.1q0 0 0-0.1 0.8-1.4 1.1-2.7 0.2-1.1 0.1-2.1c-0.2-1.1-0.7-2-1.6-2.3q-0.4-0.2-0.9-0.2-0.1 0-0.2 0.1z"/><path class="a" d="m854.3 388q0 0.2 0 0.4c0 0.8-0.1 1.5-0.3 2.2-0.6 1.9-1.6 3.6-2.5 5.1-0.9 1.7-2.1 3.3-3.2 4.9q-1.1 1.6-2.1 3.1c-1 1.6-1.8 2.8-2.4 4-0.7 1.4-1.2 2.6-1.6 3.8q-0.4 1.9-0.1 3.5 0.2 0.9 0.6 1.7 0.4 0.7 1.1 1.4c0.5 0.4 1 0.8 1.7 1.2 0.7 0.4 1.4 0.7 2.3 1 0.9 0.3 1.8 0.6 3 0.8 1.2 0.3 2.4 0.4 3.4 0.4q1.1 0.1 2 0 0.6-0.1 1.2-0.2 1.4-0.4 2.6-1 0.6-0.3 1.1-0.7 0.5-0.4 1-1 0.8-0.8 1.4-2.1 0.5-1.1 0.8-2.5 0.2-1.4 0-3-0.1-1.4-0.6-3.2c-0.1-0.4-0.3-0.9-0.6-1.5-0.2-0.6-0.5-1.2-0.9-2-0.5-0.8-1.1-1.6-1.6-2.3q-0.4-0.5-0.8-1-0.6-0.8-1.1-1.7-0.5-0.7-0.9-1.5-0.3-0.7-0.6-1.5-0.2-0.7-0.4-1.5c-0.3-1-0.5-2-0.8-3q0.1 0 0.1 0-0.3-0.9-0.6-1.7-0.3-0.9-0.7-1.6-0.2-0.4-0.4-0.7-0.1 0.1-0.1 0.2zm0.5 0.4q0 0.1 0 0.1 0 0 0-0.1z"/><path class="a" d="m854.7 367.9q-0.1 0.1-0.2 0.1-0.2 0.1-0.3 0.2-0.2 0.1-0.4 0.3c-0.3 0.4-0.4 0.9-0.4 1.2q-0.1 0.6 0.1 1.4 0.1 0.3 0.3 0.6-0.1-0.1-0.1-0.1 0.2 0.3 0.4 0.5 0.1 0.2 0.2 0.4c0.3 0.3 0.6 0.5 0.8 0.8 0.2 0.3 0.4 0.5 0.6 0.8q0.1 0.2 0.2 0.4 0.1 0.4 0.2 0.7l0.1 0.1q0 0 0-0.1 0.8-1.4 1.1-2.7 0.2-1.1 0.1-2.1c-0.2-1.1-0.7-2-1.6-2.3q-0.4-0.2-0.9-0.2-0.1 0-0.2 0.1z"/><path class="b" d="m854.4 397.9q0 0 0 0-0.3 0.5-0.5 1-0.4 0.9-0.7 1.7-0.3 0.6-0.5 1.2l-0.2 0.5-0.1 0.3-0.1 0.2q-0.2 0.4-0.4 0.8-0.1 0.3-0.2 0.5-0.1 0.3-0.3 0.5c-0.5 0.6-1 1.2-1.7 1.9l-0.4 0.5-0.2 0.2q-0.7 0.6-1.3 1.3-0.4 0.5-0.8 1-0.4 0.5-0.7 1-0.3 0.6-0.6 1.1-0.2 0.5-0.3 1.1-0.2 0.4-0.3 0.9 0 0.5-0.1 1 0 0.4 0.1 0.9 0 0.3 0.1 0.7c0.1 0.2 0.2 0.5 0.3 0.8q0.1 0.3 0.3 0.7 0.3 0.4 0.5 0.8 0.3 0.4 0.7 0.7 0.8 0.8 1.8 1.5 1 0.3 2 0.5c1.2 0.2 2.4 0.4 3.4 0.4q1.1 0 2-0.1 0.6-0.1 1.2-0.2 0.6-0.1 1.2-0.3 0.4-0.5 0.8-0.9 0.5-0.7 0.8-1.3c0.3-0.5 0.5-0.9 0.7-1.2q0.2-0.6 0.4-1.3 0.2-0.6 0.3-1.1 0.1-0.7 0.1-1.2 0-0.8-0.1-1.4 0-0.6-0.2-1.2c-0.1-0.6-0.3-1-0.5-1.5q-0.3-0.7-0.6-1.3c-0.6-0.9-1.2-1.9-2.2-3l-0.5-0.6c-0.5-0.6-1-1.2-1.4-1.8q-1-1.4-1.4-2.6-0.2-0.8-0.3-1.6-0.1-0.5-0.1-1.1z"/><path class="b" d="m847.7 383.7q-0.1 0-0.2 0.2-0.6 0.6-0.9 1.5-0.3 0.7-0.4 1.8-0.2 0.7-0.2 1.5l-0.1 0.4c-0.1 0.7-0.2 1.3-0.3 1.8q0.3 0 0.6-0.2 0.2-0.1 0.3-0.2 0.2-0.1 0.4-0.3 0.2-0.3 0.4-0.5 0.2-0.2 0.3-0.5 0.6-0.9 0.9-2v-0.2q0.1-0.3 0.1-0.6 0-0.2 0.1-0.5 0-0.3-0.1-0.6 0-0.1 0-0.3-0.1-0.2-0.2-0.4-0.1-0.3-0.3-0.6 0-0.1-0.1-0.2-0.1-0.1-0.2-0.1c0 0 0 0-0.1 0z"/><path class="d" d="m842.3 394.4q-0.2 0-0.2 0.2-0.2 0.3-0.2 0.6-0.1 0.3-0.2 0.6 0 0.5 0.2 1.1 0.1 0.3 0.2 0.6 0.2 0.3 0.4 0.6c0.3 0.4 0.7 0.8 1 1.1q0.1-0.1 0.1-0.2v-0.2-0.3q0-0.5 0-1.1 0.1-0.4 0-0.9 0-0.3-0.1-0.6l-0.1-0.3q-0.1-0.2-0.2-0.3v-0.1q-0.3-0.4-0.6-0.7 0 0-0.1-0.1-0.1 0-0.2 0z"/><path class="d" d="m852.2 407.4q0 0 0 0 0 0 0 0 0 0 0 0 0 0.1 0 0.1 0 0 0 0 0 0 0 0 0 0 0 0 0 0 0 0c-1 1.4-1.9 2.9-2.5 4.5q-0.3 0.8-0.5 1.5-0.1 0.8-0.2 1.5-0.1 0.6-0.1 1.3 0 0.5 0.1 1 0.1 0.5 0.3 1 0.1 0.4 0.3 0.9 0 0 0 0 0.2 0.4 0.5 0.8 0.2 0.4 0.5 0.7 0 0 0 0 0 0.1 0 0.1 0 0 0 0 0 0 0 0 0.2 0.2 0.4 0.4 1.7 0.4 3.2 0.4 0.9 0 1.6 0 0.5-0.6 0.9-1.2 0.5-0.6 0.8-1.3 0.3-0.6 0.6-1.2 0.2-0.5 0.3-1 0.1-0.5 0.1-1 0 0 0 0 0.1-0.4 0.1-0.8-0.1-0.4-0.1-0.7 0 0 0 0-0.1-0.4-0.2-0.8-0.1-0.3-0.2-0.6 0 0 0-0.1-0.2-0.3-0.4-0.6-0.1-0.2-0.3-0.5-0.3-0.3-0.6-0.6-0.3-0.2-0.6-0.4 0-0.1 0-0.1 0 0 0 0 0 0 0 0c-0.4-0.2-0.8-0.5-1.3-0.7-0.3-0.3-0.7-0.5-1-0.8q-0.5-0.5-0.8-1.2-0.2-0.4-0.3-0.8-0.1-0.2-0.1-0.4-0.2 0.3-0.5 0.6zm6.3 8.5q0 0 0 0 0 0 0 0zm-8.9 3.2q0 0 0 0.1 0-0.1 0-0.1z"/><path class="d" d="m852.2 407.5v-0.1z"/><path class="d" d="m850.6 420.7q0 0 0 0 0 0 0 0z"/><path fill-rule="evenodd" class="d" d="m850.6 420.7"/><path class="d" d="m850.6 420.8q0 0 0-0.1 0 0 0 0 0 0 0 0.1z"/><path class="d" d="m850.6 420.8q0 0 0 0 0 0 0 0z"/><path class="f" d="m854 416.2q-0.4 0.1-0.8 0.3-0.4 0.2-0.8 0.5-0.3 0.4-0.6 0.7 0 0 0.1 0-0.2 0.3-0.4 0.6 0 0.2-0.1 0.4 0 0.2 0 0.3 0 0.2 0 0.5 0 0.1 0.1 0.3 0 0.2 0.1 0.4 0.1 0.2 0.2 0.4 0.1 0.3 0.4 0.6 0 0 0 0 0.1 0.1 0.3 0.3 0.7 0.1 1.4 0.1 0.5-0.7 1-1.4 0.3-0.4 0.5-0.8 0.2-0.3 0.3-0.6 0.1-0.3 0.1-0.6 0.1-0.2 0.1-0.4 0-0.4-0.1-0.7 0 0 0 0 0-0.1-0.1-0.3-0.1-0.2-0.2-0.3-0.1-0.1-0.2-0.1-0.1-0.1-0.3-0.2 0.1 0 0.1 0-0.2 0-0.5 0-0.2-0.1-0.4 0-0.1 0-0.2 0z"/><path class="f" d="m855.8 417.1q0 0 0 0 0 0 0 0z"/><path class="f" d="m854.9 420.2q0 0 0 0 0 0 0 0z"/></svg>